<?xml version="1.0" encoding="utf-8" standalone="no"?>
<!DOCTYPE svg PUBLIC "-//W3C//DTD SVG 1.1//EN"
  "http://www.w3.org/Graphics/SVG/1.1/DTD/svg11.dtd">
<svg xmlns:xlink="http://www.w3.org/1999/xlink" width="1152pt" height="576pt" viewBox="0 0 1152 576" xmlns="http://www.w3.org/2000/svg" version="1.1">
 <metadata>
  <rdf:RDF xmlns:dc="http://purl.org/dc/elements/1.1/" xmlns:cc="http://creativecommons.org/ns#" xmlns:rdf="http://www.w3.org/1999/02/22-rdf-syntax-ns#">
   <cc:Work>
    <dc:type rdf:resource="http://purl.org/dc/dcmitype/StillImage"/>
    <dc:date>2024-09-04T20:21:19.526735</dc:date>
    <dc:format>image/svg+xml</dc:format>
    <dc:creator>
     <cc:Agent>
      <dc:title>Matplotlib v3.9.0, https://matplotlib.org/</dc:title>
     </cc:Agent>
    </dc:creator>
   </cc:Work>
  </rdf:RDF>
 </metadata>
 <defs>
  <style type="text/css">*{stroke-linejoin: round; stroke-linecap: butt}</style>
 </defs>
 <g id="figure_1">
  <g id="patch_1">
   <path d="M 0 576 
L 1152 576 
L 1152 0 
L 0 0 
z
" style="fill: #ffffff"/>
  </g>
  <g id="axes_1">
   <g id="patch_2">
    <path d="M 518.073616 310.361665 
C 518.073616 278.070086 511.712879 246.092502 499.355426 216.258973 
C 486.997974 186.425444 468.884128 159.316157 446.050533 136.482563 
C 423.216939 113.648968 396.107652 95.535122 366.274123 83.17767 
C 336.440594 70.820218 304.46301 64.459481 272.171431 64.459481 
C 239.879852 64.459481 207.902268 70.820218 178.068739 83.17767 
C 148.235211 95.535122 121.125924 113.648968 98.292329 136.482563 
C 75.458735 159.316157 57.344889 186.425444 44.987436 216.258973 
C 32.629984 246.092502 26.269247 278.070086 26.269247 310.361665 
C 26.269247 342.653244 32.629984 374.630828 44.987436 404.464357 
C 57.344889 434.297886 75.458735 461.407172 98.292329 484.240767 
C 121.125924 507.074361 148.235211 525.188208 178.068739 537.54566 
C 207.902268 549.903112 239.879852 556.263849 272.171431 556.263849 
C 304.46301 556.263849 336.440594 549.903112 366.274123 537.54566 
C 396.107652 525.188208 423.216939 507.074361 446.050533 484.240767 
C 468.884128 461.407172 486.997974 434.297886 499.355426 404.464357 
C 511.712879 374.630828 518.073616 342.653244 518.073616 310.361665 
M 272.171431 310.361665 
C 272.171431 310.361665 272.171431 310.361665 272.171431 310.361665 
C 272.171431 310.361665 272.171431 310.361665 272.171431 310.361665 
C 272.171431 310.361665 272.171431 310.361665 272.171431 310.361665 
C 272.171431 310.361665 272.171431 310.361665 272.171431 310.361665 
C 272.171431 310.361665 272.171431 310.361665 272.171431 310.361665 
C 272.171431 310.361665 272.171431 310.361665 272.171431 310.361665 
C 272.171431 310.361665 272.171431 310.361665 272.171431 310.361665 
C 272.171431 310.361665 272.171431 310.361665 272.171431 310.361665 
C 272.171431 310.361665 272.171431 310.361665 272.171431 310.361665 
C 272.171431 310.361665 272.171431 310.361665 272.171431 310.361665 
C 272.171431 310.361665 272.171431 310.361665 272.171431 310.361665 
C 272.171431 310.361665 272.171431 310.361665 272.171431 310.361665 
C 272.171431 310.361665 272.171431 310.361665 272.171431 310.361665 
C 272.171431 310.361665 272.171431 310.361665 272.171431 310.361665 
C 272.171431 310.361665 272.171431 310.361665 272.171431 310.361665 
C 272.171431 310.361665 272.171431 310.361665 272.171431 310.361665 
z
" style="fill: #ffffff"/>
   </g>
   <g id="patch_3">
    <path d="M 502.651262 310.361665 
L 413.752835 132.8242 
L 222.945835 94.690237 
L 77.8358 216.774557 
L 54.068636 415.394435 
L 220.995479 534.578162 
L 419.329733 494.892339 
z
" clip-path="url(#p0d4ce24bc6)" style="fill: #0000ff; opacity: 0.25; stroke: #0000ff; stroke-linejoin: miter"/>
   </g>
   <g id="patch_4">
    <path d="M 511.039038 310.361665 
L 402.280481 147.210077 
L 228.490327 118.982242 
L 76.690853 216.22318 
L 57.64155 413.673811 
L 221.564124 532.086768 
L 407.422824 479.961546 
z
" clip-path="url(#p0d4ce24bc6)" style="fill: #ff0000; opacity: 0.3; stroke: #ff0000; stroke-linejoin: miter"/>
   </g>
   <g id="patch_5">
    <path d="M 509.221061 310.361665 
L 416.625205 129.222362 
L 221.735139 89.385829 
L 77.486822 216.606498 
L 54.371494 415.248587 
L 221.077152 534.220331 
L 411.756501 485.395806 
z
" clip-path="url(#p0d4ce24bc6)" style="fill: #008000; opacity: 0.35; stroke: #008000; stroke-linejoin: miter"/>
   </g>
   <g id="matplotlib.axis_1">
    <g id="xtick_1">
     <g id="line2d_1">
      <path d="M 272.171431 310.361665 
L 518.073616 310.361665 
" clip-path="url(#p0d4ce24bc6)" style="fill: none; stroke: #b0b0b0; stroke-width: 0.8; stroke-linecap: square"/>
     </g>
     <g id="text_1">
      <!-- Back1 -->
      <g transform="translate(509.093147 314.500727) scale(0.15 -0.15)">
       <defs>
        <path id="DejaVuSans-42" d="M 1259 2228 
L 1259 519 
L 2272 519 
Q 2781 519 3026 730 
Q 3272 941 3272 1375 
Q 3272 1813 3026 2020 
Q 2781 2228 2272 2228 
L 1259 2228 
z
M 1259 4147 
L 1259 2741 
L 2194 2741 
Q 2656 2741 2882 2914 
Q 3109 3088 3109 3444 
Q 3109 3797 2882 3972 
Q 2656 4147 2194 4147 
L 1259 4147 
z
M 628 4666 
L 2241 4666 
Q 2963 4666 3353 4366 
Q 3744 4066 3744 3513 
Q 3744 3084 3544 2831 
Q 3344 2578 2956 2516 
Q 3422 2416 3680 2098 
Q 3938 1781 3938 1306 
Q 3938 681 3513 340 
Q 3088 0 2303 0 
L 628 0 
L 628 4666 
z
" transform="scale(0.015625)"/>
        <path id="DejaVuSans-61" d="M 2194 1759 
Q 1497 1759 1228 1600 
Q 959 1441 959 1056 
Q 959 750 1161 570 
Q 1363 391 1709 391 
Q 2188 391 2477 730 
Q 2766 1069 2766 1631 
L 2766 1759 
L 2194 1759 
z
M 3341 1997 
L 3341 0 
L 2766 0 
L 2766 531 
Q 2569 213 2275 61 
Q 1981 -91 1556 -91 
Q 1019 -91 701 211 
Q 384 513 384 1019 
Q 384 1609 779 1909 
Q 1175 2209 1959 2209 
L 2766 2209 
L 2766 2266 
Q 2766 2663 2505 2880 
Q 2244 3097 1772 3097 
Q 1472 3097 1187 3025 
Q 903 2953 641 2809 
L 641 3341 
Q 956 3463 1253 3523 
Q 1550 3584 1831 3584 
Q 2591 3584 2966 3190 
Q 3341 2797 3341 1997 
z
" transform="scale(0.015625)"/>
        <path id="DejaVuSans-63" d="M 3122 3366 
L 3122 2828 
Q 2878 2963 2633 3030 
Q 2388 3097 2138 3097 
Q 1578 3097 1268 2742 
Q 959 2388 959 1747 
Q 959 1106 1268 751 
Q 1578 397 2138 397 
Q 2388 397 2633 464 
Q 2878 531 3122 666 
L 3122 134 
Q 2881 22 2623 -34 
Q 2366 -91 2075 -91 
Q 1284 -91 818 406 
Q 353 903 353 1747 
Q 353 2603 823 3093 
Q 1294 3584 2113 3584 
Q 2378 3584 2631 3529 
Q 2884 3475 3122 3366 
z
" transform="scale(0.015625)"/>
        <path id="DejaVuSans-6b" d="M 581 4863 
L 1159 4863 
L 1159 1991 
L 2875 3500 
L 3609 3500 
L 1753 1863 
L 3688 0 
L 2938 0 
L 1159 1709 
L 1159 0 
L 581 0 
L 581 4863 
z
" transform="scale(0.015625)"/>
        <path id="DejaVuSans-31" d="M 794 531 
L 1825 531 
L 1825 4091 
L 703 3866 
L 703 4441 
L 1819 4666 
L 2450 4666 
L 2450 531 
L 3481 531 
L 3481 0 
L 794 0 
L 794 531 
z
" transform="scale(0.015625)"/>
       </defs>
       <use xlink:href="#DejaVuSans-42"/>
       <use xlink:href="#DejaVuSans-61" x="68.603516"/>
       <use xlink:href="#DejaVuSans-63" x="129.882812"/>
       <use xlink:href="#DejaVuSans-6b" x="184.863281"/>
       <use xlink:href="#DejaVuSans-31" x="242.773438"/>
      </g>
     </g>
    </g>
    <g id="xtick_2">
     <g id="line2d_2">
      <path d="M 272.171431 310.361665 
L 425.488935 118.107596 
" clip-path="url(#p0d4ce24bc6)" style="fill: none; stroke: #b0b0b0; stroke-width: 0.8; stroke-linecap: square"/>
     </g>
     <g id="text_2">
      <!-- Back2 -->
      <g transform="translate(411.237324 111.301017) scale(0.15 -0.15)">
       <defs>
        <path id="DejaVuSans-32" d="M 1228 531 
L 3431 531 
L 3431 0 
L 469 0 
L 469 531 
Q 828 903 1448 1529 
Q 2069 2156 2228 2338 
Q 2531 2678 2651 2914 
Q 2772 3150 2772 3378 
Q 2772 3750 2511 3984 
Q 2250 4219 1831 4219 
Q 1534 4219 1204 4116 
Q 875 4013 500 3803 
L 500 4441 
Q 881 4594 1212 4672 
Q 1544 4750 1819 4750 
Q 2544 4750 2975 4387 
Q 3406 4025 3406 3419 
Q 3406 3131 3298 2873 
Q 3191 2616 2906 2266 
Q 2828 2175 2409 1742 
Q 1991 1309 1228 531 
z
" transform="scale(0.015625)"/>
       </defs>
       <use xlink:href="#DejaVuSans-42"/>
       <use xlink:href="#DejaVuSans-61" x="68.603516"/>
       <use xlink:href="#DejaVuSans-63" x="129.882812"/>
       <use xlink:href="#DejaVuSans-6b" x="184.863281"/>
       <use xlink:href="#DejaVuSans-32" x="242.773438"/>
      </g>
     </g>
    </g>
    <g id="xtick_3">
     <g id="line2d_3">
      <path d="M 272.171431 310.361665 
L 217.453048 70.624762 
" clip-path="url(#p0d4ce24bc6)" style="fill: none; stroke: #b0b0b0; stroke-width: 0.8; stroke-linecap: square"/>
     </g>
     <g id="text_3">
      <!-- Back3 -->
      <g transform="translate(191.357286 61.114834) scale(0.15 -0.15)">
       <defs>
        <path id="DejaVuSans-33" d="M 2597 2516 
Q 3050 2419 3304 2112 
Q 3559 1806 3559 1356 
Q 3559 666 3084 287 
Q 2609 -91 1734 -91 
Q 1441 -91 1130 -33 
Q 819 25 488 141 
L 488 750 
Q 750 597 1062 519 
Q 1375 441 1716 441 
Q 2309 441 2620 675 
Q 2931 909 2931 1356 
Q 2931 1769 2642 2001 
Q 2353 2234 1838 2234 
L 1294 2234 
L 1294 2753 
L 1863 2753 
Q 2328 2753 2575 2939 
Q 2822 3125 2822 3475 
Q 2822 3834 2567 4026 
Q 2313 4219 1838 4219 
Q 1578 4219 1281 4162 
Q 984 4106 628 3988 
L 628 4550 
Q 988 4650 1302 4700 
Q 1616 4750 1894 4750 
Q 2613 4750 3031 4423 
Q 3450 4097 3450 3541 
Q 3450 3153 3228 2886 
Q 3006 2619 2597 2516 
z
" transform="scale(0.015625)"/>
       </defs>
       <use xlink:href="#DejaVuSans-42"/>
       <use xlink:href="#DejaVuSans-61" x="68.603516"/>
       <use xlink:href="#DejaVuSans-63" x="129.882812"/>
       <use xlink:href="#DejaVuSans-6b" x="184.863281"/>
       <use xlink:href="#DejaVuSans-33" x="242.773438"/>
      </g>
     </g>
    </g>
    <g id="xtick_4">
     <g id="line2d_4">
      <path d="M 272.171431 310.361665 
L 50.621219 203.668706 
" clip-path="url(#p0d4ce24bc6)" style="fill: none; stroke: #b0b0b0; stroke-width: 0.8; stroke-linecap: square"/>
     </g>
     <g id="text_4">
      <!-- Back4 -->
      <g transform="translate(15.027186 201.733396) scale(0.15 -0.15)">
       <defs>
        <path id="DejaVuSans-34" d="M 2419 4116 
L 825 1625 
L 2419 1625 
L 2419 4116 
z
M 2253 4666 
L 3047 4666 
L 3047 1625 
L 3713 1625 
L 3713 1100 
L 3047 1100 
L 3047 0 
L 2419 0 
L 2419 1100 
L 313 1100 
L 313 1709 
L 2253 4666 
z
" transform="scale(0.015625)"/>
       </defs>
       <use xlink:href="#DejaVuSans-42"/>
       <use xlink:href="#DejaVuSans-61" x="68.603516"/>
       <use xlink:href="#DejaVuSans-63" x="129.882812"/>
       <use xlink:href="#DejaVuSans-6b" x="184.863281"/>
       <use xlink:href="#DejaVuSans-34" x="242.773438"/>
      </g>
     </g>
    </g>
    <g id="xtick_5">
     <g id="line2d_5">
      <path d="M 272.171431 310.361665 
L 50.621219 417.054624 
" clip-path="url(#p0d4ce24bc6)" style="fill: none; stroke: #b0b0b0; stroke-width: 0.8; stroke-linecap: square"/>
     </g>
     <g id="text_5">
      <!-- Head -->
      <g transform="translate(18.395155 427.268059) scale(0.15 -0.15)">
       <defs>
        <path id="DejaVuSans-48" d="M 628 4666 
L 1259 4666 
L 1259 2753 
L 3553 2753 
L 3553 4666 
L 4184 4666 
L 4184 0 
L 3553 0 
L 3553 2222 
L 1259 2222 
L 1259 0 
L 628 0 
L 628 4666 
z
" transform="scale(0.015625)"/>
        <path id="DejaVuSans-65" d="M 3597 1894 
L 3597 1613 
L 953 1613 
Q 991 1019 1311 708 
Q 1631 397 2203 397 
Q 2534 397 2845 478 
Q 3156 559 3463 722 
L 3463 178 
Q 3153 47 2828 -22 
Q 2503 -91 2169 -91 
Q 1331 -91 842 396 
Q 353 884 353 1716 
Q 353 2575 817 3079 
Q 1281 3584 2069 3584 
Q 2775 3584 3186 3129 
Q 3597 2675 3597 1894 
z
M 3022 2063 
Q 3016 2534 2758 2815 
Q 2500 3097 2075 3097 
Q 1594 3097 1305 2825 
Q 1016 2553 972 2059 
L 3022 2063 
z
" transform="scale(0.015625)"/>
        <path id="DejaVuSans-64" d="M 2906 2969 
L 2906 4863 
L 3481 4863 
L 3481 0 
L 2906 0 
L 2906 525 
Q 2725 213 2448 61 
Q 2172 -91 1784 -91 
Q 1150 -91 751 415 
Q 353 922 353 1747 
Q 353 2572 751 3078 
Q 1150 3584 1784 3584 
Q 2172 3584 2448 3432 
Q 2725 3281 2906 2969 
z
M 947 1747 
Q 947 1113 1208 752 
Q 1469 391 1925 391 
Q 2381 391 2643 752 
Q 2906 1113 2906 1747 
Q 2906 2381 2643 2742 
Q 2381 3103 1925 3103 
Q 1469 3103 1208 2742 
Q 947 2381 947 1747 
z
" transform="scale(0.015625)"/>
       </defs>
       <use xlink:href="#DejaVuSans-48"/>
       <use xlink:href="#DejaVuSans-65" x="75.195312"/>
       <use xlink:href="#DejaVuSans-61" x="136.71875"/>
       <use xlink:href="#DejaVuSans-64" x="197.998047"/>
      </g>
     </g>
    </g>
    <g id="xtick_6">
     <g id="line2d_6">
      <path d="M 272.171431 310.361665 
L 217.453048 550.098568 
" clip-path="url(#p0d4ce24bc6)" style="fill: none; stroke: #b0b0b0; stroke-width: 0.8; stroke-linecap: square"/>
     </g>
     <g id="text_6">
      <!-- Nose -->
      <g transform="translate(195.61588 567.886621) scale(0.15 -0.15)">
       <defs>
        <path id="DejaVuSans-4e" d="M 628 4666 
L 1478 4666 
L 3547 763 
L 3547 4666 
L 4159 4666 
L 4159 0 
L 3309 0 
L 1241 3903 
L 1241 0 
L 628 0 
L 628 4666 
z
" transform="scale(0.015625)"/>
        <path id="DejaVuSans-6f" d="M 1959 3097 
Q 1497 3097 1228 2736 
Q 959 2375 959 1747 
Q 959 1119 1226 758 
Q 1494 397 1959 397 
Q 2419 397 2687 759 
Q 2956 1122 2956 1747 
Q 2956 2369 2687 2733 
Q 2419 3097 1959 3097 
z
M 1959 3584 
Q 2709 3584 3137 3096 
Q 3566 2609 3566 1747 
Q 3566 888 3137 398 
Q 2709 -91 1959 -91 
Q 1206 -91 779 398 
Q 353 888 353 1747 
Q 353 2609 779 3096 
Q 1206 3584 1959 3584 
z
" transform="scale(0.015625)"/>
        <path id="DejaVuSans-73" d="M 2834 3397 
L 2834 2853 
Q 2591 2978 2328 3040 
Q 2066 3103 1784 3103 
Q 1356 3103 1142 2972 
Q 928 2841 928 2578 
Q 928 2378 1081 2264 
Q 1234 2150 1697 2047 
L 1894 2003 
Q 2506 1872 2764 1633 
Q 3022 1394 3022 966 
Q 3022 478 2636 193 
Q 2250 -91 1575 -91 
Q 1294 -91 989 -36 
Q 684 19 347 128 
L 347 722 
Q 666 556 975 473 
Q 1284 391 1588 391 
Q 1994 391 2212 530 
Q 2431 669 2431 922 
Q 2431 1156 2273 1281 
Q 2116 1406 1581 1522 
L 1381 1569 
Q 847 1681 609 1914 
Q 372 2147 372 2553 
Q 372 3047 722 3315 
Q 1072 3584 1716 3584 
Q 2034 3584 2315 3537 
Q 2597 3491 2834 3397 
z
" transform="scale(0.015625)"/>
       </defs>
       <use xlink:href="#DejaVuSans-4e"/>
       <use xlink:href="#DejaVuSans-6f" x="74.804688"/>
       <use xlink:href="#DejaVuSans-73" x="135.986328"/>
       <use xlink:href="#DejaVuSans-65" x="188.085938"/>
      </g>
     </g>
    </g>
    <g id="xtick_7">
     <g id="line2d_7">
      <path d="M 272.171431 310.361665 
L 425.488935 502.615734 
" clip-path="url(#p0d4ce24bc6)" style="fill: none; stroke: #b0b0b0; stroke-width: 0.8; stroke-linecap: square"/>
     </g>
     <g id="text_7">
      <!-- Neck -->
      <g transform="translate(415.525215 517.700437) scale(0.15 -0.15)">
       <use xlink:href="#DejaVuSans-4e"/>
       <use xlink:href="#DejaVuSans-65" x="74.804688"/>
       <use xlink:href="#DejaVuSans-63" x="136.328125"/>
       <use xlink:href="#DejaVuSans-6b" x="191.308594"/>
      </g>
     </g>
    </g>
   </g>
   <g id="matplotlib.axis_2">
    <g id="ytick_1">
     <g id="line2d_8">
      <path d="M 321.351868 310.361665 
C 321.351868 303.903349 320.079721 297.507832 317.60823 291.541126 
C 315.13674 285.574421 311.513971 280.152563 306.947252 275.585844 
C 302.380533 271.019126 296.958676 267.396356 290.99197 264.924866 
C 285.025264 262.453375 278.629747 261.181228 272.171431 261.181228 
C 265.713116 261.181228 259.317599 262.453375 253.350893 264.924866 
C 247.384187 267.396356 241.96233 271.019126 237.395611 275.585844 
C 232.828892 280.152563 229.206123 285.574421 226.734632 291.541126 
C 224.263142 297.507832 222.990995 303.903349 222.990995 310.361665 
C 222.990995 316.819981 224.263142 323.215497 226.734632 329.182203 
C 229.206123 335.148909 232.828892 340.570766 237.395611 345.137485 
C 241.96233 349.704204 247.384187 353.326973 253.350893 355.798464 
C 259.317599 358.269954 265.713116 359.542102 272.171431 359.542102 
C 278.629747 359.542102 285.025264 358.269954 290.99197 355.798464 
C 296.958676 353.326973 302.380533 349.704204 306.947252 345.137485 
C 311.513971 340.570766 315.13674 335.148909 317.60823 329.182203 
C 320.079721 323.215497 321.351868 316.819981 321.351868 310.361665 
" clip-path="url(#p0d4ce24bc6)" style="fill: none; stroke: #b0b0b0; stroke-width: 0.8; stroke-linecap: square"/>
     </g>
     <g id="text_8">
      <!-- 0.6 -->
      <g transform="translate(317.60823 289.461439) scale(0.1 -0.1)">
       <defs>
        <path id="DejaVuSans-30" d="M 2034 4250 
Q 1547 4250 1301 3770 
Q 1056 3291 1056 2328 
Q 1056 1369 1301 889 
Q 1547 409 2034 409 
Q 2525 409 2770 889 
Q 3016 1369 3016 2328 
Q 3016 3291 2770 3770 
Q 2525 4250 2034 4250 
z
M 2034 4750 
Q 2819 4750 3233 4129 
Q 3647 3509 3647 2328 
Q 3647 1150 3233 529 
Q 2819 -91 2034 -91 
Q 1250 -91 836 529 
Q 422 1150 422 2328 
Q 422 3509 836 4129 
Q 1250 4750 2034 4750 
z
" transform="scale(0.015625)"/>
        <path id="DejaVuSans-2e" d="M 684 794 
L 1344 794 
L 1344 0 
L 684 0 
L 684 794 
z
" transform="scale(0.015625)"/>
        <path id="DejaVuSans-36" d="M 2113 2584 
Q 1688 2584 1439 2293 
Q 1191 2003 1191 1497 
Q 1191 994 1439 701 
Q 1688 409 2113 409 
Q 2538 409 2786 701 
Q 3034 994 3034 1497 
Q 3034 2003 2786 2293 
Q 2538 2584 2113 2584 
z
M 3366 4563 
L 3366 3988 
Q 3128 4100 2886 4159 
Q 2644 4219 2406 4219 
Q 1781 4219 1451 3797 
Q 1122 3375 1075 2522 
Q 1259 2794 1537 2939 
Q 1816 3084 2150 3084 
Q 2853 3084 3261 2657 
Q 3669 2231 3669 1497 
Q 3669 778 3244 343 
Q 2819 -91 2113 -91 
Q 1303 -91 875 529 
Q 447 1150 447 2328 
Q 447 3434 972 4092 
Q 1497 4750 2381 4750 
Q 2619 4750 2861 4703 
Q 3103 4656 3366 4563 
z
" transform="scale(0.015625)"/>
       </defs>
       <use xlink:href="#DejaVuSans-30"/>
       <use xlink:href="#DejaVuSans-2e" x="63.623047"/>
       <use xlink:href="#DejaVuSans-36" x="95.410156"/>
      </g>
     </g>
    </g>
    <g id="ytick_2">
     <g id="line2d_9">
      <path d="M 370.532305 310.361665 
C 370.532305 297.445033 367.98801 284.654 363.045029 272.720588 
C 358.102048 260.787177 350.85651 249.943462 341.723072 240.810024 
C 332.589634 231.676586 321.74592 224.431048 309.812508 219.488067 
C 297.879097 214.545086 285.088063 212.000791 272.171431 212.000791 
C 259.2548 212.000791 246.463766 214.545086 234.530355 219.488067 
C 222.596943 224.431048 211.753228 231.676586 202.619791 240.810024 
C 193.486353 249.943462 186.240814 260.787177 181.297833 272.720588 
C 176.354852 284.654 173.810558 297.445033 173.810558 310.361665 
C 173.810558 323.278296 176.354852 336.06933 181.297833 348.002742 
C 186.240814 359.936153 193.486353 370.779868 202.619791 379.913306 
C 211.753228 389.046743 222.596943 396.292282 234.530355 401.235263 
C 246.463766 406.178244 259.2548 408.722539 272.171431 408.722539 
C 285.088063 408.722539 297.879097 406.178244 309.812508 401.235263 
C 321.74592 396.292282 332.589634 389.046743 341.723072 379.913306 
C 350.85651 370.779868 358.102048 359.936153 363.045029 348.002742 
C 367.98801 336.06933 370.532305 323.278296 370.532305 310.361665 
" clip-path="url(#p0d4ce24bc6)" style="fill: none; stroke: #b0b0b0; stroke-width: 0.8; stroke-linecap: square"/>
     </g>
     <g id="text_9">
      <!-- 0.7 -->
      <g transform="translate(363.045029 270.640901) scale(0.1 -0.1)">
       <defs>
        <path id="DejaVuSans-37" d="M 525 4666 
L 3525 4666 
L 3525 4397 
L 1831 0 
L 1172 0 
L 2766 4134 
L 525 4134 
L 525 4666 
z
" transform="scale(0.015625)"/>
       </defs>
       <use xlink:href="#DejaVuSans-30"/>
       <use xlink:href="#DejaVuSans-2e" x="63.623047"/>
       <use xlink:href="#DejaVuSans-37" x="95.410156"/>
      </g>
     </g>
    </g>
    <g id="ytick_3">
     <g id="line2d_10">
      <path d="M 419.712742 310.361665 
C 419.712742 290.986717 415.8963 271.800167 408.481828 253.90005 
C 401.067357 235.999932 390.199049 219.73436 376.498893 206.034204 
C 362.798736 192.334047 346.533164 181.465739 328.633046 174.051268 
C 310.732929 166.636796 291.546379 162.820354 272.171431 162.820354 
C 252.796484 162.820354 233.609934 166.636796 215.709816 174.051268 
C 197.809699 181.465739 181.544127 192.334047 167.84397 206.034204 
C 154.143814 219.73436 143.275506 235.999932 135.861034 253.90005 
C 128.446563 271.800167 124.630121 290.986717 124.630121 310.361665 
C 124.630121 329.736612 128.446563 348.923163 135.861034 366.82328 
C 143.275506 384.723397 154.143814 400.988969 167.84397 414.689126 
C 181.544127 428.389283 197.809699 439.25759 215.709816 446.672062 
C 233.609934 454.086533 252.796484 457.902975 272.171431 457.902975 
C 291.546379 457.902975 310.732929 454.086533 328.633046 446.672062 
C 346.533164 439.25759 362.798736 428.389283 376.498893 414.689126 
C 390.199049 400.988969 401.067357 384.723397 408.481828 366.82328 
C 415.8963 348.923163 419.712742 329.736612 419.712742 310.361665 
" clip-path="url(#p0d4ce24bc6)" style="fill: none; stroke: #b0b0b0; stroke-width: 0.8; stroke-linecap: square"/>
     </g>
     <g id="text_10">
      <!-- 0.8 -->
      <g transform="translate(408.481828 251.820362) scale(0.1 -0.1)">
       <defs>
        <path id="DejaVuSans-38" d="M 2034 2216 
Q 1584 2216 1326 1975 
Q 1069 1734 1069 1313 
Q 1069 891 1326 650 
Q 1584 409 2034 409 
Q 2484 409 2743 651 
Q 3003 894 3003 1313 
Q 3003 1734 2745 1975 
Q 2488 2216 2034 2216 
z
M 1403 2484 
Q 997 2584 770 2862 
Q 544 3141 544 3541 
Q 544 4100 942 4425 
Q 1341 4750 2034 4750 
Q 2731 4750 3128 4425 
Q 3525 4100 3525 3541 
Q 3525 3141 3298 2862 
Q 3072 2584 2669 2484 
Q 3125 2378 3379 2068 
Q 3634 1759 3634 1313 
Q 3634 634 3220 271 
Q 2806 -91 2034 -91 
Q 1263 -91 848 271 
Q 434 634 434 1313 
Q 434 1759 690 2068 
Q 947 2378 1403 2484 
z
M 1172 3481 
Q 1172 3119 1398 2916 
Q 1625 2713 2034 2713 
Q 2441 2713 2670 2916 
Q 2900 3119 2900 3481 
Q 2900 3844 2670 4047 
Q 2441 4250 2034 4250 
Q 1625 4250 1398 4047 
Q 1172 3844 1172 3481 
z
" transform="scale(0.015625)"/>
       </defs>
       <use xlink:href="#DejaVuSans-30"/>
       <use xlink:href="#DejaVuSans-2e" x="63.623047"/>
       <use xlink:href="#DejaVuSans-38" x="95.410156"/>
      </g>
     </g>
    </g>
    <g id="ytick_4">
     <g id="line2d_11">
      <path d="M 468.893179 310.361665 
C 468.893179 284.528402 463.804589 258.946334 453.918627 235.079511 
C 444.032666 211.212688 429.541588 189.525259 411.274713 171.258383 
C 393.007837 152.991508 371.320408 138.500431 347.453585 128.614469 
C 323.586762 118.728507 298.004695 113.639917 272.171431 113.639917 
C 246.338168 113.639917 220.756101 118.728507 196.889278 128.614469 
C 173.022455 138.500431 151.335025 152.991508 133.06815 171.258383 
C 114.801274 189.525259 100.310197 211.212688 90.424235 235.079511 
C 80.538274 258.946334 75.449684 284.528402 75.449684 310.361665 
C 75.449684 336.194928 80.538274 361.776995 90.424235 385.643818 
C 100.310197 409.510641 114.801274 431.198071 133.06815 449.464946 
C 151.335025 467.731822 173.022455 482.222899 196.889278 492.108861 
C 220.756101 501.994823 246.338168 507.083412 272.171431 507.083412 
C 298.004695 507.083412 323.586762 501.994823 347.453585 492.108861 
C 371.320408 482.222899 393.007837 467.731822 411.274713 449.464946 
C 429.541588 431.198071 444.032666 409.510641 453.918627 385.643818 
C 463.804589 361.776995 468.893179 336.194928 468.893179 310.361665 
" clip-path="url(#p0d4ce24bc6)" style="fill: none; stroke: #b0b0b0; stroke-width: 0.8; stroke-linecap: square"/>
     </g>
     <g id="text_11">
      <!-- 0.9 -->
      <g transform="translate(453.918627 232.999824) scale(0.1 -0.1)">
       <defs>
        <path id="DejaVuSans-39" d="M 703 97 
L 703 672 
Q 941 559 1184 500 
Q 1428 441 1663 441 
Q 2288 441 2617 861 
Q 2947 1281 2994 2138 
Q 2813 1869 2534 1725 
Q 2256 1581 1919 1581 
Q 1219 1581 811 2004 
Q 403 2428 403 3163 
Q 403 3881 828 4315 
Q 1253 4750 1959 4750 
Q 2769 4750 3195 4129 
Q 3622 3509 3622 2328 
Q 3622 1225 3098 567 
Q 2575 -91 1691 -91 
Q 1453 -91 1209 -44 
Q 966 3 703 97 
z
M 1959 2075 
Q 2384 2075 2632 2365 
Q 2881 2656 2881 3163 
Q 2881 3666 2632 3958 
Q 2384 4250 1959 4250 
Q 1534 4250 1286 3958 
Q 1038 3666 1038 3163 
Q 1038 2656 1286 2365 
Q 1534 2075 1959 2075 
z
" transform="scale(0.015625)"/>
       </defs>
       <use xlink:href="#DejaVuSans-30"/>
       <use xlink:href="#DejaVuSans-2e" x="63.623047"/>
       <use xlink:href="#DejaVuSans-39" x="95.410156"/>
      </g>
     </g>
    </g>
    <g id="ytick_5">
     <g id="line2d_12">
      <path d="M 518.073616 310.361665 
C 518.073616 278.070086 511.712879 246.092502 499.355426 216.258973 
C 486.997974 186.425444 468.884128 159.316157 446.050533 136.482563 
C 423.216939 113.648968 396.107652 95.535122 366.274123 83.17767 
C 336.440594 70.820218 304.46301 64.459481 272.171431 64.459481 
C 239.879852 64.459481 207.902268 70.820218 178.068739 83.17767 
C 148.235211 95.535122 121.125924 113.648968 98.292329 136.482563 
C 75.458735 159.316157 57.344889 186.425444 44.987436 216.258973 
C 32.629984 246.092502 26.269247 278.070086 26.269247 310.361665 
C 26.269247 342.653244 32.629984 374.630828 44.987436 404.464357 
C 57.344889 434.297886 75.458735 461.407172 98.292329 484.240767 
C 121.125924 507.074361 148.235211 525.188208 178.068739 537.54566 
C 207.902268 549.903112 239.879852 556.263849 272.171431 556.263849 
C 304.46301 556.263849 336.440594 549.903112 366.274123 537.54566 
C 396.107652 525.188208 423.216939 507.074361 446.050533 484.240767 
C 468.884128 461.407172 486.997974 434.297886 499.355426 404.464357 
C 511.712879 374.630828 518.073616 342.653244 518.073616 310.361665 
" clip-path="url(#p0d4ce24bc6)" style="fill: none; stroke: #b0b0b0; stroke-width: 0.8; stroke-linecap: square"/>
     </g>
     <g id="text_12">
      <!-- 1.0 -->
      <g transform="translate(499.355426 214.179285) scale(0.1 -0.1)">
       <use xlink:href="#DejaVuSans-31"/>
       <use xlink:href="#DejaVuSans-2e" x="63.623047"/>
       <use xlink:href="#DejaVuSans-30" x="95.410156"/>
      </g>
     </g>
    </g>
   </g>
   <g id="line2d_13">
    <path d="M 502.651262 310.361665 
L 413.752835 132.8242 
L 222.945835 94.690237 
L 77.8358 216.774557 
L 54.068636 415.394435 
L 220.995479 534.578162 
L 419.329733 494.892339 
L 502.651262 310.361665 
" clip-path="url(#p0d4ce24bc6)" style="fill: none; stroke: #0000ff; stroke-width: 2; stroke-linecap: square"/>
   </g>
   <g id="line2d_14">
    <path d="M 511.039038 310.361665 
L 402.280481 147.210077 
L 228.490327 118.982242 
L 76.690853 216.22318 
L 57.64155 413.673811 
L 221.564124 532.086768 
L 407.422824 479.961546 
L 511.039038 310.361665 
" clip-path="url(#p0d4ce24bc6)" style="fill: none; stroke: #ff0000; stroke-width: 2; stroke-linecap: square"/>
   </g>
   <g id="line2d_15">
    <path d="M 509.221061 310.361665 
L 416.625205 129.222362 
L 221.735139 89.385829 
L 77.486822 216.606498 
L 54.371494 415.248587 
L 221.077152 534.220331 
L 411.756501 485.395806 
L 509.221061 310.361665 
" clip-path="url(#p0d4ce24bc6)" style="fill: none; stroke: #008000; stroke-width: 2; stroke-linecap: square"/>
   </g>
   <g id="patch_6">
    <path d="M 518.073616 310.361665 
C 518.073616 278.070086 511.712879 246.092502 499.355426 216.258973 
C 486.997974 186.425444 468.884128 159.316157 446.050533 136.482563 
C 423.216939 113.648968 396.107652 95.535122 366.274123 83.17767 
C 336.440594 70.820218 304.46301 64.459481 272.171431 64.459481 
C 239.879852 64.459481 207.902268 70.820218 178.068739 83.17767 
C 148.235211 95.535122 121.125924 113.648968 98.292329 136.482563 
C 75.458735 159.316157 57.344889 186.425444 44.987436 216.258973 
C 32.629984 246.092502 26.269247 278.070086 26.269247 310.361665 
C 26.269247 342.653244 32.629984 374.630828 44.987436 404.464357 
C 57.344889 434.297886 75.458735 461.407172 98.292329 484.240767 
C 121.125924 507.074361 148.235211 525.188208 178.068739 537.54566 
C 207.902268 549.903112 239.879852 556.263849 272.171431 556.263849 
C 304.46301 556.263849 336.440594 549.903112 366.274123 537.54566 
C 396.107652 525.188208 423.216939 507.074361 446.050533 484.240767 
C 468.884128 461.407172 486.997974 434.297886 499.355426 404.464357 
C 511.712879 374.630828 518.073616 342.653244 518.073616 310.361665 
" style="fill: none; stroke: #000000; stroke-width: 0.8; stroke-linejoin: miter; stroke-linecap: square"/>
   </g>
   <g id="text_13">
    <!-- Upper KPs -->
    <g style="fill: #00008b" transform="translate(231.307681 44.459481) scale(0.16 -0.16)">
     <defs>
      <path id="DejaVuSans-55" d="M 556 4666 
L 1191 4666 
L 1191 1831 
Q 1191 1081 1462 751 
Q 1734 422 2344 422 
Q 2950 422 3222 751 
Q 3494 1081 3494 1831 
L 3494 4666 
L 4128 4666 
L 4128 1753 
Q 4128 841 3676 375 
Q 3225 -91 2344 -91 
Q 1459 -91 1007 375 
Q 556 841 556 1753 
L 556 4666 
z
" transform="scale(0.015625)"/>
      <path id="DejaVuSans-70" d="M 1159 525 
L 1159 -1331 
L 581 -1331 
L 581 3500 
L 1159 3500 
L 1159 2969 
Q 1341 3281 1617 3432 
Q 1894 3584 2278 3584 
Q 2916 3584 3314 3078 
Q 3713 2572 3713 1747 
Q 3713 922 3314 415 
Q 2916 -91 2278 -91 
Q 1894 -91 1617 61 
Q 1341 213 1159 525 
z
M 3116 1747 
Q 3116 2381 2855 2742 
Q 2594 3103 2138 3103 
Q 1681 3103 1420 2742 
Q 1159 2381 1159 1747 
Q 1159 1113 1420 752 
Q 1681 391 2138 391 
Q 2594 391 2855 752 
Q 3116 1113 3116 1747 
z
" transform="scale(0.015625)"/>
      <path id="DejaVuSans-72" d="M 2631 2963 
Q 2534 3019 2420 3045 
Q 2306 3072 2169 3072 
Q 1681 3072 1420 2755 
Q 1159 2438 1159 1844 
L 1159 0 
L 581 0 
L 581 3500 
L 1159 3500 
L 1159 2956 
Q 1341 3275 1631 3429 
Q 1922 3584 2338 3584 
Q 2397 3584 2469 3576 
Q 2541 3569 2628 3553 
L 2631 2963 
z
" transform="scale(0.015625)"/>
      <path id="DejaVuSans-20" transform="scale(0.015625)"/>
      <path id="DejaVuSans-4b" d="M 628 4666 
L 1259 4666 
L 1259 2694 
L 3353 4666 
L 4166 4666 
L 1850 2491 
L 4331 0 
L 3500 0 
L 1259 2247 
L 1259 0 
L 628 0 
L 628 4666 
z
" transform="scale(0.015625)"/>
      <path id="DejaVuSans-50" d="M 1259 4147 
L 1259 2394 
L 2053 2394 
Q 2494 2394 2734 2622 
Q 2975 2850 2975 3272 
Q 2975 3691 2734 3919 
Q 2494 4147 2053 4147 
L 1259 4147 
z
M 628 4666 
L 2053 4666 
Q 2838 4666 3239 4311 
Q 3641 3956 3641 3272 
Q 3641 2581 3239 2228 
Q 2838 1875 2053 1875 
L 1259 1875 
L 1259 0 
L 628 0 
L 628 4666 
z
" transform="scale(0.015625)"/>
     </defs>
     <use xlink:href="#DejaVuSans-55"/>
     <use xlink:href="#DejaVuSans-70" x="73.193359"/>
     <use xlink:href="#DejaVuSans-70" x="136.669922"/>
     <use xlink:href="#DejaVuSans-65" x="200.146484"/>
     <use xlink:href="#DejaVuSans-72" x="261.669922"/>
     <use xlink:href="#DejaVuSans-20" x="302.783203"/>
     <use xlink:href="#DejaVuSans-4b" x="334.570312"/>
     <use xlink:href="#DejaVuSans-50" x="400.146484"/>
     <use xlink:href="#DejaVuSans-73" x="458.699219"/>
    </g>
   </g>
  </g>
  <g id="axes_2">
   <g id="patch_7">
    <path d="M 1085.8 310.361665 
C 1085.8 278.070086 1079.439263 246.092502 1067.081811 216.258973 
C 1054.724359 186.425444 1036.610512 159.316157 1013.776918 136.482563 
C 990.943323 113.648968 963.834037 95.535122 934.000508 83.17767 
C 904.166979 70.820218 872.189395 64.459481 839.897816 64.459481 
C 807.606237 64.459481 775.628653 70.820218 745.795124 83.17767 
C 715.961595 95.535122 688.852308 113.648968 666.018714 136.482563 
C 643.185119 159.316157 625.071273 186.425444 612.713821 216.258973 
C 600.356369 246.092502 593.995632 278.070086 593.995632 310.361665 
C 593.995632 342.653244 600.356369 374.630828 612.713821 404.464357 
C 625.071273 434.297886 643.185119 461.407172 666.018714 484.240767 
C 688.852308 507.074361 715.961595 525.188208 745.795124 537.54566 
C 775.628653 549.903112 807.606237 556.263849 839.897816 556.263849 
C 872.189395 556.263849 904.166979 549.903112 934.000508 537.54566 
C 963.834037 525.188208 990.943323 507.074361 1013.776918 484.240767 
C 1036.610512 461.407172 1054.724359 434.297886 1067.081811 404.464357 
C 1079.439263 374.630828 1085.8 342.653244 1085.8 310.361665 
M 839.897816 310.361665 
C 839.897816 310.361665 839.897816 310.361665 839.897816 310.361665 
C 839.897816 310.361665 839.897816 310.361665 839.897816 310.361665 
C 839.897816 310.361665 839.897816 310.361665 839.897816 310.361665 
C 839.897816 310.361665 839.897816 310.361665 839.897816 310.361665 
C 839.897816 310.361665 839.897816 310.361665 839.897816 310.361665 
C 839.897816 310.361665 839.897816 310.361665 839.897816 310.361665 
C 839.897816 310.361665 839.897816 310.361665 839.897816 310.361665 
C 839.897816 310.361665 839.897816 310.361665 839.897816 310.361665 
C 839.897816 310.361665 839.897816 310.361665 839.897816 310.361665 
C 839.897816 310.361665 839.897816 310.361665 839.897816 310.361665 
C 839.897816 310.361665 839.897816 310.361665 839.897816 310.361665 
C 839.897816 310.361665 839.897816 310.361665 839.897816 310.361665 
C 839.897816 310.361665 839.897816 310.361665 839.897816 310.361665 
C 839.897816 310.361665 839.897816 310.361665 839.897816 310.361665 
C 839.897816 310.361665 839.897816 310.361665 839.897816 310.361665 
C 839.897816 310.361665 839.897816 310.361665 839.897816 310.361665 
z
" style="fill: #ffffff"/>
   </g>
   <g id="patch_8">
    <path d="M 1073.329162 310.361665 
L 1047.759098 201.267648 
L 926.833209 184.414004 
L 867.428287 83.627838 
L 759.530959 98.451679 
L 830.679275 302.19475 
L 612.010549 254.192498 
L 618.17182 365.012214 
L 672.397913 458.75363 
L 765.057259 507.699994 
L 866.308334 527.871848 
L 956.667607 479.531913 
L 989.962858 389.121875 
z
" clip-path="url(#paaf890a5c0)" style="fill: #0000ff; opacity: 0.25; stroke: #0000ff; stroke-linejoin: miter"/>
   </g>
   <g id="patch_9">
    <path d="M 1065.52262 310.361665 
L 1044.061814 203.208132 
L 941.803425 162.725902 
L 866.732905 89.354821 
L 758.475949 95.669847 
L 760.843702 240.325832 
L 638.599715 260.746139 
L 630.901209 361.874702 
L 677.06007 454.623319 
L 773.014815 486.717645 
L 865.54708 521.602363 
L 960.994049 485.799847 
L 993.349876 390.899519 
z
" clip-path="url(#paaf890a5c0)" style="fill: #ff0000; opacity: 0.3; stroke: #ff0000; stroke-linejoin: miter"/>
   </g>
   <g id="patch_10">
    <path d="M 1074.180129 310.361665 
L 1047.462417 201.423358 
L 947.665512 154.233203 
L 867.786806 80.675165 
L 759.138331 97.416405 
L 833.062767 304.30634 
L 610.92763 253.925583 
L 618.261667 364.990069 
L 673.815121 457.498093 
L 766.012321 505.181703 
L 866.678507 530.920498 
L 962.855547 488.496691 
L 996.73758 392.677523 
z
" clip-path="url(#paaf890a5c0)" style="fill: #008000; opacity: 0.35; stroke: #008000; stroke-linejoin: miter"/>
   </g>
   <g id="matplotlib.axis_3">
    <g id="xtick_8">
     <g id="line2d_16">
      <path d="M 839.897816 310.361665 
L 1085.8 310.361665 
" clip-path="url(#paaf890a5c0)" style="fill: none; stroke: #b0b0b0; stroke-width: 0.8; stroke-linecap: square"/>
     </g>
     <g id="text_14">
      <!-- L_Shoulder -->
      <g transform="translate(1058.471484 314.292134) scale(0.15 -0.15)">
       <defs>
        <path id="DejaVuSans-4c" d="M 628 4666 
L 1259 4666 
L 1259 531 
L 3531 531 
L 3531 0 
L 628 0 
L 628 4666 
z
" transform="scale(0.015625)"/>
        <path id="DejaVuSans-5f" d="M 3263 -1063 
L 3263 -1509 
L -63 -1509 
L -63 -1063 
L 3263 -1063 
z
" transform="scale(0.015625)"/>
        <path id="DejaVuSans-53" d="M 3425 4513 
L 3425 3897 
Q 3066 4069 2747 4153 
Q 2428 4238 2131 4238 
Q 1616 4238 1336 4038 
Q 1056 3838 1056 3469 
Q 1056 3159 1242 3001 
Q 1428 2844 1947 2747 
L 2328 2669 
Q 3034 2534 3370 2195 
Q 3706 1856 3706 1288 
Q 3706 609 3251 259 
Q 2797 -91 1919 -91 
Q 1588 -91 1214 -16 
Q 841 59 441 206 
L 441 856 
Q 825 641 1194 531 
Q 1563 422 1919 422 
Q 2459 422 2753 634 
Q 3047 847 3047 1241 
Q 3047 1584 2836 1778 
Q 2625 1972 2144 2069 
L 1759 2144 
Q 1053 2284 737 2584 
Q 422 2884 422 3419 
Q 422 4038 858 4394 
Q 1294 4750 2059 4750 
Q 2388 4750 2728 4690 
Q 3069 4631 3425 4513 
z
" transform="scale(0.015625)"/>
        <path id="DejaVuSans-68" d="M 3513 2113 
L 3513 0 
L 2938 0 
L 2938 2094 
Q 2938 2591 2744 2837 
Q 2550 3084 2163 3084 
Q 1697 3084 1428 2787 
Q 1159 2491 1159 1978 
L 1159 0 
L 581 0 
L 581 4863 
L 1159 4863 
L 1159 2956 
Q 1366 3272 1645 3428 
Q 1925 3584 2291 3584 
Q 2894 3584 3203 3211 
Q 3513 2838 3513 2113 
z
" transform="scale(0.015625)"/>
        <path id="DejaVuSans-75" d="M 544 1381 
L 544 3500 
L 1119 3500 
L 1119 1403 
Q 1119 906 1312 657 
Q 1506 409 1894 409 
Q 2359 409 2629 706 
Q 2900 1003 2900 1516 
L 2900 3500 
L 3475 3500 
L 3475 0 
L 2900 0 
L 2900 538 
Q 2691 219 2414 64 
Q 2138 -91 1772 -91 
Q 1169 -91 856 284 
Q 544 659 544 1381 
z
M 1991 3584 
L 1991 3584 
z
" transform="scale(0.015625)"/>
        <path id="DejaVuSans-6c" d="M 603 4863 
L 1178 4863 
L 1178 0 
L 603 0 
L 603 4863 
z
" transform="scale(0.015625)"/>
       </defs>
       <use xlink:href="#DejaVuSans-4c"/>
       <use xlink:href="#DejaVuSans-5f" x="55.712891"/>
       <use xlink:href="#DejaVuSans-53" x="105.712891"/>
       <use xlink:href="#DejaVuSans-68" x="169.189453"/>
       <use xlink:href="#DejaVuSans-6f" x="232.568359"/>
       <use xlink:href="#DejaVuSans-75" x="293.75"/>
       <use xlink:href="#DejaVuSans-6c" x="357.128906"/>
       <use xlink:href="#DejaVuSans-64" x="384.912109"/>
       <use xlink:href="#DejaVuSans-65" x="448.388672"/>
       <use xlink:href="#DejaVuSans-72" x="509.912109"/>
      </g>
     </g>
    </g>
    <g id="xtick_9">
     <g id="line2d_17">
      <path d="M 839.897816 310.361665 
L 1057.633387 196.085222 
" clip-path="url(#paaf890a5c0)" style="fill: none; stroke: #b0b0b0; stroke-width: 0.8; stroke-linecap: square"/>
     </g>
     <g id="text_15">
      <!-- L_Elbow -->
      <g transform="translate(1039.794224 193.509566) scale(0.15 -0.15)">
       <defs>
        <path id="DejaVuSans-45" d="M 628 4666 
L 3578 4666 
L 3578 4134 
L 1259 4134 
L 1259 2753 
L 3481 2753 
L 3481 2222 
L 1259 2222 
L 1259 531 
L 3634 531 
L 3634 0 
L 628 0 
L 628 4666 
z
" transform="scale(0.015625)"/>
        <path id="DejaVuSans-62" d="M 3116 1747 
Q 3116 2381 2855 2742 
Q 2594 3103 2138 3103 
Q 1681 3103 1420 2742 
Q 1159 2381 1159 1747 
Q 1159 1113 1420 752 
Q 1681 391 2138 391 
Q 2594 391 2855 752 
Q 3116 1113 3116 1747 
z
M 1159 2969 
Q 1341 3281 1617 3432 
Q 1894 3584 2278 3584 
Q 2916 3584 3314 3078 
Q 3713 2572 3713 1747 
Q 3713 922 3314 415 
Q 2916 -91 2278 -91 
Q 1894 -91 1617 61 
Q 1341 213 1159 525 
L 1159 0 
L 581 0 
L 581 4863 
L 1159 4863 
L 1159 2969 
z
" transform="scale(0.015625)"/>
        <path id="DejaVuSans-77" d="M 269 3500 
L 844 3500 
L 1563 769 
L 2278 3500 
L 2956 3500 
L 3675 769 
L 4391 3500 
L 4966 3500 
L 4050 0 
L 3372 0 
L 2619 2869 
L 1863 0 
L 1184 0 
L 269 3500 
z
" transform="scale(0.015625)"/>
       </defs>
       <use xlink:href="#DejaVuSans-4c"/>
       <use xlink:href="#DejaVuSans-5f" x="55.712891"/>
       <use xlink:href="#DejaVuSans-45" x="105.712891"/>
       <use xlink:href="#DejaVuSans-6c" x="168.896484"/>
       <use xlink:href="#DejaVuSans-62" x="196.679688"/>
       <use xlink:href="#DejaVuSans-6f" x="260.15625"/>
       <use xlink:href="#DejaVuSans-77" x="321.337891"/>
      </g>
     </g>
    </g>
    <g id="xtick_10">
     <g id="line2d_18">
      <path d="M 839.897816 310.361665 
L 979.586178 107.988135 
" clip-path="url(#paaf890a5c0)" style="fill: none; stroke: #b0b0b0; stroke-width: 0.8; stroke-linecap: square"/>
     </g>
     <g id="text_16">
      <!-- L_F_Paw -->
      <g transform="translate(956.632053 100.188236) scale(0.15 -0.15)">
       <defs>
        <path id="DejaVuSans-46" d="M 628 4666 
L 3309 4666 
L 3309 4134 
L 1259 4134 
L 1259 2759 
L 3109 2759 
L 3109 2228 
L 1259 2228 
L 1259 0 
L 628 0 
L 628 4666 
z
" transform="scale(0.015625)"/>
       </defs>
       <use xlink:href="#DejaVuSans-4c"/>
       <use xlink:href="#DejaVuSans-5f" x="55.712891"/>
       <use xlink:href="#DejaVuSans-46" x="105.712891"/>
       <use xlink:href="#DejaVuSans-5f" x="163.232422"/>
       <use xlink:href="#DejaVuSans-50" x="213.232422"/>
       <use xlink:href="#DejaVuSans-61" x="269.035156"/>
       <use xlink:href="#DejaVuSans-77" x="330.314453"/>
      </g>
     </g>
    </g>
    <g id="xtick_11">
     <g id="line2d_19">
      <path d="M 839.897816 310.361665 
L 869.538049 66.252384 
" clip-path="url(#paaf890a5c0)" style="fill: none; stroke: #b0b0b0; stroke-width: 0.8; stroke-linecap: square"/>
     </g>
     <g id="text_17">
      <!-- R_Shoulder -->
      <g transform="translate(828.864625 56.284929) scale(0.15 -0.15)">
       <defs>
        <path id="DejaVuSans-52" d="M 2841 2188 
Q 3044 2119 3236 1894 
Q 3428 1669 3622 1275 
L 4263 0 
L 3584 0 
L 2988 1197 
Q 2756 1666 2539 1819 
Q 2322 1972 1947 1972 
L 1259 1972 
L 1259 0 
L 628 0 
L 628 4666 
L 2053 4666 
Q 2853 4666 3247 4331 
Q 3641 3997 3641 3322 
Q 3641 2881 3436 2590 
Q 3231 2300 2841 2188 
z
M 1259 4147 
L 1259 2491 
L 2053 2491 
Q 2509 2491 2742 2702 
Q 2975 2913 2975 3322 
Q 2975 3731 2742 3939 
Q 2509 4147 2053 4147 
L 1259 4147 
z
" transform="scale(0.015625)"/>
       </defs>
       <use xlink:href="#DejaVuSans-52"/>
       <use xlink:href="#DejaVuSans-5f" x="69.482422"/>
       <use xlink:href="#DejaVuSans-53" x="119.482422"/>
       <use xlink:href="#DejaVuSans-68" x="182.958984"/>
       <use xlink:href="#DejaVuSans-6f" x="246.337891"/>
       <use xlink:href="#DejaVuSans-75" x="307.519531"/>
       <use xlink:href="#DejaVuSans-6c" x="370.898438"/>
       <use xlink:href="#DejaVuSans-64" x="398.681641"/>
       <use xlink:href="#DejaVuSans-65" x="462.158203"/>
       <use xlink:href="#DejaVuSans-72" x="523.681641"/>
      </g>
     </g>
    </g>
    <g id="xtick_12">
     <g id="line2d_20">
      <path d="M 839.897816 310.361665 
L 752.6997 80.439128 
" clip-path="url(#paaf890a5c0)" style="fill: none; stroke: #b0b0b0; stroke-width: 0.8; stroke-linecap: square"/>
     </g>
     <g id="text_18">
      <!-- R_Elbow -->
      <g transform="translate(716.467262 71.27937) scale(0.15 -0.15)">
       <use xlink:href="#DejaVuSans-52"/>
       <use xlink:href="#DejaVuSans-5f" x="69.482422"/>
       <use xlink:href="#DejaVuSans-45" x="119.482422"/>
       <use xlink:href="#DejaVuSans-6c" x="182.666016"/>
       <use xlink:href="#DejaVuSans-62" x="210.449219"/>
       <use xlink:href="#DejaVuSans-6f" x="273.925781"/>
       <use xlink:href="#DejaVuSans-77" x="335.107422"/>
      </g>
     </g>
    </g>
    <g id="xtick_13">
     <g id="line2d_21">
      <path d="M 839.897816 310.361665 
L 655.837388 147.298355 
" clip-path="url(#paaf890a5c0)" style="fill: none; stroke: #b0b0b0; stroke-width: 0.8; stroke-linecap: square"/>
     </g>
     <g id="text_19">
      <!-- R_F_Paw -->
      <g transform="translate(613.418784 141.736513) scale(0.15 -0.15)">
       <use xlink:href="#DejaVuSans-52"/>
       <use xlink:href="#DejaVuSans-5f" x="69.482422"/>
       <use xlink:href="#DejaVuSans-46" x="119.482422"/>
       <use xlink:href="#DejaVuSans-5f" x="177.001953"/>
       <use xlink:href="#DejaVuSans-50" x="227.001953"/>
       <use xlink:href="#DejaVuSans-61" x="282.804688"/>
       <use xlink:href="#DejaVuSans-77" x="344.083984"/>
      </g>
     </g>
    </g>
    <g id="xtick_14">
     <g id="line2d_22">
      <path d="M 839.897816 310.361665 
L 601.141102 251.51342 
" clip-path="url(#paaf890a5c0)" style="fill: none; stroke: #b0b0b0; stroke-width: 0.8; stroke-linecap: square"/>
     </g>
     <g id="text_20">
      <!-- Belly -->
      <g transform="translate(569.18112 252.302063) scale(0.15 -0.15)">
       <defs>
        <path id="DejaVuSans-79" d="M 2059 -325 
Q 1816 -950 1584 -1140 
Q 1353 -1331 966 -1331 
L 506 -1331 
L 506 -850 
L 844 -850 
Q 1081 -850 1212 -737 
Q 1344 -625 1503 -206 
L 1606 56 
L 191 3500 
L 800 3500 
L 1894 763 
L 2988 3500 
L 3597 3500 
L 2059 -325 
z
" transform="scale(0.015625)"/>
       </defs>
       <use xlink:href="#DejaVuSans-42"/>
       <use xlink:href="#DejaVuSans-65" x="68.603516"/>
       <use xlink:href="#DejaVuSans-6c" x="130.126953"/>
       <use xlink:href="#DejaVuSans-6c" x="157.910156"/>
       <use xlink:href="#DejaVuSans-79" x="185.693359"/>
      </g>
     </g>
    </g>
    <g id="xtick_15">
     <g id="line2d_23">
      <path d="M 839.897816 310.361665 
L 601.141102 369.209909 
" clip-path="url(#paaf890a5c0)" style="fill: none; stroke: #b0b0b0; stroke-width: 0.8; stroke-linecap: square"/>
     </g>
     <g id="text_21">
      <!-- L_Hip -->
      <g transform="translate(567.133854 376.490797) scale(0.15 -0.15)">
       <defs>
        <path id="DejaVuSans-69" d="M 603 3500 
L 1178 3500 
L 1178 0 
L 603 0 
L 603 3500 
z
M 603 4863 
L 1178 4863 
L 1178 4134 
L 603 4134 
L 603 4863 
z
" transform="scale(0.015625)"/>
       </defs>
       <use xlink:href="#DejaVuSans-4c"/>
       <use xlink:href="#DejaVuSans-5f" x="55.712891"/>
       <use xlink:href="#DejaVuSans-48" x="105.712891"/>
       <use xlink:href="#DejaVuSans-69" x="180.908203"/>
       <use xlink:href="#DejaVuSans-70" x="208.691406"/>
      </g>
     </g>
    </g>
    <g id="xtick_16">
     <g id="line2d_24">
      <path d="M 839.897816 310.361665 
L 655.837388 473.424975 
" clip-path="url(#paaf890a5c0)" style="fill: none; stroke: #b0b0b0; stroke-width: 0.8; stroke-linecap: square"/>
     </g>
     <g id="text_22">
      <!-- L_Knee -->
      <g transform="translate(618.528159 486.430567) scale(0.15 -0.15)">
       <defs>
        <path id="DejaVuSans-6e" d="M 3513 2113 
L 3513 0 
L 2938 0 
L 2938 2094 
Q 2938 2591 2744 2837 
Q 2550 3084 2163 3084 
Q 1697 3084 1428 2787 
Q 1159 2491 1159 1978 
L 1159 0 
L 581 0 
L 581 3500 
L 1159 3500 
L 1159 2956 
Q 1366 3272 1645 3428 
Q 1925 3584 2291 3584 
Q 2894 3584 3203 3211 
Q 3513 2838 3513 2113 
z
" transform="scale(0.015625)"/>
       </defs>
       <use xlink:href="#DejaVuSans-4c"/>
       <use xlink:href="#DejaVuSans-5f" x="55.712891"/>
       <use xlink:href="#DejaVuSans-4b" x="105.712891"/>
       <use xlink:href="#DejaVuSans-6e" x="171.289062"/>
       <use xlink:href="#DejaVuSans-65" x="234.667969"/>
       <use xlink:href="#DejaVuSans-65" x="296.191406"/>
      </g>
     </g>
    </g>
    <g id="xtick_17">
     <g id="line2d_25">
      <path d="M 839.897816 310.361665 
L 752.6997 540.284201 
" clip-path="url(#paaf890a5c0)" style="fill: none; stroke: #b0b0b0; stroke-width: 0.8; stroke-linecap: square"/>
     </g>
     <g id="text_23">
      <!-- L_H_Paw -->
      <g transform="translate(715.501637 557.096304) scale(0.15 -0.15)">
       <use xlink:href="#DejaVuSans-4c"/>
       <use xlink:href="#DejaVuSans-5f" x="55.712891"/>
       <use xlink:href="#DejaVuSans-48" x="105.712891"/>
       <use xlink:href="#DejaVuSans-5f" x="180.908203"/>
       <use xlink:href="#DejaVuSans-50" x="230.908203"/>
       <use xlink:href="#DejaVuSans-61" x="286.710938"/>
       <use xlink:href="#DejaVuSans-77" x="347.990234"/>
      </g>
     </g>
    </g>
    <g id="xtick_18">
     <g id="line2d_26">
      <path d="M 839.897816 310.361665 
L 869.538049 554.470945 
" clip-path="url(#paaf890a5c0)" style="fill: none; stroke: #b0b0b0; stroke-width: 0.8; stroke-linecap: square"/>
     </g>
     <g id="text_24">
      <!-- R_Hip -->
      <g transform="translate(849.779078 572.299338) scale(0.15 -0.15)">
       <use xlink:href="#DejaVuSans-52"/>
       <use xlink:href="#DejaVuSans-5f" x="69.482422"/>
       <use xlink:href="#DejaVuSans-48" x="119.482422"/>
       <use xlink:href="#DejaVuSans-69" x="194.677734"/>
       <use xlink:href="#DejaVuSans-70" x="222.460938"/>
      </g>
     </g>
    </g>
    <g id="xtick_19">
     <g id="line2d_27">
      <path d="M 839.897816 310.361665 
L 979.586178 512.735195 
" clip-path="url(#paaf890a5c0)" style="fill: none; stroke: #b0b0b0; stroke-width: 0.8; stroke-linecap: square"/>
     </g>
     <g id="text_25">
      <!-- R_Knee -->
      <g transform="translate(959.676584 527.978844) scale(0.15 -0.15)">
       <use xlink:href="#DejaVuSans-52"/>
       <use xlink:href="#DejaVuSans-5f" x="69.482422"/>
       <use xlink:href="#DejaVuSans-4b" x="119.482422"/>
       <use xlink:href="#DejaVuSans-6e" x="185.058594"/>
       <use xlink:href="#DejaVuSans-65" x="248.4375"/>
       <use xlink:href="#DejaVuSans-65" x="309.960938"/>
      </g>
     </g>
    </g>
    <g id="xtick_20">
     <g id="line2d_28">
      <path d="M 839.897816 310.361665 
L 1057.633387 424.638108 
" clip-path="url(#paaf890a5c0)" style="fill: none; stroke: #b0b0b0; stroke-width: 0.8; stroke-linecap: square"/>
     </g>
     <g id="text_26">
      <!-- R_H_Paw -->
      <g transform="translate(1036.763755 434.866107) scale(0.15 -0.15)">
       <use xlink:href="#DejaVuSans-52"/>
       <use xlink:href="#DejaVuSans-5f" x="69.482422"/>
       <use xlink:href="#DejaVuSans-48" x="119.482422"/>
       <use xlink:href="#DejaVuSans-5f" x="194.677734"/>
       <use xlink:href="#DejaVuSans-50" x="244.677734"/>
       <use xlink:href="#DejaVuSans-61" x="300.480469"/>
       <use xlink:href="#DejaVuSans-77" x="361.759766"/>
      </g>
     </g>
    </g>
   </g>
   <g id="matplotlib.axis_4">
    <g id="ytick_6">
     <g id="line2d_29">
      <path d="M 889.078253 310.361665 
C 889.078253 303.903349 887.806105 297.507832 885.334615 291.541126 
C 882.863124 285.574421 879.240355 280.152563 874.673636 275.585844 
C 870.106917 271.019126 864.68506 267.396356 858.718354 264.924866 
C 852.751648 262.453375 846.356132 261.181228 839.897816 261.181228 
C 833.4395 261.181228 827.043983 262.453375 821.077277 264.924866 
C 815.110572 267.396356 809.688714 271.019126 805.121995 275.585844 
C 800.555277 280.152563 796.932507 285.574421 794.461017 291.541126 
C 791.989526 297.507832 790.717379 303.903349 790.717379 310.361665 
C 790.717379 316.819981 791.989526 323.215497 794.461017 329.182203 
C 796.932507 335.148909 800.555277 340.570766 805.121995 345.137485 
C 809.688714 349.704204 815.110572 353.326973 821.077277 355.798464 
C 827.043983 358.269954 833.4395 359.542102 839.897816 359.542102 
C 846.356132 359.542102 852.751648 358.269954 858.718354 355.798464 
C 864.68506 353.326973 870.106917 349.704204 874.673636 345.137485 
C 879.240355 340.570766 882.863124 335.148909 885.334615 329.182203 
C 887.806105 323.215497 889.078253 316.819981 889.078253 310.361665 
" clip-path="url(#paaf890a5c0)" style="fill: none; stroke: #b0b0b0; stroke-width: 0.8; stroke-linecap: square"/>
     </g>
     <g id="text_27">
      <!-- 0.6 -->
      <g transform="translate(885.334615 289.461439) scale(0.1 -0.1)">
       <use xlink:href="#DejaVuSans-30"/>
       <use xlink:href="#DejaVuSans-2e" x="63.623047"/>
       <use xlink:href="#DejaVuSans-36" x="95.410156"/>
      </g>
     </g>
    </g>
    <g id="ytick_7">
     <g id="line2d_30">
      <path d="M 938.258689 310.361665 
C 938.258689 297.445033 935.714395 284.654 930.771414 272.720588 
C 925.828433 260.787177 918.582894 249.943462 909.449457 240.810024 
C 900.316019 231.676586 889.472304 224.431048 877.538893 219.488067 
C 865.605481 214.545086 852.814447 212.000791 839.897816 212.000791 
C 826.981184 212.000791 814.190151 214.545086 802.256739 219.488067 
C 790.323327 224.431048 779.479613 231.676586 770.346175 240.810024 
C 761.212737 249.943462 753.967199 260.787177 749.024218 272.720588 
C 744.081237 284.654 741.536942 297.445033 741.536942 310.361665 
C 741.536942 323.278296 744.081237 336.06933 749.024218 348.002742 
C 753.967199 359.936153 761.212737 370.779868 770.346175 379.913306 
C 779.479613 389.046743 790.323327 396.292282 802.256739 401.235263 
C 814.190151 406.178244 826.981184 408.722539 839.897816 408.722539 
C 852.814447 408.722539 865.605481 406.178244 877.538893 401.235263 
C 889.472304 396.292282 900.316019 389.046743 909.449457 379.913306 
C 918.582894 370.779868 925.828433 359.936153 930.771414 348.002742 
C 935.714395 336.06933 938.258689 323.278296 938.258689 310.361665 
" clip-path="url(#paaf890a5c0)" style="fill: none; stroke: #b0b0b0; stroke-width: 0.8; stroke-linecap: square"/>
     </g>
     <g id="text_28">
      <!-- 0.7 -->
      <g transform="translate(930.771414 270.640901) scale(0.1 -0.1)">
       <use xlink:href="#DejaVuSans-30"/>
       <use xlink:href="#DejaVuSans-2e" x="63.623047"/>
       <use xlink:href="#DejaVuSans-37" x="95.410156"/>
      </g>
     </g>
    </g>
    <g id="ytick_8">
     <g id="line2d_31">
      <path d="M 987.439126 310.361665 
C 987.439126 290.986717 983.622684 271.800167 976.208213 253.90005 
C 968.793741 235.999932 957.925434 219.73436 944.225277 206.034204 
C 930.52512 192.334047 914.259548 181.465739 896.359431 174.051268 
C 878.459314 166.636796 859.272763 162.820354 839.897816 162.820354 
C 820.522868 162.820354 801.336318 166.636796 783.436201 174.051268 
C 765.536083 181.465739 749.270511 192.334047 735.570355 206.034204 
C 721.870198 219.73436 711.00189 235.999932 703.587419 253.90005 
C 696.172947 271.800167 692.356505 290.986717 692.356505 310.361665 
C 692.356505 329.736612 696.172947 348.923163 703.587419 366.82328 
C 711.00189 384.723397 721.870198 400.988969 735.570355 414.689126 
C 749.270511 428.389283 765.536083 439.25759 783.436201 446.672062 
C 801.336318 454.086533 820.522868 457.902975 839.897816 457.902975 
C 859.272763 457.902975 878.459314 454.086533 896.359431 446.672062 
C 914.259548 439.25759 930.52512 428.389283 944.225277 414.689126 
C 957.925434 400.988969 968.793741 384.723397 976.208213 366.82328 
C 983.622684 348.923163 987.439126 329.736612 987.439126 310.361665 
" clip-path="url(#paaf890a5c0)" style="fill: none; stroke: #b0b0b0; stroke-width: 0.8; stroke-linecap: square"/>
     </g>
     <g id="text_29">
      <!-- 0.8 -->
      <g transform="translate(976.208213 251.820362) scale(0.1 -0.1)">
       <use xlink:href="#DejaVuSans-30"/>
       <use xlink:href="#DejaVuSans-2e" x="63.623047"/>
       <use xlink:href="#DejaVuSans-38" x="95.410156"/>
      </g>
     </g>
    </g>
    <g id="ytick_9">
     <g id="line2d_32">
      <path d="M 1036.619563 310.361665 
C 1036.619563 284.528402 1031.530974 258.946334 1021.645012 235.079511 
C 1011.75905 211.212688 997.267973 189.525259 979.001097 171.258383 
C 960.734222 152.991508 939.046792 138.500431 915.179969 128.614469 
C 891.313146 118.728507 865.731079 113.639917 839.897816 113.639917 
C 814.064553 113.639917 788.482485 118.728507 764.615662 128.614469 
C 740.748839 138.500431 719.06141 152.991508 700.794534 171.258383 
C 682.527659 189.525259 668.036582 211.212688 658.15062 235.079511 
C 648.264658 258.946334 643.176068 284.528402 643.176068 310.361665 
C 643.176068 336.194928 648.264658 361.776995 658.15062 385.643818 
C 668.036582 409.510641 682.527659 431.198071 700.794534 449.464946 
C 719.06141 467.731822 740.748839 482.222899 764.615662 492.108861 
C 788.482485 501.994823 814.064553 507.083412 839.897816 507.083412 
C 865.731079 507.083412 891.313146 501.994823 915.179969 492.108861 
C 939.046792 482.222899 960.734222 467.731822 979.001097 449.464946 
C 997.267973 431.198071 1011.75905 409.510641 1021.645012 385.643818 
C 1031.530974 361.776995 1036.619563 336.194928 1036.619563 310.361665 
" clip-path="url(#paaf890a5c0)" style="fill: none; stroke: #b0b0b0; stroke-width: 0.8; stroke-linecap: square"/>
     </g>
     <g id="text_30">
      <!-- 0.9 -->
      <g transform="translate(1021.645012 232.999824) scale(0.1 -0.1)">
       <use xlink:href="#DejaVuSans-30"/>
       <use xlink:href="#DejaVuSans-2e" x="63.623047"/>
       <use xlink:href="#DejaVuSans-39" x="95.410156"/>
      </g>
     </g>
    </g>
    <g id="ytick_10">
     <g id="line2d_33">
      <path d="M 1085.8 310.361665 
C 1085.8 278.070086 1079.439263 246.092502 1067.081811 216.258973 
C 1054.724359 186.425444 1036.610512 159.316157 1013.776918 136.482563 
C 990.943323 113.648968 963.834037 95.535122 934.000508 83.17767 
C 904.166979 70.820218 872.189395 64.459481 839.897816 64.459481 
C 807.606237 64.459481 775.628653 70.820218 745.795124 83.17767 
C 715.961595 95.535122 688.852308 113.648968 666.018714 136.482563 
C 643.185119 159.316157 625.071273 186.425444 612.713821 216.258973 
C 600.356369 246.092502 593.995632 278.070086 593.995632 310.361665 
C 593.995632 342.653244 600.356369 374.630828 612.713821 404.464357 
C 625.071273 434.297886 643.185119 461.407172 666.018714 484.240767 
C 688.852308 507.074361 715.961595 525.188208 745.795124 537.54566 
C 775.628653 549.903112 807.606237 556.263849 839.897816 556.263849 
C 872.189395 556.263849 904.166979 549.903112 934.000508 537.54566 
C 963.834037 525.188208 990.943323 507.074361 1013.776918 484.240767 
C 1036.610512 461.407172 1054.724359 434.297886 1067.081811 404.464357 
C 1079.439263 374.630828 1085.8 342.653244 1085.8 310.361665 
" clip-path="url(#paaf890a5c0)" style="fill: none; stroke: #b0b0b0; stroke-width: 0.8; stroke-linecap: square"/>
     </g>
     <g id="text_31">
      <!-- 1.0 -->
      <g transform="translate(1067.081811 214.179285) scale(0.1 -0.1)">
       <use xlink:href="#DejaVuSans-31"/>
       <use xlink:href="#DejaVuSans-2e" x="63.623047"/>
       <use xlink:href="#DejaVuSans-30" x="95.410156"/>
      </g>
     </g>
    </g>
   </g>
   <g id="line2d_34">
    <path d="M 1073.329162 310.361665 
L 1047.759098 201.267648 
L 926.833209 184.414004 
L 867.428287 83.627838 
L 759.530959 98.451679 
L 830.679275 302.19475 
L 612.010549 254.192498 
L 618.17182 365.012214 
L 672.397913 458.75363 
L 765.057259 507.699994 
L 866.308334 527.871848 
L 956.667607 479.531913 
L 989.962858 389.121875 
L 1073.329162 310.361665 
" clip-path="url(#paaf890a5c0)" style="fill: none; stroke: #0000ff; stroke-width: 2; stroke-linecap: square"/>
   </g>
   <g id="line2d_35">
    <path d="M 1065.52262 310.361665 
L 1044.061814 203.208132 
L 941.803425 162.725902 
L 866.732905 89.354821 
L 758.475949 95.669847 
L 760.843702 240.325832 
L 638.599715 260.746139 
L 630.901209 361.874702 
L 677.06007 454.623319 
L 773.014815 486.717645 
L 865.54708 521.602363 
L 960.994049 485.799847 
L 993.349876 390.899519 
L 1065.52262 310.361665 
" clip-path="url(#paaf890a5c0)" style="fill: none; stroke: #ff0000; stroke-width: 2; stroke-linecap: square"/>
   </g>
   <g id="line2d_36">
    <path d="M 1074.180129 310.361665 
L 1047.462417 201.423358 
L 947.665512 154.233203 
L 867.786806 80.675165 
L 759.138331 97.416405 
L 833.062767 304.30634 
L 610.92763 253.925583 
L 618.261667 364.990069 
L 673.815121 457.498093 
L 766.012321 505.181703 
L 866.678507 530.920498 
L 962.855547 488.496691 
L 996.73758 392.677523 
L 1074.180129 310.361665 
" clip-path="url(#paaf890a5c0)" style="fill: none; stroke: #008000; stroke-width: 2; stroke-linecap: square"/>
   </g>
   <g id="patch_11">
    <path d="M 1085.8 310.361665 
C 1085.8 278.070086 1079.439263 246.092502 1067.081811 216.258973 
C 1054.724359 186.425444 1036.610512 159.316157 1013.776918 136.482563 
C 990.943323 113.648968 963.834037 95.535122 934.000508 83.17767 
C 904.166979 70.820218 872.189395 64.459481 839.897816 64.459481 
C 807.606237 64.459481 775.628653 70.820218 745.795124 83.17767 
C 715.961595 95.535122 688.852308 113.648968 666.018714 136.482563 
C 643.185119 159.316157 625.071273 186.425444 612.713821 216.258973 
C 600.356369 246.092502 593.995632 278.070086 593.995632 310.361665 
C 593.995632 342.653244 600.356369 374.630828 612.713821 404.464357 
C 625.071273 434.297886 643.185119 461.407172 666.018714 484.240767 
C 688.852308 507.074361 715.961595 525.188208 745.795124 537.54566 
C 775.628653 549.903112 807.606237 556.263849 839.897816 556.263849 
C 872.189395 556.263849 904.166979 549.903112 934.000508 537.54566 
C 963.834037 525.188208 990.943323 507.074361 1013.776918 484.240767 
C 1036.610512 461.407172 1054.724359 434.297886 1067.081811 404.464357 
C 1079.439263 374.630828 1085.8 342.653244 1085.8 310.361665 
" style="fill: none; stroke: #000000; stroke-width: 0.8; stroke-linejoin: miter; stroke-linecap: square"/>
   </g>
   <g id="text_32">
    <!-- Lower KPs -->
    <g style="fill: #00008b" transform="translate(799.291566 24.887273) scale(0.16 -0.16)">
     <use xlink:href="#DejaVuSans-4c"/>
     <use xlink:href="#DejaVuSans-6f" x="53.962891"/>
     <use xlink:href="#DejaVuSans-77" x="115.144531"/>
     <use xlink:href="#DejaVuSans-65" x="196.931641"/>
     <use xlink:href="#DejaVuSans-72" x="258.455078"/>
     <use xlink:href="#DejaVuSans-20" x="299.568359"/>
     <use xlink:href="#DejaVuSans-4b" x="331.355469"/>
     <use xlink:href="#DejaVuSans-50" x="396.931641"/>
     <use xlink:href="#DejaVuSans-73" x="455.484375"/>
    </g>
   </g>
   <g id="legend_1">
    <g id="patch_12">
     <path d="M 1045.172624 38.796231 
L 1127.980437 38.796231 
Q 1129.980437 38.796231 1129.980437 36.796231 
L 1129.980437 -6.238144 
Q 1129.980437 -8.238144 1127.980437 -8.238144 
L 1045.172624 -8.238144 
Q 1043.172624 -8.238144 1043.172624 -6.238144 
L 1043.172624 36.796231 
Q 1043.172624 38.796231 1045.172624 38.796231 
z
" style="fill: #ffffff; opacity: 0.8; stroke: #cccccc; stroke-linejoin: miter"/>
    </g>
    <g id="line2d_37">
     <path d="M 1047.172624 -0.139706 
L 1057.172624 -0.139706 
L 1067.172624 -0.139706 
" style="fill: none; stroke: #0000ff; stroke-width: 2; stroke-linecap: square"/>
    </g>
    <g id="text_33">
     <!-- Real -->
     <g transform="translate(1075.172624 3.360294) scale(0.1 -0.1)">
      <use xlink:href="#DejaVuSans-52"/>
      <use xlink:href="#DejaVuSans-65" x="64.982422"/>
      <use xlink:href="#DejaVuSans-61" x="126.505859"/>
      <use xlink:href="#DejaVuSans-6c" x="187.785156"/>
     </g>
    </g>
    <g id="line2d_38">
     <path d="M 1047.172624 14.538419 
L 1057.172624 14.538419 
L 1067.172624 14.538419 
" style="fill: none; stroke: #ff0000; stroke-width: 2; stroke-linecap: square"/>
    </g>
    <g id="text_34">
     <!-- Synthetic -->
     <g transform="translate(1075.172624 18.038419) scale(0.1 -0.1)">
      <defs>
       <path id="DejaVuSans-74" d="M 1172 4494 
L 1172 3500 
L 2356 3500 
L 2356 3053 
L 1172 3053 
L 1172 1153 
Q 1172 725 1289 603 
Q 1406 481 1766 481 
L 2356 481 
L 2356 0 
L 1766 0 
Q 1100 0 847 248 
Q 594 497 594 1153 
L 594 3053 
L 172 3053 
L 172 3500 
L 594 3500 
L 594 4494 
L 1172 4494 
z
" transform="scale(0.015625)"/>
      </defs>
      <use xlink:href="#DejaVuSans-53"/>
      <use xlink:href="#DejaVuSans-79" x="63.476562"/>
      <use xlink:href="#DejaVuSans-6e" x="122.65625"/>
      <use xlink:href="#DejaVuSans-74" x="186.035156"/>
      <use xlink:href="#DejaVuSans-68" x="225.244141"/>
      <use xlink:href="#DejaVuSans-65" x="288.623047"/>
      <use xlink:href="#DejaVuSans-74" x="350.146484"/>
      <use xlink:href="#DejaVuSans-69" x="389.355469"/>
      <use xlink:href="#DejaVuSans-63" x="417.138672"/>
     </g>
    </g>
    <g id="line2d_39">
     <path d="M 1047.172624 29.216544 
L 1057.172624 29.216544 
L 1067.172624 29.216544 
" style="fill: none; stroke: #008000; stroke-width: 2; stroke-linecap: square"/>
    </g>
    <g id="text_35">
     <!-- Combined -->
     <g transform="translate(1075.172624 32.716544) scale(0.1 -0.1)">
      <defs>
       <path id="DejaVuSans-43" d="M 4122 4306 
L 4122 3641 
Q 3803 3938 3442 4084 
Q 3081 4231 2675 4231 
Q 1875 4231 1450 3742 
Q 1025 3253 1025 2328 
Q 1025 1406 1450 917 
Q 1875 428 2675 428 
Q 3081 428 3442 575 
Q 3803 722 4122 1019 
L 4122 359 
Q 3791 134 3420 21 
Q 3050 -91 2638 -91 
Q 1578 -91 968 557 
Q 359 1206 359 2328 
Q 359 3453 968 4101 
Q 1578 4750 2638 4750 
Q 3056 4750 3426 4639 
Q 3797 4528 4122 4306 
z
" transform="scale(0.015625)"/>
       <path id="DejaVuSans-6d" d="M 3328 2828 
Q 3544 3216 3844 3400 
Q 4144 3584 4550 3584 
Q 5097 3584 5394 3201 
Q 5691 2819 5691 2113 
L 5691 0 
L 5113 0 
L 5113 2094 
Q 5113 2597 4934 2840 
Q 4756 3084 4391 3084 
Q 3944 3084 3684 2787 
Q 3425 2491 3425 1978 
L 3425 0 
L 2847 0 
L 2847 2094 
Q 2847 2600 2669 2842 
Q 2491 3084 2119 3084 
Q 1678 3084 1418 2786 
Q 1159 2488 1159 1978 
L 1159 0 
L 581 0 
L 581 3500 
L 1159 3500 
L 1159 2956 
Q 1356 3278 1631 3431 
Q 1906 3584 2284 3584 
Q 2666 3584 2933 3390 
Q 3200 3197 3328 2828 
z
" transform="scale(0.015625)"/>
      </defs>
      <use xlink:href="#DejaVuSans-43"/>
      <use xlink:href="#DejaVuSans-6f" x="69.824219"/>
      <use xlink:href="#DejaVuSans-6d" x="131.005859"/>
      <use xlink:href="#DejaVuSans-62" x="228.417969"/>
      <use xlink:href="#DejaVuSans-69" x="291.894531"/>
      <use xlink:href="#DejaVuSans-6e" x="319.677734"/>
      <use xlink:href="#DejaVuSans-65" x="383.056641"/>
      <use xlink:href="#DejaVuSans-64" x="444.580078"/>
     </g>
    </g>
   </g>
  </g>
 </g>
 <defs>
  <clipPath id="p0d4ce24bc6">
   <path d="M 518.073616 310.361665 
C 518.073616 278.070086 511.712879 246.092502 499.355426 216.258973 
C 486.997974 186.425444 468.884128 159.316157 446.050533 136.482563 
C 423.216939 113.648968 396.107652 95.535122 366.274123 83.17767 
C 336.440594 70.820218 304.46301 64.459481 272.171431 64.459481 
C 239.879852 64.459481 207.902268 70.820218 178.068739 83.17767 
C 148.235211 95.535122 121.125924 113.648968 98.292329 136.482563 
C 75.458735 159.316157 57.344889 186.425444 44.987436 216.258973 
C 32.629984 246.092502 26.269247 278.070086 26.269247 310.361665 
C 26.269247 342.653244 32.629984 374.630828 44.987436 404.464357 
C 57.344889 434.297886 75.458735 461.407172 98.292329 484.240767 
C 121.125924 507.074361 148.235211 525.188208 178.068739 537.54566 
C 207.902268 549.903112 239.879852 556.263849 272.171431 556.263849 
C 304.46301 556.263849 336.440594 549.903112 366.274123 537.54566 
C 396.107652 525.188208 423.216939 507.074361 446.050533 484.240767 
C 468.884128 461.407172 486.997974 434.297886 499.355426 404.464357 
C 511.712879 374.630828 518.073616 342.653244 518.073616 310.361665 
M 272.171431 310.361665 
C 272.171431 310.361665 272.171431 310.361665 272.171431 310.361665 
C 272.171431 310.361665 272.171431 310.361665 272.171431 310.361665 
C 272.171431 310.361665 272.171431 310.361665 272.171431 310.361665 
C 272.171431 310.361665 272.171431 310.361665 272.171431 310.361665 
C 272.171431 310.361665 272.171431 310.361665 272.171431 310.361665 
C 272.171431 310.361665 272.171431 310.361665 272.171431 310.361665 
C 272.171431 310.361665 272.171431 310.361665 272.171431 310.361665 
C 272.171431 310.361665 272.171431 310.361665 272.171431 310.361665 
C 272.171431 310.361665 272.171431 310.361665 272.171431 310.361665 
C 272.171431 310.361665 272.171431 310.361665 272.171431 310.361665 
C 272.171431 310.361665 272.171431 310.361665 272.171431 310.361665 
C 272.171431 310.361665 272.171431 310.361665 272.171431 310.361665 
C 272.171431 310.361665 272.171431 310.361665 272.171431 310.361665 
C 272.171431 310.361665 272.171431 310.361665 272.171431 310.361665 
C 272.171431 310.361665 272.171431 310.361665 272.171431 310.361665 
C 272.171431 310.361665 272.171431 310.361665 272.171431 310.361665 
z
"/>
  </clipPath>
  <clipPath id="paaf890a5c0">
   <path d="M 1085.8 310.361665 
C 1085.8 278.070086 1079.439263 246.092502 1067.081811 216.258973 
C 1054.724359 186.425444 1036.610512 159.316157 1013.776918 136.482563 
C 990.943323 113.648968 963.834037 95.535122 934.000508 83.17767 
C 904.166979 70.820218 872.189395 64.459481 839.897816 64.459481 
C 807.606237 64.459481 775.628653 70.820218 745.795124 83.17767 
C 715.961595 95.535122 688.852308 113.648968 666.018714 136.482563 
C 643.185119 159.316157 625.071273 186.425444 612.713821 216.258973 
C 600.356369 246.092502 593.995632 278.070086 593.995632 310.361665 
C 593.995632 342.653244 600.356369 374.630828 612.713821 404.464357 
C 625.071273 434.297886 643.185119 461.407172 666.018714 484.240767 
C 688.852308 507.074361 715.961595 525.188208 745.795124 537.54566 
C 775.628653 549.903112 807.606237 556.263849 839.897816 556.263849 
C 872.189395 556.263849 904.166979 549.903112 934.000508 537.54566 
C 963.834037 525.188208 990.943323 507.074361 1013.776918 484.240767 
C 1036.610512 461.407172 1054.724359 434.297886 1067.081811 404.464357 
C 1079.439263 374.630828 1085.8 342.653244 1085.8 310.361665 
M 839.897816 310.361665 
C 839.897816 310.361665 839.897816 310.361665 839.897816 310.361665 
C 839.897816 310.361665 839.897816 310.361665 839.897816 310.361665 
C 839.897816 310.361665 839.897816 310.361665 839.897816 310.361665 
C 839.897816 310.361665 839.897816 310.361665 839.897816 310.361665 
C 839.897816 310.361665 839.897816 310.361665 839.897816 310.361665 
C 839.897816 310.361665 839.897816 310.361665 839.897816 310.361665 
C 839.897816 310.361665 839.897816 310.361665 839.897816 310.361665 
C 839.897816 310.361665 839.897816 310.361665 839.897816 310.361665 
C 839.897816 310.361665 839.897816 310.361665 839.897816 310.361665 
C 839.897816 310.361665 839.897816 310.361665 839.897816 310.361665 
C 839.897816 310.361665 839.897816 310.361665 839.897816 310.361665 
C 839.897816 310.361665 839.897816 310.361665 839.897816 310.361665 
C 839.897816 310.361665 839.897816 310.361665 839.897816 310.361665 
C 839.897816 310.361665 839.897816 310.361665 839.897816 310.361665 
C 839.897816 310.361665 839.897816 310.361665 839.897816 310.361665 
C 839.897816 310.361665 839.897816 310.361665 839.897816 310.361665 
z
"/>
  </clipPath>
 </defs>
</svg>
