<?xml version="1.0" encoding="utf-8" standalone="no"?>
<!DOCTYPE svg PUBLIC "-//W3C//DTD SVG 1.1//EN"
  "http://www.w3.org/Graphics/SVG/1.1/DTD/svg11.dtd">
<svg xmlns:xlink="http://www.w3.org/1999/xlink" width="1152pt" height="576pt" viewBox="0 0 1152 576" xmlns="http://www.w3.org/2000/svg" version="1.1">
 <metadata>
  <rdf:RDF xmlns:dc="http://purl.org/dc/elements/1.1/" xmlns:cc="http://creativecommons.org/ns#" xmlns:rdf="http://www.w3.org/1999/02/22-rdf-syntax-ns#">
   <cc:Work>
    <dc:type rdf:resource="http://purl.org/dc/dcmitype/StillImage"/>
    <dc:date>2024-09-04T19:16:05.798700</dc:date>
    <dc:format>image/svg+xml</dc:format>
    <dc:creator>
     <cc:Agent>
      <dc:title>Matplotlib v3.9.0, https://matplotlib.org/</dc:title>
     </cc:Agent>
    </dc:creator>
   </cc:Work>
  </rdf:RDF>
 </metadata>
 <defs>
  <style type="text/css">*{stroke-linejoin: round; stroke-linecap: butt}</style>
 </defs>
 <g id="figure_1">
  <g id="patch_1">
   <path d="M 0 576 
L 1152 576 
L 1152 0 
L 0 0 
z
" style="fill: #ffffff"/>
  </g>
  <g id="axes_1">
   <g id="patch_2">
    <path d="M 525.955312 309.05104 
C 525.955312 275.906158 519.426493 243.083569 506.742496 212.461691 
C 494.058499 181.839814 475.465996 154.014166 452.029025 130.577196 
C 428.592055 107.140225 400.766407 88.547722 370.14453 75.863725 
C 339.522652 63.179728 306.700063 56.650909 273.555181 56.650909 
C 240.4103 56.650909 207.587711 63.179728 176.965833 75.863725 
C 146.343955 88.547722 118.518308 107.140225 95.081337 130.577196 
C 71.644367 154.014166 53.051864 181.839814 40.367867 212.461691 
C 27.68387 243.083569 21.155051 275.906158 21.155051 309.05104 
C 21.155051 342.195921 27.68387 375.018511 40.367867 405.640388 
C 53.051864 436.262266 71.644367 464.087913 95.081337 487.524884 
C 118.518308 510.961854 146.343955 529.554358 176.965833 542.238355 
C 207.587711 554.922352 240.4103 561.451171 273.555181 561.451171 
C 306.700063 561.451171 339.522652 554.922352 370.14453 542.238355 
C 400.766407 529.554358 428.592055 510.961854 452.029025 487.524884 
C 475.465996 464.087913 494.058499 436.262266 506.742496 405.640388 
C 519.426493 375.018511 525.955312 342.195921 525.955312 309.05104 
M 273.555181 309.05104 
C 273.555181 309.05104 273.555181 309.05104 273.555181 309.05104 
C 273.555181 309.05104 273.555181 309.05104 273.555181 309.05104 
C 273.555181 309.05104 273.555181 309.05104 273.555181 309.05104 
C 273.555181 309.05104 273.555181 309.05104 273.555181 309.05104 
C 273.555181 309.05104 273.555181 309.05104 273.555181 309.05104 
C 273.555181 309.05104 273.555181 309.05104 273.555181 309.05104 
C 273.555181 309.05104 273.555181 309.05104 273.555181 309.05104 
C 273.555181 309.05104 273.555181 309.05104 273.555181 309.05104 
C 273.555181 309.05104 273.555181 309.05104 273.555181 309.05104 
C 273.555181 309.05104 273.555181 309.05104 273.555181 309.05104 
C 273.555181 309.05104 273.555181 309.05104 273.555181 309.05104 
C 273.555181 309.05104 273.555181 309.05104 273.555181 309.05104 
C 273.555181 309.05104 273.555181 309.05104 273.555181 309.05104 
C 273.555181 309.05104 273.555181 309.05104 273.555181 309.05104 
C 273.555181 309.05104 273.555181 309.05104 273.555181 309.05104 
C 273.555181 309.05104 273.555181 309.05104 273.555181 309.05104 
z
" style="fill: #ffffff"/>
   </g>
   <g id="patch_3">
    <path d="M 510.125424 309.05104 
L 418.877863 126.822161 
L 223.028803 87.680511 
L 74.084246 212.9909 
L 49.689036 416.859293 
L 221.026908 539.192441 
L 424.60213 498.457923 
z
" clip-path="url(#pe9e839d209)" style="fill: #0000ff; opacity: 0.25; stroke: #0000ff; stroke-linejoin: miter"/>
   </g>
   <g id="patch_4">
    <path d="M 518.734846 309.05104 
L 407.102353 141.588184 
L 228.719807 112.61443 
L 72.909044 212.424953 
L 53.356364 415.093201 
L 221.610579 536.635212 
L 412.380581 483.132585 
z
" clip-path="url(#pe9e839d209)" style="fill: #ff0000; opacity: 0.3; stroke: #ff0000; stroke-linejoin: miter"/>
   </g>
   <g id="patch_5">
    <path d="M 516.868829 309.05104 
L 421.826135 123.125144 
L 221.786114 82.235935 
L 73.726046 212.8184 
L 49.999897 416.709591 
L 221.110739 538.825154 
L 416.828776 488.710445 
z
" clip-path="url(#pe9e839d209)" style="fill: #008000; opacity: 0.35; stroke: #008000; stroke-linejoin: miter"/>
   </g>
   <g id="matplotlib.axis_1">
    <g id="xtick_1">
     <g id="line2d_1">
      <path d="M 273.555181 309.05104 
L 525.955312 309.05104 
" clip-path="url(#pe9e839d209)" style="fill: none; stroke: #b0b0b0; stroke-width: 0.8; stroke-linecap: square"/>
     </g>
     <g id="text_1">
      <!-- Back1 -->
      <g transform="translate(524.635 316.649477) scale(0.1 -0.1)">
       <defs>
        <path id="DejaVuSans-42" d="M 1259 2228 
L 1259 519 
L 2272 519 
Q 2781 519 3026 730 
Q 3272 941 3272 1375 
Q 3272 1813 3026 2020 
Q 2781 2228 2272 2228 
L 1259 2228 
z
M 1259 4147 
L 1259 2741 
L 2194 2741 
Q 2656 2741 2882 2914 
Q 3109 3088 3109 3444 
Q 3109 3797 2882 3972 
Q 2656 4147 2194 4147 
L 1259 4147 
z
M 628 4666 
L 2241 4666 
Q 2963 4666 3353 4366 
Q 3744 4066 3744 3513 
Q 3744 3084 3544 2831 
Q 3344 2578 2956 2516 
Q 3422 2416 3680 2098 
Q 3938 1781 3938 1306 
Q 3938 681 3513 340 
Q 3088 0 2303 0 
L 628 0 
L 628 4666 
z
" transform="scale(0.015625)"/>
        <path id="DejaVuSans-61" d="M 2194 1759 
Q 1497 1759 1228 1600 
Q 959 1441 959 1056 
Q 959 750 1161 570 
Q 1363 391 1709 391 
Q 2188 391 2477 730 
Q 2766 1069 2766 1631 
L 2766 1759 
L 2194 1759 
z
M 3341 1997 
L 3341 0 
L 2766 0 
L 2766 531 
Q 2569 213 2275 61 
Q 1981 -91 1556 -91 
Q 1019 -91 701 211 
Q 384 513 384 1019 
Q 384 1609 779 1909 
Q 1175 2209 1959 2209 
L 2766 2209 
L 2766 2266 
Q 2766 2663 2505 2880 
Q 2244 3097 1772 3097 
Q 1472 3097 1187 3025 
Q 903 2953 641 2809 
L 641 3341 
Q 956 3463 1253 3523 
Q 1550 3584 1831 3584 
Q 2591 3584 2966 3190 
Q 3341 2797 3341 1997 
z
" transform="scale(0.015625)"/>
        <path id="DejaVuSans-63" d="M 3122 3366 
L 3122 2828 
Q 2878 2963 2633 3030 
Q 2388 3097 2138 3097 
Q 1578 3097 1268 2742 
Q 959 2388 959 1747 
Q 959 1106 1268 751 
Q 1578 397 2138 397 
Q 2388 397 2633 464 
Q 2878 531 3122 666 
L 3122 134 
Q 2881 22 2623 -34 
Q 2366 -91 2075 -91 
Q 1284 -91 818 406 
Q 353 903 353 1747 
Q 353 2603 823 3093 
Q 1294 3584 2113 3584 
Q 2378 3584 2631 3529 
Q 2884 3475 3122 3366 
z
" transform="scale(0.015625)"/>
        <path id="DejaVuSans-6b" d="M 581 4863 
L 1159 4863 
L 1159 1991 
L 2875 3500 
L 3609 3500 
L 1753 1863 
L 3688 0 
L 2938 0 
L 1159 1709 
L 1159 0 
L 581 0 
L 581 4863 
z
" transform="scale(0.015625)"/>
        <path id="DejaVuSans-31" d="M 794 531 
L 1825 531 
L 1825 4091 
L 703 3866 
L 703 4441 
L 1819 4666 
L 2450 4666 
L 2450 531 
L 3481 531 
L 3481 0 
L 794 0 
L 794 531 
z
" transform="scale(0.015625)"/>
       </defs>
       <use xlink:href="#DejaVuSans-42"/>
       <use xlink:href="#DejaVuSans-61" x="68.603516"/>
       <use xlink:href="#DejaVuSans-63" x="129.882812"/>
       <use xlink:href="#DejaVuSans-6b" x="184.863281"/>
       <use xlink:href="#DejaVuSans-31" x="242.773438"/>
      </g>
     </g>
    </g>
    <g id="xtick_2">
     <g id="line2d_2">
      <path d="M 273.555181 309.05104 
L 430.924089 111.716671 
" clip-path="url(#pe9e839d209)" style="fill: none; stroke: #b0b0b0; stroke-width: 0.8; stroke-linecap: square"/>
     </g>
     <g id="text_2">
      <!-- Back2 -->
      <g transform="translate(424.332634 108.369468) scale(0.1 -0.1)">
       <defs>
        <path id="DejaVuSans-32" d="M 1228 531 
L 3431 531 
L 3431 0 
L 469 0 
L 469 531 
Q 828 903 1448 1529 
Q 2069 2156 2228 2338 
Q 2531 2678 2651 2914 
Q 2772 3150 2772 3378 
Q 2772 3750 2511 3984 
Q 2250 4219 1831 4219 
Q 1534 4219 1204 4116 
Q 875 4013 500 3803 
L 500 4441 
Q 881 4594 1212 4672 
Q 1544 4750 1819 4750 
Q 2544 4750 2975 4387 
Q 3406 4025 3406 3419 
Q 3406 3131 3298 2873 
Q 3191 2616 2906 2266 
Q 2828 2175 2409 1742 
Q 1991 1309 1228 531 
z
" transform="scale(0.015625)"/>
       </defs>
       <use xlink:href="#DejaVuSans-42"/>
       <use xlink:href="#DejaVuSans-61" x="68.603516"/>
       <use xlink:href="#DejaVuSans-63" x="129.882812"/>
       <use xlink:href="#DejaVuSans-6b" x="184.863281"/>
       <use xlink:href="#DejaVuSans-32" x="242.773438"/>
      </g>
     </g>
    </g>
    <g id="xtick_3">
     <g id="line2d_3">
      <path d="M 273.555181 309.05104 
L 217.390869 62.979107 
" clip-path="url(#pe9e839d209)" style="fill: none; stroke: #b0b0b0; stroke-width: 0.8; stroke-linecap: square"/>
     </g>
     <g id="text_3">
      <!-- Back3 -->
      <g transform="translate(198.955263 56.928554) scale(0.1 -0.1)">
       <defs>
        <path id="DejaVuSans-33" d="M 2597 2516 
Q 3050 2419 3304 2112 
Q 3559 1806 3559 1356 
Q 3559 666 3084 287 
Q 2609 -91 1734 -91 
Q 1441 -91 1130 -33 
Q 819 25 488 141 
L 488 750 
Q 750 597 1062 519 
Q 1375 441 1716 441 
Q 2309 441 2620 675 
Q 2931 909 2931 1356 
Q 2931 1769 2642 2001 
Q 2353 2234 1838 2234 
L 1294 2234 
L 1294 2753 
L 1863 2753 
Q 2328 2753 2575 2939 
Q 2822 3125 2822 3475 
Q 2822 3834 2567 4026 
Q 2313 4219 1838 4219 
Q 1578 4219 1281 4162 
Q 984 4106 628 3988 
L 628 4550 
Q 988 4650 1302 4700 
Q 1616 4750 1894 4750 
Q 2613 4750 3031 4423 
Q 3450 4097 3450 3541 
Q 3450 3153 3228 2886 
Q 3006 2619 2597 2516 
z
" transform="scale(0.015625)"/>
       </defs>
       <use xlink:href="#DejaVuSans-42"/>
       <use xlink:href="#DejaVuSans-61" x="68.603516"/>
       <use xlink:href="#DejaVuSans-63" x="129.882812"/>
       <use xlink:href="#DejaVuSans-6b" x="184.863281"/>
       <use xlink:href="#DejaVuSans-33" x="242.773438"/>
      </g>
     </g>
    </g>
    <g id="xtick_4">
     <g id="line2d_4">
      <path d="M 273.555181 309.05104 
L 46.150521 199.538727 
" clip-path="url(#pe9e839d209)" style="fill: none; stroke: #b0b0b0; stroke-width: 0.8; stroke-linecap: square"/>
     </g>
     <g id="text_4">
      <!-- Back4 -->
      <g transform="translate(18.216645 201.062793) scale(0.1 -0.1)">
       <defs>
        <path id="DejaVuSans-34" d="M 2419 4116 
L 825 1625 
L 2419 1625 
L 2419 4116 
z
M 2253 4666 
L 3047 4666 
L 3047 1625 
L 3713 1625 
L 3713 1100 
L 3047 1100 
L 3047 0 
L 2419 0 
L 2419 1100 
L 313 1100 
L 313 1709 
L 2253 4666 
z
" transform="scale(0.015625)"/>
       </defs>
       <use xlink:href="#DejaVuSans-42"/>
       <use xlink:href="#DejaVuSans-61" x="68.603516"/>
       <use xlink:href="#DejaVuSans-63" x="129.882812"/>
       <use xlink:href="#DejaVuSans-6b" x="184.863281"/>
       <use xlink:href="#DejaVuSans-34" x="242.773438"/>
      </g>
     </g>
    </g>
    <g id="xtick_5">
     <g id="line2d_5">
      <path d="M 273.555181 309.05104 
L 46.150521 418.563352 
" clip-path="url(#pe9e839d209)" style="fill: none; stroke: #b0b0b0; stroke-width: 0.8; stroke-linecap: square"/>
     </g>
     <g id="text_5">
      <!-- Head -->
      <g transform="translate(20.461957 432.236162) scale(0.1 -0.1)">
       <defs>
        <path id="DejaVuSans-48" d="M 628 4666 
L 1259 4666 
L 1259 2753 
L 3553 2753 
L 3553 4666 
L 4184 4666 
L 4184 0 
L 3553 0 
L 3553 2222 
L 1259 2222 
L 1259 0 
L 628 0 
L 628 4666 
z
" transform="scale(0.015625)"/>
        <path id="DejaVuSans-65" d="M 3597 1894 
L 3597 1613 
L 953 1613 
Q 991 1019 1311 708 
Q 1631 397 2203 397 
Q 2534 397 2845 478 
Q 3156 559 3463 722 
L 3463 178 
Q 3153 47 2828 -22 
Q 2503 -91 2169 -91 
Q 1331 -91 842 396 
Q 353 884 353 1716 
Q 353 2575 817 3079 
Q 1281 3584 2069 3584 
Q 2775 3584 3186 3129 
Q 3597 2675 3597 1894 
z
M 3022 2063 
Q 3016 2534 2758 2815 
Q 2500 3097 2075 3097 
Q 1594 3097 1305 2825 
Q 1016 2553 972 2059 
L 3022 2063 
z
" transform="scale(0.015625)"/>
        <path id="DejaVuSans-64" d="M 2906 2969 
L 2906 4863 
L 3481 4863 
L 3481 0 
L 2906 0 
L 2906 525 
Q 2725 213 2448 61 
Q 2172 -91 1784 -91 
Q 1150 -91 751 415 
Q 353 922 353 1747 
Q 353 2572 751 3078 
Q 1150 3584 1784 3584 
Q 2172 3584 2448 3432 
Q 2725 3281 2906 2969 
z
M 947 1747 
Q 947 1113 1208 752 
Q 1469 391 1925 391 
Q 2381 391 2643 752 
Q 2906 1113 2906 1747 
Q 2906 2381 2643 2742 
Q 2381 3103 1925 3103 
Q 1469 3103 1208 2742 
Q 947 2381 947 1747 
z
" transform="scale(0.015625)"/>
       </defs>
       <use xlink:href="#DejaVuSans-48"/>
       <use xlink:href="#DejaVuSans-65" x="75.195312"/>
       <use xlink:href="#DejaVuSans-61" x="136.71875"/>
       <use xlink:href="#DejaVuSans-64" x="197.998047"/>
      </g>
     </g>
    </g>
    <g id="xtick_6">
     <g id="line2d_6">
      <path d="M 273.555181 309.05104 
L 217.390869 555.122972 
" clip-path="url(#pe9e839d209)" style="fill: none; stroke: #b0b0b0; stroke-width: 0.8; stroke-linecap: square"/>
     </g>
     <g id="text_6">
      <!-- Nose -->
      <g transform="translate(201.794325 576.370401) scale(0.1 -0.1)">
       <defs>
        <path id="DejaVuSans-4e" d="M 628 4666 
L 1478 4666 
L 3547 763 
L 3547 4666 
L 4159 4666 
L 4159 0 
L 3309 0 
L 1241 3903 
L 1241 0 
L 628 0 
L 628 4666 
z
" transform="scale(0.015625)"/>
        <path id="DejaVuSans-6f" d="M 1959 3097 
Q 1497 3097 1228 2736 
Q 959 2375 959 1747 
Q 959 1119 1226 758 
Q 1494 397 1959 397 
Q 2419 397 2687 759 
Q 2956 1122 2956 1747 
Q 2956 2369 2687 2733 
Q 2419 3097 1959 3097 
z
M 1959 3584 
Q 2709 3584 3137 3096 
Q 3566 2609 3566 1747 
Q 3566 888 3137 398 
Q 2709 -91 1959 -91 
Q 1206 -91 779 398 
Q 353 888 353 1747 
Q 353 2609 779 3096 
Q 1206 3584 1959 3584 
z
" transform="scale(0.015625)"/>
        <path id="DejaVuSans-73" d="M 2834 3397 
L 2834 2853 
Q 2591 2978 2328 3040 
Q 2066 3103 1784 3103 
Q 1356 3103 1142 2972 
Q 928 2841 928 2578 
Q 928 2378 1081 2264 
Q 1234 2150 1697 2047 
L 1894 2003 
Q 2506 1872 2764 1633 
Q 3022 1394 3022 966 
Q 3022 478 2636 193 
Q 2250 -91 1575 -91 
Q 1294 -91 989 -36 
Q 684 19 347 128 
L 347 722 
Q 666 556 975 473 
Q 1284 391 1588 391 
Q 1994 391 2212 530 
Q 2431 669 2431 922 
Q 2431 1156 2273 1281 
Q 2116 1406 1581 1522 
L 1381 1569 
Q 847 1681 609 1914 
Q 372 2147 372 2553 
Q 372 3047 722 3315 
Q 1072 3584 1716 3584 
Q 2034 3584 2315 3537 
Q 2597 3491 2834 3397 
z
" transform="scale(0.015625)"/>
       </defs>
       <use xlink:href="#DejaVuSans-4e"/>
       <use xlink:href="#DejaVuSans-6f" x="74.804688"/>
       <use xlink:href="#DejaVuSans-73" x="135.986328"/>
       <use xlink:href="#DejaVuSans-65" x="188.085938"/>
      </g>
     </g>
    </g>
    <g id="xtick_7">
     <g id="line2d_7">
      <path d="M 273.555181 309.05104 
L 430.924089 506.385408 
" clip-path="url(#pe9e839d209)" style="fill: none; stroke: #b0b0b0; stroke-width: 0.8; stroke-linecap: square"/>
     </g>
     <g id="text_7">
      <!-- Neck -->
      <g transform="translate(427.191227 524.929486) scale(0.1 -0.1)">
       <use xlink:href="#DejaVuSans-4e"/>
       <use xlink:href="#DejaVuSans-65" x="74.804688"/>
       <use xlink:href="#DejaVuSans-63" x="136.328125"/>
       <use xlink:href="#DejaVuSans-6b" x="191.308594"/>
      </g>
     </g>
    </g>
   </g>
   <g id="matplotlib.axis_2">
    <g id="ytick_1">
     <g id="line2d_8">
      <path d="M 324.035208 309.05104 
C 324.035208 302.422064 322.729444 295.857546 320.192644 289.73317 
C 317.655845 283.608795 313.937344 278.043665 309.24995 273.356271 
C 304.562556 268.668877 298.997427 264.950376 292.873051 262.413577 
C 286.748676 259.876777 280.184158 258.571014 273.555181 258.571014 
C 266.926205 258.571014 260.361687 259.876777 254.237312 262.413577 
C 248.112936 264.950376 242.547807 268.668877 237.860413 273.356271 
C 233.173018 278.043665 229.454518 283.608795 226.917718 289.73317 
C 224.380919 295.857546 223.075155 302.422064 223.075155 309.05104 
C 223.075155 315.680016 224.380919 322.244534 226.917718 328.36891 
C 229.454518 334.493285 233.173018 340.058415 237.860413 344.745809 
C 242.547807 349.433203 248.112936 353.151703 254.237312 355.688503 
C 260.361687 358.225302 266.926205 359.531066 273.555181 359.531066 
C 280.184158 359.531066 286.748676 358.225302 292.873051 355.688503 
C 298.997427 353.151703 304.562556 349.433203 309.24995 344.745809 
C 313.937344 340.058415 317.655845 334.493285 320.192644 328.36891 
C 322.729444 322.244534 324.035208 315.680016 324.035208 309.05104 
" clip-path="url(#pe9e839d209)" style="fill: none; stroke: #b0b0b0; stroke-width: 0.8; stroke-linecap: square"/>
     </g>
     <g id="text_8">
      <!-- 0.6 -->
      <g transform="translate(320.192644 287.653483) scale(0.1 -0.1)">
       <defs>
        <path id="DejaVuSans-30" d="M 2034 4250 
Q 1547 4250 1301 3770 
Q 1056 3291 1056 2328 
Q 1056 1369 1301 889 
Q 1547 409 2034 409 
Q 2525 409 2770 889 
Q 3016 1369 3016 2328 
Q 3016 3291 2770 3770 
Q 2525 4250 2034 4250 
z
M 2034 4750 
Q 2819 4750 3233 4129 
Q 3647 3509 3647 2328 
Q 3647 1150 3233 529 
Q 2819 -91 2034 -91 
Q 1250 -91 836 529 
Q 422 1150 422 2328 
Q 422 3509 836 4129 
Q 1250 4750 2034 4750 
z
" transform="scale(0.015625)"/>
        <path id="DejaVuSans-2e" d="M 684 794 
L 1344 794 
L 1344 0 
L 684 0 
L 684 794 
z
" transform="scale(0.015625)"/>
        <path id="DejaVuSans-36" d="M 2113 2584 
Q 1688 2584 1439 2293 
Q 1191 2003 1191 1497 
Q 1191 994 1439 701 
Q 1688 409 2113 409 
Q 2538 409 2786 701 
Q 3034 994 3034 1497 
Q 3034 2003 2786 2293 
Q 2538 2584 2113 2584 
z
M 3366 4563 
L 3366 3988 
Q 3128 4100 2886 4159 
Q 2644 4219 2406 4219 
Q 1781 4219 1451 3797 
Q 1122 3375 1075 2522 
Q 1259 2794 1537 2939 
Q 1816 3084 2150 3084 
Q 2853 3084 3261 2657 
Q 3669 2231 3669 1497 
Q 3669 778 3244 343 
Q 2819 -91 2113 -91 
Q 1303 -91 875 529 
Q 447 1150 447 2328 
Q 447 3434 972 4092 
Q 1497 4750 2381 4750 
Q 2619 4750 2861 4703 
Q 3103 4656 3366 4563 
z
" transform="scale(0.015625)"/>
       </defs>
       <use xlink:href="#DejaVuSans-30"/>
       <use xlink:href="#DejaVuSans-2e" x="63.623047"/>
       <use xlink:href="#DejaVuSans-36" x="95.410156"/>
      </g>
     </g>
    </g>
    <g id="ytick_2">
     <g id="line2d_9">
      <path d="M 374.515234 309.05104 
C 374.515234 295.793087 371.903706 282.664052 366.830107 270.4153 
C 361.756508 258.166549 354.319507 247.03629 344.944719 237.661502 
C 335.569931 228.286714 324.439672 220.849713 312.190921 215.776114 
C 299.94217 210.702515 286.813134 208.090988 273.555181 208.090988 
C 260.297229 208.090988 247.168193 210.702515 234.919442 215.776114 
C 222.670691 220.849713 211.540432 228.286714 202.165644 237.661502 
C 192.790856 247.03629 185.353854 258.166549 180.280255 270.4153 
C 175.206657 282.664052 172.595129 295.793087 172.595129 309.05104 
C 172.595129 322.308992 175.206657 335.438028 180.280255 347.686779 
C 185.353854 359.93553 192.790856 371.065789 202.165644 380.440577 
C 211.540432 389.815366 222.670691 397.252367 234.919442 402.325966 
C 247.168193 407.399565 260.297229 410.011092 273.555181 410.011092 
C 286.813134 410.011092 299.94217 407.399565 312.190921 402.325966 
C 324.439672 397.252367 335.569931 389.815366 344.944719 380.440577 
C 354.319507 371.065789 361.756508 359.93553 366.830107 347.686779 
C 371.903706 335.438028 374.515234 322.308992 374.515234 309.05104 
" clip-path="url(#pe9e839d209)" style="fill: none; stroke: #b0b0b0; stroke-width: 0.8; stroke-linecap: square"/>
     </g>
     <g id="text_9">
      <!-- 0.7 -->
      <g transform="translate(366.830107 268.335613) scale(0.1 -0.1)">
       <defs>
        <path id="DejaVuSans-37" d="M 525 4666 
L 3525 4666 
L 3525 4397 
L 1831 0 
L 1172 0 
L 2766 4134 
L 525 4134 
L 525 4666 
z
" transform="scale(0.015625)"/>
       </defs>
       <use xlink:href="#DejaVuSans-30"/>
       <use xlink:href="#DejaVuSans-2e" x="63.623047"/>
       <use xlink:href="#DejaVuSans-37" x="95.410156"/>
      </g>
     </g>
    </g>
    <g id="ytick_3">
     <g id="line2d_10">
      <path d="M 424.99526 309.05104 
C 424.99526 289.164111 421.077968 269.470557 413.46757 251.097431 
C 405.857172 232.724304 394.70167 216.028916 380.639488 201.966733 
C 366.577306 187.904551 349.881917 176.749049 331.50879 169.138651 
C 313.135664 161.528253 293.44211 157.610961 273.555181 157.610961 
C 253.668252 157.610961 233.974699 161.528253 215.601572 169.138651 
C 197.228446 176.749049 180.533057 187.904551 166.470875 201.966733 
C 152.408693 216.028916 141.253191 232.724304 133.642792 251.097431 
C 126.032394 269.470557 122.115103 289.164111 122.115103 309.05104 
C 122.115103 328.937969 126.032394 348.631522 133.642792 367.004649 
C 141.253191 385.377775 152.408693 402.073164 166.470875 416.135346 
C 180.533057 430.197529 197.228446 441.353031 215.601572 448.963429 
C 233.974699 456.573827 253.668252 460.491118 273.555181 460.491118 
C 293.44211 460.491118 313.135664 456.573827 331.50879 448.963429 
C 349.881917 441.353031 366.577306 430.197529 380.639488 416.135346 
C 394.70167 402.073164 405.857172 385.377775 413.46757 367.004649 
C 421.077968 348.631522 424.99526 328.937969 424.99526 309.05104 
" clip-path="url(#pe9e839d209)" style="fill: none; stroke: #b0b0b0; stroke-width: 0.8; stroke-linecap: square"/>
     </g>
     <g id="text_10">
      <!-- 0.8 -->
      <g transform="translate(413.46757 249.017743) scale(0.1 -0.1)">
       <defs>
        <path id="DejaVuSans-38" d="M 2034 2216 
Q 1584 2216 1326 1975 
Q 1069 1734 1069 1313 
Q 1069 891 1326 650 
Q 1584 409 2034 409 
Q 2484 409 2743 651 
Q 3003 894 3003 1313 
Q 3003 1734 2745 1975 
Q 2488 2216 2034 2216 
z
M 1403 2484 
Q 997 2584 770 2862 
Q 544 3141 544 3541 
Q 544 4100 942 4425 
Q 1341 4750 2034 4750 
Q 2731 4750 3128 4425 
Q 3525 4100 3525 3541 
Q 3525 3141 3298 2862 
Q 3072 2584 2669 2484 
Q 3125 2378 3379 2068 
Q 3634 1759 3634 1313 
Q 3634 634 3220 271 
Q 2806 -91 2034 -91 
Q 1263 -91 848 271 
Q 434 634 434 1313 
Q 434 1759 690 2068 
Q 947 2378 1403 2484 
z
M 1172 3481 
Q 1172 3119 1398 2916 
Q 1625 2713 2034 2713 
Q 2441 2713 2670 2916 
Q 2900 3119 2900 3481 
Q 2900 3844 2670 4047 
Q 2441 4250 2034 4250 
Q 1625 4250 1398 4047 
Q 1172 3844 1172 3481 
z
" transform="scale(0.015625)"/>
       </defs>
       <use xlink:href="#DejaVuSans-30"/>
       <use xlink:href="#DejaVuSans-2e" x="63.623047"/>
       <use xlink:href="#DejaVuSans-38" x="95.410156"/>
      </g>
     </g>
    </g>
    <g id="ytick_4">
     <g id="line2d_11">
      <path d="M 475.475286 309.05104 
C 475.475286 282.535135 470.252231 256.277063 460.105033 231.779561 
C 449.957836 207.282059 435.083833 185.021541 416.334257 166.271965 
C 397.58468 147.522388 375.324162 132.648386 350.82666 122.501188 
C 326.329158 112.35399 300.071087 107.130935 273.555181 107.130935 
C 247.039276 107.130935 220.781205 112.35399 196.283703 122.501188 
C 171.786201 132.648386 149.525683 147.522388 130.776106 166.271965 
C 112.02653 185.021541 97.152527 207.282059 87.00533 231.779561 
C 76.858132 256.277063 71.635077 282.535135 71.635077 309.05104 
C 71.635077 335.566945 76.858132 361.825016 87.00533 386.322519 
C 97.152527 410.820021 112.02653 433.080539 130.776106 451.830115 
C 149.525683 470.579691 171.786201 485.453694 196.283703 495.600892 
C 220.781205 505.748089 247.039276 510.971144 273.555181 510.971144 
C 300.071087 510.971144 326.329158 505.748089 350.82666 495.600892 
C 375.324162 485.453694 397.58468 470.579691 416.334257 451.830115 
C 435.083833 433.080539 449.957836 410.820021 460.105033 386.322519 
C 470.252231 361.825016 475.475286 335.566945 475.475286 309.05104 
" clip-path="url(#pe9e839d209)" style="fill: none; stroke: #b0b0b0; stroke-width: 0.8; stroke-linecap: square"/>
     </g>
     <g id="text_11">
      <!-- 0.9 -->
      <g transform="translate(460.105033 229.699874) scale(0.1 -0.1)">
       <defs>
        <path id="DejaVuSans-39" d="M 703 97 
L 703 672 
Q 941 559 1184 500 
Q 1428 441 1663 441 
Q 2288 441 2617 861 
Q 2947 1281 2994 2138 
Q 2813 1869 2534 1725 
Q 2256 1581 1919 1581 
Q 1219 1581 811 2004 
Q 403 2428 403 3163 
Q 403 3881 828 4315 
Q 1253 4750 1959 4750 
Q 2769 4750 3195 4129 
Q 3622 3509 3622 2328 
Q 3622 1225 3098 567 
Q 2575 -91 1691 -91 
Q 1453 -91 1209 -44 
Q 966 3 703 97 
z
M 1959 2075 
Q 2384 2075 2632 2365 
Q 2881 2656 2881 3163 
Q 2881 3666 2632 3958 
Q 2384 4250 1959 4250 
Q 1534 4250 1286 3958 
Q 1038 3666 1038 3163 
Q 1038 2656 1286 2365 
Q 1534 2075 1959 2075 
z
" transform="scale(0.015625)"/>
       </defs>
       <use xlink:href="#DejaVuSans-30"/>
       <use xlink:href="#DejaVuSans-2e" x="63.623047"/>
       <use xlink:href="#DejaVuSans-39" x="95.410156"/>
      </g>
     </g>
    </g>
    <g id="ytick_5">
     <g id="line2d_12">
      <path d="M 525.955312 309.05104 
C 525.955312 275.906158 519.426493 243.083569 506.742496 212.461691 
C 494.058499 181.839814 475.465996 154.014166 452.029025 130.577196 
C 428.592055 107.140225 400.766407 88.547722 370.14453 75.863725 
C 339.522652 63.179728 306.700063 56.650909 273.555181 56.650909 
C 240.4103 56.650909 207.587711 63.179728 176.965833 75.863725 
C 146.343955 88.547722 118.518308 107.140225 95.081337 130.577196 
C 71.644367 154.014166 53.051864 181.839814 40.367867 212.461691 
C 27.68387 243.083569 21.155051 275.906158 21.155051 309.05104 
C 21.155051 342.195921 27.68387 375.018511 40.367867 405.640388 
C 53.051864 436.262266 71.644367 464.087913 95.081337 487.524884 
C 118.518308 510.961854 146.343955 529.554358 176.965833 542.238355 
C 207.587711 554.922352 240.4103 561.451171 273.555181 561.451171 
C 306.700063 561.451171 339.522652 554.922352 370.14453 542.238355 
C 400.766407 529.554358 428.592055 510.961854 452.029025 487.524884 
C 475.465996 464.087913 494.058499 436.262266 506.742496 405.640388 
C 519.426493 375.018511 525.955312 342.195921 525.955312 309.05104 
" clip-path="url(#pe9e839d209)" style="fill: none; stroke: #b0b0b0; stroke-width: 0.8; stroke-linecap: square"/>
     </g>
     <g id="text_12">
      <!-- 1.0 -->
      <g transform="translate(506.742496 210.382004) scale(0.1 -0.1)">
       <use xlink:href="#DejaVuSans-31"/>
       <use xlink:href="#DejaVuSans-2e" x="63.623047"/>
       <use xlink:href="#DejaVuSans-30" x="95.410156"/>
      </g>
     </g>
    </g>
   </g>
   <g id="line2d_13">
    <path d="M 510.125424 309.05104 
L 418.877863 126.822161 
L 223.028803 87.680511 
L 74.084246 212.9909 
L 49.689036 416.859293 
L 221.026908 539.192441 
L 424.60213 498.457923 
L 510.125424 309.05104 
" clip-path="url(#pe9e839d209)" style="fill: none; stroke: #0000ff; stroke-width: 2; stroke-linecap: square"/>
   </g>
   <g id="line2d_14">
    <path d="M 518.734846 309.05104 
L 407.102353 141.588184 
L 228.719807 112.61443 
L 72.909044 212.424953 
L 53.356364 415.093201 
L 221.610579 536.635212 
L 412.380581 483.132585 
L 518.734846 309.05104 
" clip-path="url(#pe9e839d209)" style="fill: none; stroke: #ff0000; stroke-width: 2; stroke-linecap: square"/>
   </g>
   <g id="line2d_15">
    <path d="M 516.868829 309.05104 
L 421.826135 123.125144 
L 221.786114 82.235935 
L 73.726046 212.8184 
L 49.999897 416.709591 
L 221.110739 538.825154 
L 416.828776 488.710445 
L 516.868829 309.05104 
" clip-path="url(#pe9e839d209)" style="fill: none; stroke: #008000; stroke-width: 2; stroke-linecap: square"/>
   </g>
   <g id="patch_6">
    <path d="M 525.955312 309.05104 
C 525.955312 275.906158 519.426493 243.083569 506.742496 212.461691 
C 494.058499 181.839814 475.465996 154.014166 452.029025 130.577196 
C 428.592055 107.140225 400.766407 88.547722 370.14453 75.863725 
C 339.522652 63.179728 306.700063 56.650909 273.555181 56.650909 
C 240.4103 56.650909 207.587711 63.179728 176.965833 75.863725 
C 146.343955 88.547722 118.518308 107.140225 95.081337 130.577196 
C 71.644367 154.014166 53.051864 181.839814 40.367867 212.461691 
C 27.68387 243.083569 21.155051 275.906158 21.155051 309.05104 
C 21.155051 342.195921 27.68387 375.018511 40.367867 405.640388 
C 53.051864 436.262266 71.644367 464.087913 95.081337 487.524884 
C 118.518308 510.961854 146.343955 529.554358 176.965833 542.238355 
C 207.587711 554.922352 240.4103 561.451171 273.555181 561.451171 
C 306.700063 561.451171 339.522652 554.922352 370.14453 542.238355 
C 400.766407 529.554358 428.592055 510.961854 452.029025 487.524884 
C 475.465996 464.087913 494.058499 436.262266 506.742496 405.640388 
C 519.426493 375.018511 525.955312 342.195921 525.955312 309.05104 
" style="fill: none; stroke: #000000; stroke-width: 0.8; stroke-linejoin: miter; stroke-linecap: square"/>
   </g>
   <g id="text_13">
    <!-- Upper KPs -->
    <g style="fill: #00008b" transform="translate(232.691431 36.650909) scale(0.16 -0.16)">
     <defs>
      <path id="DejaVuSans-55" d="M 556 4666 
L 1191 4666 
L 1191 1831 
Q 1191 1081 1462 751 
Q 1734 422 2344 422 
Q 2950 422 3222 751 
Q 3494 1081 3494 1831 
L 3494 4666 
L 4128 4666 
L 4128 1753 
Q 4128 841 3676 375 
Q 3225 -91 2344 -91 
Q 1459 -91 1007 375 
Q 556 841 556 1753 
L 556 4666 
z
" transform="scale(0.015625)"/>
      <path id="DejaVuSans-70" d="M 1159 525 
L 1159 -1331 
L 581 -1331 
L 581 3500 
L 1159 3500 
L 1159 2969 
Q 1341 3281 1617 3432 
Q 1894 3584 2278 3584 
Q 2916 3584 3314 3078 
Q 3713 2572 3713 1747 
Q 3713 922 3314 415 
Q 2916 -91 2278 -91 
Q 1894 -91 1617 61 
Q 1341 213 1159 525 
z
M 3116 1747 
Q 3116 2381 2855 2742 
Q 2594 3103 2138 3103 
Q 1681 3103 1420 2742 
Q 1159 2381 1159 1747 
Q 1159 1113 1420 752 
Q 1681 391 2138 391 
Q 2594 391 2855 752 
Q 3116 1113 3116 1747 
z
" transform="scale(0.015625)"/>
      <path id="DejaVuSans-72" d="M 2631 2963 
Q 2534 3019 2420 3045 
Q 2306 3072 2169 3072 
Q 1681 3072 1420 2755 
Q 1159 2438 1159 1844 
L 1159 0 
L 581 0 
L 581 3500 
L 1159 3500 
L 1159 2956 
Q 1341 3275 1631 3429 
Q 1922 3584 2338 3584 
Q 2397 3584 2469 3576 
Q 2541 3569 2628 3553 
L 2631 2963 
z
" transform="scale(0.015625)"/>
      <path id="DejaVuSans-20" transform="scale(0.015625)"/>
      <path id="DejaVuSans-4b" d="M 628 4666 
L 1259 4666 
L 1259 2694 
L 3353 4666 
L 4166 4666 
L 1850 2491 
L 4331 0 
L 3500 0 
L 1259 2247 
L 1259 0 
L 628 0 
L 628 4666 
z
" transform="scale(0.015625)"/>
      <path id="DejaVuSans-50" d="M 1259 4147 
L 1259 2394 
L 2053 2394 
Q 2494 2394 2734 2622 
Q 2975 2850 2975 3272 
Q 2975 3691 2734 3919 
Q 2494 4147 2053 4147 
L 1259 4147 
z
M 628 4666 
L 2053 4666 
Q 2838 4666 3239 4311 
Q 3641 3956 3641 3272 
Q 3641 2581 3239 2228 
Q 2838 1875 2053 1875 
L 1259 1875 
L 1259 0 
L 628 0 
L 628 4666 
z
" transform="scale(0.015625)"/>
     </defs>
     <use xlink:href="#DejaVuSans-55"/>
     <use xlink:href="#DejaVuSans-70" x="73.193359"/>
     <use xlink:href="#DejaVuSans-70" x="136.669922"/>
     <use xlink:href="#DejaVuSans-65" x="200.146484"/>
     <use xlink:href="#DejaVuSans-72" x="261.669922"/>
     <use xlink:href="#DejaVuSans-20" x="302.783203"/>
     <use xlink:href="#DejaVuSans-4b" x="334.570312"/>
     <use xlink:href="#DejaVuSans-50" x="400.146484"/>
     <use xlink:href="#DejaVuSans-73" x="458.699219"/>
    </g>
   </g>
  </g>
  <g id="axes_2">
   <g id="patch_7">
    <path d="M 1097.214197 309.05104 
C 1097.214197 275.906158 1090.685378 243.083569 1078.001381 212.461691 
C 1065.317384 181.839814 1046.72488 154.014166 1023.28791 130.577196 
C 999.850939 107.140225 972.025292 88.547722 941.403414 75.863725 
C 910.781537 63.179728 877.958947 56.650909 844.814066 56.650909 
C 811.669184 56.650909 778.846595 63.179728 748.224717 75.863725 
C 717.60284 88.547722 689.777192 107.140225 666.340222 130.577196 
C 642.903251 154.014166 624.310748 181.839814 611.626751 212.461691 
C 598.942754 243.083569 592.413935 275.906158 592.413935 309.05104 
C 592.413935 342.195921 598.942754 375.018511 611.626751 405.640388 
C 624.310748 436.262266 642.903251 464.087913 666.340222 487.524884 
C 689.777192 510.961854 717.60284 529.554358 748.224717 542.238355 
C 778.846595 554.922352 811.669184 561.451171 844.814066 561.451171 
C 877.958947 561.451171 910.781537 554.922352 941.403414 542.238355 
C 972.025292 529.554358 999.850939 510.961854 1023.28791 487.524884 
C 1046.72488 464.087913 1065.317384 436.262266 1078.001381 405.640388 
C 1090.685378 375.018511 1097.214197 342.195921 1097.214197 309.05104 
M 844.814066 309.05104 
C 844.814066 309.05104 844.814066 309.05104 844.814066 309.05104 
C 844.814066 309.05104 844.814066 309.05104 844.814066 309.05104 
C 844.814066 309.05104 844.814066 309.05104 844.814066 309.05104 
C 844.814066 309.05104 844.814066 309.05104 844.814066 309.05104 
C 844.814066 309.05104 844.814066 309.05104 844.814066 309.05104 
C 844.814066 309.05104 844.814066 309.05104 844.814066 309.05104 
C 844.814066 309.05104 844.814066 309.05104 844.814066 309.05104 
C 844.814066 309.05104 844.814066 309.05104 844.814066 309.05104 
C 844.814066 309.05104 844.814066 309.05104 844.814066 309.05104 
C 844.814066 309.05104 844.814066 309.05104 844.814066 309.05104 
C 844.814066 309.05104 844.814066 309.05104 844.814066 309.05104 
C 844.814066 309.05104 844.814066 309.05104 844.814066 309.05104 
C 844.814066 309.05104 844.814066 309.05104 844.814066 309.05104 
C 844.814066 309.05104 844.814066 309.05104 844.814066 309.05104 
C 844.814066 309.05104 844.814066 309.05104 844.814066 309.05104 
C 844.814066 309.05104 844.814066 309.05104 844.814066 309.05104 
z
" style="fill: #ffffff"/>
   </g>
   <g id="patch_8">
    <path d="M 1084.413817 309.05104 
L 1058.168066 197.074222 
L 934.04672 179.775222 
L 873.072027 76.325789 
L 762.323521 91.541349 
L 835.351925 300.668315 
L 610.904895 251.397607 
L 617.228977 365.145726 
L 672.887991 461.364251 
L 767.995853 511.60402 
L 871.922479 532.308913 
L 964.66949 482.691599 
L 998.844565 389.892482 
z
" clip-path="url(#p9fa4f28ace)" style="fill: #0000ff; opacity: 0.25; stroke: #0000ff; stroke-linejoin: miter"/>
   </g>
   <g id="patch_9">
    <path d="M 1076.400989 309.05104 
L 1054.373082 199.065984 
L 949.412523 157.514013 
L 872.35827 82.204107 
L 761.240633 88.686007 
L 763.670953 237.164515 
L 638.196678 258.124428 
L 630.29474 361.925305 
L 677.673345 457.124797 
L 776.163686 490.067213 
L 871.14111 525.873757 
L 969.110258 489.125162 
L 1002.321085 391.717101 
z
" clip-path="url(#p9fa4f28ace)" style="fill: #ff0000; opacity: 0.3; stroke: #ff0000; stroke-linejoin: miter"/>
   </g>
   <g id="patch_10">
    <path d="M 1085.287272 309.05104 
L 1057.863546 197.234047 
L 955.429515 148.796895 
L 873.440021 73.295092 
L 761.920518 90.478718 
L 837.798402 302.835704 
L 609.793361 251.123639 
L 617.321199 365.122996 
L 674.342648 460.075537 
L 768.976152 509.019183 
L 872.302434 535.438124 
L 971.020945 491.893271 
L 1005.798309 393.542089 
z
" clip-path="url(#p9fa4f28ace)" style="fill: #008000; opacity: 0.35; stroke: #008000; stroke-linejoin: miter"/>
   </g>
   <g id="matplotlib.axis_3">
    <g id="xtick_8">
     <g id="line2d_16">
      <path d="M 844.814066 309.05104 
L 1097.214197 309.05104 
" clip-path="url(#p9fa4f28ace)" style="fill: none; stroke: #b0b0b0; stroke-width: 0.8; stroke-linecap: square"/>
     </g>
     <g id="text_14">
      <!-- L_Shoulder -->
      <g transform="translate(1083.661853 316.649477) scale(0.1 -0.1)">
       <defs>
        <path id="DejaVuSans-4c" d="M 628 4666 
L 1259 4666 
L 1259 531 
L 3531 531 
L 3531 0 
L 628 0 
L 628 4666 
z
" transform="scale(0.015625)"/>
        <path id="DejaVuSans-5f" d="M 3263 -1063 
L 3263 -1509 
L -63 -1509 
L -63 -1063 
L 3263 -1063 
z
" transform="scale(0.015625)"/>
        <path id="DejaVuSans-53" d="M 3425 4513 
L 3425 3897 
Q 3066 4069 2747 4153 
Q 2428 4238 2131 4238 
Q 1616 4238 1336 4038 
Q 1056 3838 1056 3469 
Q 1056 3159 1242 3001 
Q 1428 2844 1947 2747 
L 2328 2669 
Q 3034 2534 3370 2195 
Q 3706 1856 3706 1288 
Q 3706 609 3251 259 
Q 2797 -91 1919 -91 
Q 1588 -91 1214 -16 
Q 841 59 441 206 
L 441 856 
Q 825 641 1194 531 
Q 1563 422 1919 422 
Q 2459 422 2753 634 
Q 3047 847 3047 1241 
Q 3047 1584 2836 1778 
Q 2625 1972 2144 2069 
L 1759 2144 
Q 1053 2284 737 2584 
Q 422 2884 422 3419 
Q 422 4038 858 4394 
Q 1294 4750 2059 4750 
Q 2388 4750 2728 4690 
Q 3069 4631 3425 4513 
z
" transform="scale(0.015625)"/>
        <path id="DejaVuSans-68" d="M 3513 2113 
L 3513 0 
L 2938 0 
L 2938 2094 
Q 2938 2591 2744 2837 
Q 2550 3084 2163 3084 
Q 1697 3084 1428 2787 
Q 1159 2491 1159 1978 
L 1159 0 
L 581 0 
L 581 4863 
L 1159 4863 
L 1159 2956 
Q 1366 3272 1645 3428 
Q 1925 3584 2291 3584 
Q 2894 3584 3203 3211 
Q 3513 2838 3513 2113 
z
" transform="scale(0.015625)"/>
        <path id="DejaVuSans-75" d="M 544 1381 
L 544 3500 
L 1119 3500 
L 1119 1403 
Q 1119 906 1312 657 
Q 1506 409 1894 409 
Q 2359 409 2629 706 
Q 2900 1003 2900 1516 
L 2900 3500 
L 3475 3500 
L 3475 0 
L 2900 0 
L 2900 538 
Q 2691 219 2414 64 
Q 2138 -91 1772 -91 
Q 1169 -91 856 284 
Q 544 659 544 1381 
z
M 1991 3584 
L 1991 3584 
z
" transform="scale(0.015625)"/>
        <path id="DejaVuSans-6c" d="M 603 4863 
L 1178 4863 
L 1178 0 
L 603 0 
L 603 4863 
z
" transform="scale(0.015625)"/>
       </defs>
       <use xlink:href="#DejaVuSans-4c"/>
       <use xlink:href="#DejaVuSans-5f" x="55.712891"/>
       <use xlink:href="#DejaVuSans-53" x="105.712891"/>
       <use xlink:href="#DejaVuSans-68" x="169.189453"/>
       <use xlink:href="#DejaVuSans-6f" x="232.568359"/>
       <use xlink:href="#DejaVuSans-75" x="293.75"/>
       <use xlink:href="#DejaVuSans-6c" x="357.128906"/>
       <use xlink:href="#DejaVuSans-64" x="384.912109"/>
       <use xlink:href="#DejaVuSans-65" x="448.388672"/>
       <use xlink:href="#DejaVuSans-72" x="509.912109"/>
      </g>
     </g>
    </g>
    <g id="xtick_9">
     <g id="line2d_17">
      <path d="M 844.814066 309.05104 
L 1068.303282 191.75485 
" clip-path="url(#p9fa4f28ace)" style="fill: none; stroke: #b0b0b0; stroke-width: 0.8; stroke-linecap: square"/>
     </g>
     <g id="text_15">
      <!-- L_Elbow -->
      <g transform="translate(1060.542636 192.847164) scale(0.1 -0.1)">
       <defs>
        <path id="DejaVuSans-45" d="M 628 4666 
L 3578 4666 
L 3578 4134 
L 1259 4134 
L 1259 2753 
L 3481 2753 
L 3481 2222 
L 1259 2222 
L 1259 531 
L 3634 531 
L 3634 0 
L 628 0 
L 628 4666 
z
" transform="scale(0.015625)"/>
        <path id="DejaVuSans-62" d="M 3116 1747 
Q 3116 2381 2855 2742 
Q 2594 3103 2138 3103 
Q 1681 3103 1420 2742 
Q 1159 2381 1159 1747 
Q 1159 1113 1420 752 
Q 1681 391 2138 391 
Q 2594 391 2855 752 
Q 3116 1113 3116 1747 
z
M 1159 2969 
Q 1341 3281 1617 3432 
Q 1894 3584 2278 3584 
Q 2916 3584 3314 3078 
Q 3713 2572 3713 1747 
Q 3713 922 3314 415 
Q 2916 -91 2278 -91 
Q 1894 -91 1617 61 
Q 1341 213 1159 525 
L 1159 0 
L 581 0 
L 581 4863 
L 1159 4863 
L 1159 2969 
z
" transform="scale(0.015625)"/>
        <path id="DejaVuSans-77" d="M 269 3500 
L 844 3500 
L 1563 769 
L 2278 3500 
L 2956 3500 
L 3675 769 
L 4391 3500 
L 4966 3500 
L 4050 0 
L 3372 0 
L 2619 2869 
L 1863 0 
L 1184 0 
L 269 3500 
z
" transform="scale(0.015625)"/>
       </defs>
       <use xlink:href="#DejaVuSans-4c"/>
       <use xlink:href="#DejaVuSans-5f" x="55.712891"/>
       <use xlink:href="#DejaVuSans-45" x="105.712891"/>
       <use xlink:href="#DejaVuSans-6c" x="168.896484"/>
       <use xlink:href="#DejaVuSans-62" x="196.679688"/>
       <use xlink:href="#DejaVuSans-6f" x="260.15625"/>
       <use xlink:href="#DejaVuSans-77" x="321.337891"/>
      </g>
     </g>
    </g>
    <g id="xtick_10">
     <g id="line2d_18">
      <path d="M 844.814066 309.05104 
L 988.193682 101.329804 
" clip-path="url(#p9fa4f28ace)" style="fill: none; stroke: #b0b0b0; stroke-width: 0.8; stroke-linecap: square"/>
     </g>
     <g id="text_16">
      <!-- L_F_Paw -->
      <g transform="translate(975.541901 97.128343) scale(0.1 -0.1)">
       <defs>
        <path id="DejaVuSans-46" d="M 628 4666 
L 3309 4666 
L 3309 4134 
L 1259 4134 
L 1259 2759 
L 3109 2759 
L 3109 2228 
L 1259 2228 
L 1259 0 
L 628 0 
L 628 4666 
z
" transform="scale(0.015625)"/>
       </defs>
       <use xlink:href="#DejaVuSans-4c"/>
       <use xlink:href="#DejaVuSans-5f" x="55.712891"/>
       <use xlink:href="#DejaVuSans-46" x="105.712891"/>
       <use xlink:href="#DejaVuSans-5f" x="163.232422"/>
       <use xlink:href="#DejaVuSans-50" x="213.232422"/>
       <use xlink:href="#DejaVuSans-61" x="269.035156"/>
       <use xlink:href="#DejaVuSans-77" x="330.314453"/>
      </g>
     </g>
    </g>
    <g id="xtick_11">
     <g id="line2d_19">
      <path d="M 844.814066 309.05104 
L 875.23754 58.49119 
" clip-path="url(#p9fa4f28ace)" style="fill: none; stroke: #b0b0b0; stroke-width: 0.8; stroke-linecap: square"/>
     </g>
     <g id="text_17">
      <!-- R_Shoulder -->
      <g transform="translate(848.684428 52.191703) scale(0.1 -0.1)">
       <defs>
        <path id="DejaVuSans-52" d="M 2841 2188 
Q 3044 2119 3236 1894 
Q 3428 1669 3622 1275 
L 4263 0 
L 3584 0 
L 2988 1197 
Q 2756 1666 2539 1819 
Q 2322 1972 1947 1972 
L 1259 1972 
L 1259 0 
L 628 0 
L 628 4666 
L 2053 4666 
Q 2853 4666 3247 4331 
Q 3641 3997 3641 3322 
Q 3641 2881 3436 2590 
Q 3231 2300 2841 2188 
z
M 1259 4147 
L 1259 2491 
L 2053 2491 
Q 2509 2491 2742 2702 
Q 2975 2913 2975 3322 
Q 2975 3731 2742 3939 
Q 2509 4147 2053 4147 
L 1259 4147 
z
" transform="scale(0.015625)"/>
       </defs>
       <use xlink:href="#DejaVuSans-52"/>
       <use xlink:href="#DejaVuSans-5f" x="69.482422"/>
       <use xlink:href="#DejaVuSans-53" x="119.482422"/>
       <use xlink:href="#DejaVuSans-68" x="182.958984"/>
       <use xlink:href="#DejaVuSans-6f" x="246.337891"/>
       <use xlink:href="#DejaVuSans-75" x="307.519531"/>
       <use xlink:href="#DejaVuSans-6c" x="370.898438"/>
       <use xlink:href="#DejaVuSans-64" x="398.681641"/>
       <use xlink:href="#DejaVuSans-65" x="462.158203"/>
       <use xlink:href="#DejaVuSans-72" x="523.681641"/>
      </g>
     </g>
    </g>
    <g id="xtick_12">
     <g id="line2d_20">
      <path d="M 844.814066 309.05104 
L 755.311746 73.052818 
" clip-path="url(#p9fa4f28ace)" style="fill: none; stroke: #b0b0b0; stroke-width: 0.8; stroke-linecap: square"/>
     </g>
     <g id="text_18">
      <!-- R_Elbow -->
      <g transform="translate(729.501965 67.561028) scale(0.1 -0.1)">
       <use xlink:href="#DejaVuSans-52"/>
       <use xlink:href="#DejaVuSans-5f" x="69.482422"/>
       <use xlink:href="#DejaVuSans-45" x="119.482422"/>
       <use xlink:href="#DejaVuSans-6c" x="182.666016"/>
       <use xlink:href="#DejaVuSans-62" x="210.449219"/>
       <use xlink:href="#DejaVuSans-6f" x="273.925781"/>
       <use xlink:href="#DejaVuSans-77" x="335.107422"/>
      </g>
     </g>
    </g>
    <g id="xtick_13">
     <g id="line2d_21">
      <path d="M 844.814066 309.05104 
L 655.889855 141.678794 
" clip-path="url(#p9fa4f28ace)" style="fill: none; stroke: #b0b0b0; stroke-width: 0.8; stroke-linecap: square"/>
     </g>
     <g id="text_19">
      <!-- R_F_Paw -->
      <g transform="translate(624.117736 139.715389) scale(0.1 -0.1)">
       <use xlink:href="#DejaVuSans-52"/>
       <use xlink:href="#DejaVuSans-5f" x="69.482422"/>
       <use xlink:href="#DejaVuSans-46" x="119.482422"/>
       <use xlink:href="#DejaVuSans-5f" x="177.001953"/>
       <use xlink:href="#DejaVuSans-50" x="227.001953"/>
       <use xlink:href="#DejaVuSans-61" x="282.804688"/>
       <use xlink:href="#DejaVuSans-77" x="344.083984"/>
      </g>
     </g>
    </g>
    <g id="xtick_14">
     <g id="line2d_22">
      <path d="M 844.814066 309.05104 
L 599.748224 248.647735 
" clip-path="url(#p9fa4f28ace)" style="fill: none; stroke: #b0b0b0; stroke-width: 0.8; stroke-linecap: square"/>
     </g>
     <g id="text_20">
      <!-- Belly -->
      <g transform="translate(573.910507 252.895753) scale(0.1 -0.1)">
       <defs>
        <path id="DejaVuSans-79" d="M 2059 -325 
Q 1816 -950 1584 -1140 
Q 1353 -1331 966 -1331 
L 506 -1331 
L 506 -850 
L 844 -850 
Q 1081 -850 1212 -737 
Q 1344 -625 1503 -206 
L 1606 56 
L 191 3500 
L 800 3500 
L 1894 763 
L 2988 3500 
L 3597 3500 
L 2059 -325 
z
" transform="scale(0.015625)"/>
       </defs>
       <use xlink:href="#DejaVuSans-42"/>
       <use xlink:href="#DejaVuSans-65" x="68.603516"/>
       <use xlink:href="#DejaVuSans-6c" x="130.126953"/>
       <use xlink:href="#DejaVuSans-6c" x="157.910156"/>
       <use xlink:href="#DejaVuSans-79" x="185.693359"/>
      </g>
     </g>
    </g>
    <g id="xtick_15">
     <g id="line2d_23">
      <path d="M 844.814066 309.05104 
L 599.748224 369.454345 
" clip-path="url(#p9fa4f28ace)" style="fill: none; stroke: #b0b0b0; stroke-width: 0.8; stroke-linecap: square"/>
     </g>
     <g id="text_21">
      <!-- L_Hip -->
      <g transform="translate(572.545664 380.403202) scale(0.1 -0.1)">
       <defs>
        <path id="DejaVuSans-69" d="M 603 3500 
L 1178 3500 
L 1178 0 
L 603 0 
L 603 3500 
z
M 603 4863 
L 1178 4863 
L 1178 4134 
L 603 4134 
L 603 4863 
z
" transform="scale(0.015625)"/>
       </defs>
       <use xlink:href="#DejaVuSans-4c"/>
       <use xlink:href="#DejaVuSans-5f" x="55.712891"/>
       <use xlink:href="#DejaVuSans-48" x="105.712891"/>
       <use xlink:href="#DejaVuSans-69" x="180.908203"/>
       <use xlink:href="#DejaVuSans-70" x="208.691406"/>
      </g>
     </g>
    </g>
    <g id="xtick_16">
     <g id="line2d_24">
      <path d="M 844.814066 309.05104 
L 655.889855 476.423285 
" clip-path="url(#p9fa4f28ace)" style="fill: none; stroke: #b0b0b0; stroke-width: 0.8; stroke-linecap: square"/>
     </g>
     <g id="text_22">
      <!-- L_Knee -->
      <g transform="translate(627.523986 493.027315) scale(0.1 -0.1)">
       <defs>
        <path id="DejaVuSans-6e" d="M 3513 2113 
L 3513 0 
L 2938 0 
L 2938 2094 
Q 2938 2591 2744 2837 
Q 2550 3084 2163 3084 
Q 1697 3084 1428 2787 
Q 1159 2491 1159 1978 
L 1159 0 
L 581 0 
L 581 3500 
L 1159 3500 
L 1159 2956 
Q 1366 3272 1645 3428 
Q 1925 3584 2291 3584 
Q 2894 3584 3203 3211 
Q 3513 2838 3513 2113 
z
" transform="scale(0.015625)"/>
       </defs>
       <use xlink:href="#DejaVuSans-4c"/>
       <use xlink:href="#DejaVuSans-5f" x="55.712891"/>
       <use xlink:href="#DejaVuSans-4b" x="105.712891"/>
       <use xlink:href="#DejaVuSans-6e" x="171.289062"/>
       <use xlink:href="#DejaVuSans-65" x="234.667969"/>
       <use xlink:href="#DejaVuSans-65" x="296.191406"/>
      </g>
     </g>
    </g>
    <g id="xtick_17">
     <g id="line2d_25">
      <path d="M 844.814066 309.05104 
L 755.311746 545.049262 
" clip-path="url(#p9fa4f28ace)" style="fill: none; stroke: #b0b0b0; stroke-width: 0.8; stroke-linecap: square"/>
     </g>
     <g id="text_23">
      <!-- L_H_Paw -->
      <g transform="translate(728.858215 565.459802) scale(0.1 -0.1)">
       <use xlink:href="#DejaVuSans-4c"/>
       <use xlink:href="#DejaVuSans-5f" x="55.712891"/>
       <use xlink:href="#DejaVuSans-48" x="105.712891"/>
       <use xlink:href="#DejaVuSans-5f" x="180.908203"/>
       <use xlink:href="#DejaVuSans-50" x="230.908203"/>
       <use xlink:href="#DejaVuSans-61" x="286.710938"/>
       <use xlink:href="#DejaVuSans-77" x="347.990234"/>
      </g>
     </g>
    </g>
    <g id="xtick_18">
     <g id="line2d_26">
      <path d="M 844.814066 309.05104 
L 875.23754 559.610889 
" clip-path="url(#p9fa4f28ace)" style="fill: none; stroke: #b0b0b0; stroke-width: 0.8; stroke-linecap: square"/>
     </g>
     <g id="text_24">
      <!-- R_Hip -->
      <g transform="translate(862.627397 581.107251) scale(0.1 -0.1)">
       <use xlink:href="#DejaVuSans-52"/>
       <use xlink:href="#DejaVuSans-5f" x="69.482422"/>
       <use xlink:href="#DejaVuSans-48" x="119.482422"/>
       <use xlink:href="#DejaVuSans-69" x="194.677734"/>
       <use xlink:href="#DejaVuSans-70" x="222.460938"/>
      </g>
     </g>
    </g>
    <g id="xtick_19">
     <g id="line2d_27">
      <path d="M 844.814066 309.05104 
L 988.193682 516.772275 
" clip-path="url(#p9fa4f28ace)" style="fill: none; stroke: #b0b0b0; stroke-width: 0.8; stroke-linecap: square"/>
     </g>
     <g id="text_25">
      <!-- R_Knee -->
      <g transform="translate(977.571589 535.614362) scale(0.1 -0.1)">
       <use xlink:href="#DejaVuSans-52"/>
       <use xlink:href="#DejaVuSans-5f" x="69.482422"/>
       <use xlink:href="#DejaVuSans-4b" x="119.482422"/>
       <use xlink:href="#DejaVuSans-6e" x="185.058594"/>
       <use xlink:href="#DejaVuSans-65" x="248.4375"/>
       <use xlink:href="#DejaVuSans-65" x="309.960938"/>
      </g>
     </g>
    </g>
    <g id="xtick_20">
     <g id="line2d_28">
      <path d="M 844.814066 309.05104 
L 1068.303282 426.347229 
" clip-path="url(#p9fa4f28ace)" style="fill: none; stroke: #b0b0b0; stroke-width: 0.8; stroke-linecap: square"/>
     </g>
     <g id="text_26">
      <!-- R_H_Paw -->
      <g transform="translate(1058.522323 440.173666) scale(0.1 -0.1)">
       <use xlink:href="#DejaVuSans-52"/>
       <use xlink:href="#DejaVuSans-5f" x="69.482422"/>
       <use xlink:href="#DejaVuSans-48" x="119.482422"/>
       <use xlink:href="#DejaVuSans-5f" x="194.677734"/>
       <use xlink:href="#DejaVuSans-50" x="244.677734"/>
       <use xlink:href="#DejaVuSans-61" x="300.480469"/>
       <use xlink:href="#DejaVuSans-77" x="361.759766"/>
      </g>
     </g>
    </g>
   </g>
   <g id="matplotlib.axis_4">
    <g id="ytick_6">
     <g id="line2d_29">
      <path d="M 895.294092 309.05104 
C 895.294092 302.422064 893.988328 295.857546 891.451529 289.73317 
C 888.914729 283.608795 885.196229 278.043665 880.508835 273.356271 
C 875.821441 268.668877 870.256311 264.950376 864.131935 262.413577 
C 858.00756 259.876777 851.443042 258.571014 844.814066 258.571014 
C 838.18509 258.571014 831.620572 259.876777 825.496196 262.413577 
C 819.371821 264.950376 813.806691 268.668877 809.119297 273.356271 
C 804.431903 278.043665 800.713402 283.608795 798.176603 289.73317 
C 795.639803 295.857546 794.33404 302.422064 794.33404 309.05104 
C 794.33404 315.680016 795.639803 322.244534 798.176603 328.36891 
C 800.713402 334.493285 804.431903 340.058415 809.119297 344.745809 
C 813.806691 349.433203 819.371821 353.151703 825.496196 355.688503 
C 831.620572 358.225302 838.18509 359.531066 844.814066 359.531066 
C 851.443042 359.531066 858.00756 358.225302 864.131935 355.688503 
C 870.256311 353.151703 875.821441 349.433203 880.508835 344.745809 
C 885.196229 340.058415 888.914729 334.493285 891.451529 328.36891 
C 893.988328 322.244534 895.294092 315.680016 895.294092 309.05104 
" clip-path="url(#p9fa4f28ace)" style="fill: none; stroke: #b0b0b0; stroke-width: 0.8; stroke-linecap: square"/>
     </g>
     <g id="text_27">
      <!-- 0.6 -->
      <g transform="translate(891.451529 287.653483) scale(0.1 -0.1)">
       <use xlink:href="#DejaVuSans-30"/>
       <use xlink:href="#DejaVuSans-2e" x="63.623047"/>
       <use xlink:href="#DejaVuSans-36" x="95.410156"/>
      </g>
     </g>
    </g>
    <g id="ytick_7">
     <g id="line2d_30">
      <path d="M 945.774118 309.05104 
C 945.774118 295.793087 943.162591 282.664052 938.088992 270.4153 
C 933.015393 258.166549 925.578392 247.03629 916.203603 237.661502 
C 906.828815 228.286714 895.698556 220.849713 883.449805 215.776114 
C 871.201054 210.702515 858.072018 208.090988 844.814066 208.090988 
C 831.556113 208.090988 818.427077 210.702515 806.178326 215.776114 
C 793.929575 220.849713 782.799316 228.286714 773.424528 237.661502 
C 764.04974 247.03629 756.612739 258.166549 751.53914 270.4153 
C 746.465541 282.664052 743.854014 295.793087 743.854014 309.05104 
C 743.854014 322.308992 746.465541 335.438028 751.53914 347.686779 
C 756.612739 359.93553 764.04974 371.065789 773.424528 380.440577 
C 782.799316 389.815366 793.929575 397.252367 806.178326 402.325966 
C 818.427077 407.399565 831.556113 410.011092 844.814066 410.011092 
C 858.072018 410.011092 871.201054 407.399565 883.449805 402.325966 
C 895.698556 397.252367 906.828815 389.815366 916.203603 380.440577 
C 925.578392 371.065789 933.015393 359.93553 938.088992 347.686779 
C 943.162591 335.438028 945.774118 322.308992 945.774118 309.05104 
" clip-path="url(#p9fa4f28ace)" style="fill: none; stroke: #b0b0b0; stroke-width: 0.8; stroke-linecap: square"/>
     </g>
     <g id="text_28">
      <!-- 0.7 -->
      <g transform="translate(938.088992 268.335613) scale(0.1 -0.1)">
       <use xlink:href="#DejaVuSans-30"/>
       <use xlink:href="#DejaVuSans-2e" x="63.623047"/>
       <use xlink:href="#DejaVuSans-37" x="95.410156"/>
      </g>
     </g>
    </g>
    <g id="ytick_8">
     <g id="line2d_31">
      <path d="M 996.254144 309.05104 
C 996.254144 289.164111 992.336853 269.470557 984.726455 251.097431 
C 977.116056 232.724304 965.960554 216.028916 951.898372 201.966733 
C 937.83619 187.904551 921.140801 176.749049 902.767675 169.138651 
C 884.394548 161.528253 864.700995 157.610961 844.814066 157.610961 
C 824.927137 157.610961 805.233583 161.528253 786.860457 169.138651 
C 768.48733 176.749049 751.791942 187.904551 737.729759 201.966733 
C 723.667577 216.028916 712.512075 232.724304 704.901677 251.097431 
C 697.291279 269.470557 693.373987 289.164111 693.373987 309.05104 
C 693.373987 328.937969 697.291279 348.631522 704.901677 367.004649 
C 712.512075 385.377775 723.667577 402.073164 737.729759 416.135346 
C 751.791942 430.197529 768.48733 441.353031 786.860457 448.963429 
C 805.233583 456.573827 824.927137 460.491118 844.814066 460.491118 
C 864.700995 460.491118 884.394548 456.573827 902.767675 448.963429 
C 921.140801 441.353031 937.83619 430.197529 951.898372 416.135346 
C 965.960554 402.073164 977.116056 385.377775 984.726455 367.004649 
C 992.336853 348.631522 996.254144 328.937969 996.254144 309.05104 
" clip-path="url(#p9fa4f28ace)" style="fill: none; stroke: #b0b0b0; stroke-width: 0.8; stroke-linecap: square"/>
     </g>
     <g id="text_29">
      <!-- 0.8 -->
      <g transform="translate(984.726455 249.017743) scale(0.1 -0.1)">
       <use xlink:href="#DejaVuSans-30"/>
       <use xlink:href="#DejaVuSans-2e" x="63.623047"/>
       <use xlink:href="#DejaVuSans-38" x="95.410156"/>
      </g>
     </g>
    </g>
    <g id="ytick_9">
     <g id="line2d_32">
      <path d="M 1046.73417 309.05104 
C 1046.73417 282.535135 1041.511115 256.277063 1031.363918 231.779561 
C 1021.21672 207.282059 1006.342717 185.021541 987.593141 166.271965 
C 968.843565 147.522388 946.583047 132.648386 922.085544 122.501188 
C 897.588042 112.35399 871.329971 107.130935 844.814066 107.130935 
C 818.298161 107.130935 792.040089 112.35399 767.542587 122.501188 
C 743.045085 132.648386 720.784567 147.522388 702.034991 166.271965 
C 683.285414 185.021541 668.411412 207.282059 658.264214 231.779561 
C 648.117016 256.277063 642.893961 282.535135 642.893961 309.05104 
C 642.893961 335.566945 648.117016 361.825016 658.264214 386.322519 
C 668.411412 410.820021 683.285414 433.080539 702.034991 451.830115 
C 720.784567 470.579691 743.045085 485.453694 767.542587 495.600892 
C 792.040089 505.748089 818.298161 510.971144 844.814066 510.971144 
C 871.329971 510.971144 897.588042 505.748089 922.085544 495.600892 
C 946.583047 485.453694 968.843565 470.579691 987.593141 451.830115 
C 1006.342717 433.080539 1021.21672 410.820021 1031.363918 386.322519 
C 1041.511115 361.825016 1046.73417 335.566945 1046.73417 309.05104 
" clip-path="url(#p9fa4f28ace)" style="fill: none; stroke: #b0b0b0; stroke-width: 0.8; stroke-linecap: square"/>
     </g>
     <g id="text_30">
      <!-- 0.9 -->
      <g transform="translate(1031.363918 229.699874) scale(0.1 -0.1)">
       <use xlink:href="#DejaVuSans-30"/>
       <use xlink:href="#DejaVuSans-2e" x="63.623047"/>
       <use xlink:href="#DejaVuSans-39" x="95.410156"/>
      </g>
     </g>
    </g>
    <g id="ytick_10">
     <g id="line2d_33">
      <path d="M 1097.214197 309.05104 
C 1097.214197 275.906158 1090.685378 243.083569 1078.001381 212.461691 
C 1065.317384 181.839814 1046.72488 154.014166 1023.28791 130.577196 
C 999.850939 107.140225 972.025292 88.547722 941.403414 75.863725 
C 910.781537 63.179728 877.958947 56.650909 844.814066 56.650909 
C 811.669184 56.650909 778.846595 63.179728 748.224717 75.863725 
C 717.60284 88.547722 689.777192 107.140225 666.340222 130.577196 
C 642.903251 154.014166 624.310748 181.839814 611.626751 212.461691 
C 598.942754 243.083569 592.413935 275.906158 592.413935 309.05104 
C 592.413935 342.195921 598.942754 375.018511 611.626751 405.640388 
C 624.310748 436.262266 642.903251 464.087913 666.340222 487.524884 
C 689.777192 510.961854 717.60284 529.554358 748.224717 542.238355 
C 778.846595 554.922352 811.669184 561.451171 844.814066 561.451171 
C 877.958947 561.451171 910.781537 554.922352 941.403414 542.238355 
C 972.025292 529.554358 999.850939 510.961854 1023.28791 487.524884 
C 1046.72488 464.087913 1065.317384 436.262266 1078.001381 405.640388 
C 1090.685378 375.018511 1097.214197 342.195921 1097.214197 309.05104 
" clip-path="url(#p9fa4f28ace)" style="fill: none; stroke: #b0b0b0; stroke-width: 0.8; stroke-linecap: square"/>
     </g>
     <g id="text_31">
      <!-- 1.0 -->
      <g transform="translate(1078.001381 210.382004) scale(0.1 -0.1)">
       <use xlink:href="#DejaVuSans-31"/>
       <use xlink:href="#DejaVuSans-2e" x="63.623047"/>
       <use xlink:href="#DejaVuSans-30" x="95.410156"/>
      </g>
     </g>
    </g>
   </g>
   <g id="line2d_34">
    <path d="M 1084.413817 309.05104 
L 1058.168066 197.074222 
L 934.04672 179.775222 
L 873.072027 76.325789 
L 762.323521 91.541349 
L 835.351925 300.668315 
L 610.904895 251.397607 
L 617.228977 365.145726 
L 672.887991 461.364251 
L 767.995853 511.60402 
L 871.922479 532.308913 
L 964.66949 482.691599 
L 998.844565 389.892482 
L 1084.413817 309.05104 
" clip-path="url(#p9fa4f28ace)" style="fill: none; stroke: #0000ff; stroke-width: 2; stroke-linecap: square"/>
   </g>
   <g id="line2d_35">
    <path d="M 1076.400989 309.05104 
L 1054.373082 199.065984 
L 949.412523 157.514013 
L 872.35827 82.204107 
L 761.240633 88.686007 
L 763.670953 237.164515 
L 638.196678 258.124428 
L 630.29474 361.925305 
L 677.673345 457.124797 
L 776.163686 490.067213 
L 871.14111 525.873757 
L 969.110258 489.125162 
L 1002.321085 391.717101 
L 1076.400989 309.05104 
" clip-path="url(#p9fa4f28ace)" style="fill: none; stroke: #ff0000; stroke-width: 2; stroke-linecap: square"/>
   </g>
   <g id="line2d_36">
    <path d="M 1085.287272 309.05104 
L 1057.863546 197.234047 
L 955.429515 148.796895 
L 873.440021 73.295092 
L 761.920518 90.478718 
L 837.798402 302.835704 
L 609.793361 251.123639 
L 617.321199 365.122996 
L 674.342648 460.075537 
L 768.976152 509.019183 
L 872.302434 535.438124 
L 971.020945 491.893271 
L 1005.798309 393.542089 
L 1085.287272 309.05104 
" clip-path="url(#p9fa4f28ace)" style="fill: none; stroke: #008000; stroke-width: 2; stroke-linecap: square"/>
   </g>
   <g id="patch_11">
    <path d="M 1097.214197 309.05104 
C 1097.214197 275.906158 1090.685378 243.083569 1078.001381 212.461691 
C 1065.317384 181.839814 1046.72488 154.014166 1023.28791 130.577196 
C 999.850939 107.140225 972.025292 88.547722 941.403414 75.863725 
C 910.781537 63.179728 877.958947 56.650909 844.814066 56.650909 
C 811.669184 56.650909 778.846595 63.179728 748.224717 75.863725 
C 717.60284 88.547722 689.777192 107.140225 666.340222 130.577196 
C 642.903251 154.014166 624.310748 181.839814 611.626751 212.461691 
C 598.942754 243.083569 592.413935 275.906158 592.413935 309.05104 
C 592.413935 342.195921 598.942754 375.018511 611.626751 405.640388 
C 624.310748 436.262266 642.903251 464.087913 666.340222 487.524884 
C 689.777192 510.961854 717.60284 529.554358 748.224717 542.238355 
C 778.846595 554.922352 811.669184 561.451171 844.814066 561.451171 
C 877.958947 561.451171 910.781537 554.922352 941.403414 542.238355 
C 972.025292 529.554358 999.850939 510.961854 1023.28791 487.524884 
C 1046.72488 464.087913 1065.317384 436.262266 1078.001381 405.640388 
C 1090.685378 375.018511 1097.214197 342.195921 1097.214197 309.05104 
" style="fill: none; stroke: #000000; stroke-width: 0.8; stroke-linejoin: miter; stroke-linecap: square"/>
   </g>
   <g id="text_32">
    <!-- Lower KPs -->
    <g style="fill: #00008b" transform="translate(804.207816 36.650909) scale(0.16 -0.16)">
     <use xlink:href="#DejaVuSans-4c"/>
     <use xlink:href="#DejaVuSans-6f" x="53.962891"/>
     <use xlink:href="#DejaVuSans-77" x="115.144531"/>
     <use xlink:href="#DejaVuSans-65" x="196.931641"/>
     <use xlink:href="#DejaVuSans-72" x="258.455078"/>
     <use xlink:href="#DejaVuSans-20" x="299.568359"/>
     <use xlink:href="#DejaVuSans-4b" x="331.355469"/>
     <use xlink:href="#DejaVuSans-50" x="396.931641"/>
     <use xlink:href="#DejaVuSans-73" x="455.484375"/>
    </g>
   </g>
   <g id="legend_1">
    <g id="patch_12">
     <path d="M 1057.88641 29.68807 
L 1140.694223 29.68807 
Q 1142.694223 29.68807 1142.694223 27.68807 
L 1142.694223 -15.346305 
Q 1142.694223 -17.346305 1140.694223 -17.346305 
L 1057.88641 -17.346305 
Q 1055.88641 -17.346305 1055.88641 -15.346305 
L 1055.88641 27.68807 
Q 1055.88641 29.68807 1057.88641 29.68807 
z
" style="fill: #ffffff; opacity: 0.8; stroke: #cccccc; stroke-linejoin: miter"/>
    </g>
    <g id="line2d_37">
     <path style="fill: none; stroke: #0000ff; stroke-width: 2; stroke-linecap: square"/>
    </g>
    <g id="text_33">
     <!-- Real -->
     <g transform="translate(1087.88641 -5.747867) scale(0.1 -0.1)">
      <use xlink:href="#DejaVuSans-52"/>
      <use xlink:href="#DejaVuSans-65" x="64.982422"/>
      <use xlink:href="#DejaVuSans-61" x="126.505859"/>
      <use xlink:href="#DejaVuSans-6c" x="187.785156"/>
     </g>
    </g>
    <g id="line2d_38">
     <path d="M 1059.88641 5.430258 
L 1069.88641 5.430258 
L 1079.88641 5.430258 
" style="fill: none; stroke: #ff0000; stroke-width: 2; stroke-linecap: square"/>
    </g>
    <g id="text_34">
     <!-- Synthetic -->
     <g transform="translate(1087.88641 8.930258) scale(0.1 -0.1)">
      <defs>
       <path id="DejaVuSans-74" d="M 1172 4494 
L 1172 3500 
L 2356 3500 
L 2356 3053 
L 1172 3053 
L 1172 1153 
Q 1172 725 1289 603 
Q 1406 481 1766 481 
L 2356 481 
L 2356 0 
L 1766 0 
Q 1100 0 847 248 
Q 594 497 594 1153 
L 594 3053 
L 172 3053 
L 172 3500 
L 594 3500 
L 594 4494 
L 1172 4494 
z
" transform="scale(0.015625)"/>
      </defs>
      <use xlink:href="#DejaVuSans-53"/>
      <use xlink:href="#DejaVuSans-79" x="63.476562"/>
      <use xlink:href="#DejaVuSans-6e" x="122.65625"/>
      <use xlink:href="#DejaVuSans-74" x="186.035156"/>
      <use xlink:href="#DejaVuSans-68" x="225.244141"/>
      <use xlink:href="#DejaVuSans-65" x="288.623047"/>
      <use xlink:href="#DejaVuSans-74" x="350.146484"/>
      <use xlink:href="#DejaVuSans-69" x="389.355469"/>
      <use xlink:href="#DejaVuSans-63" x="417.138672"/>
     </g>
    </g>
    <g id="line2d_39">
     <path d="M 1059.88641 20.108383 
L 1069.88641 20.108383 
L 1079.88641 20.108383 
" style="fill: none; stroke: #008000; stroke-width: 2; stroke-linecap: square"/>
    </g>
    <g id="text_35">
     <!-- Combined -->
     <g transform="translate(1087.88641 23.608383) scale(0.1 -0.1)">
      <defs>
       <path id="DejaVuSans-43" d="M 4122 4306 
L 4122 3641 
Q 3803 3938 3442 4084 
Q 3081 4231 2675 4231 
Q 1875 4231 1450 3742 
Q 1025 3253 1025 2328 
Q 1025 1406 1450 917 
Q 1875 428 2675 428 
Q 3081 428 3442 575 
Q 3803 722 4122 1019 
L 4122 359 
Q 3791 134 3420 21 
Q 3050 -91 2638 -91 
Q 1578 -91 968 557 
Q 359 1206 359 2328 
Q 359 3453 968 4101 
Q 1578 4750 2638 4750 
Q 3056 4750 3426 4639 
Q 3797 4528 4122 4306 
z
" transform="scale(0.015625)"/>
       <path id="DejaVuSans-6d" d="M 3328 2828 
Q 3544 3216 3844 3400 
Q 4144 3584 4550 3584 
Q 5097 3584 5394 3201 
Q 5691 2819 5691 2113 
L 5691 0 
L 5113 0 
L 5113 2094 
Q 5113 2597 4934 2840 
Q 4756 3084 4391 3084 
Q 3944 3084 3684 2787 
Q 3425 2491 3425 1978 
L 3425 0 
L 2847 0 
L 2847 2094 
Q 2847 2600 2669 2842 
Q 2491 3084 2119 3084 
Q 1678 3084 1418 2786 
Q 1159 2488 1159 1978 
L 1159 0 
L 581 0 
L 581 3500 
L 1159 3500 
L 1159 2956 
Q 1356 3278 1631 3431 
Q 1906 3584 2284 3584 
Q 2666 3584 2933 3390 
Q 3200 3197 3328 2828 
z
" transform="scale(0.015625)"/>
      </defs>
      <use xlink:href="#DejaVuSans-43"/>
      <use xlink:href="#DejaVuSans-6f" x="69.824219"/>
      <use xlink:href="#DejaVuSans-6d" x="131.005859"/>
      <use xlink:href="#DejaVuSans-62" x="228.417969"/>
      <use xlink:href="#DejaVuSans-69" x="291.894531"/>
      <use xlink:href="#DejaVuSans-6e" x="319.677734"/>
      <use xlink:href="#DejaVuSans-65" x="383.056641"/>
      <use xlink:href="#DejaVuSans-64" x="444.580078"/>
     </g>
    </g>
   </g>
  </g>
 </g>
 <defs>
  <clipPath id="pe9e839d209">
   <path d="M 525.955312 309.05104 
C 525.955312 275.906158 519.426493 243.083569 506.742496 212.461691 
C 494.058499 181.839814 475.465996 154.014166 452.029025 130.577196 
C 428.592055 107.140225 400.766407 88.547722 370.14453 75.863725 
C 339.522652 63.179728 306.700063 56.650909 273.555181 56.650909 
C 240.4103 56.650909 207.587711 63.179728 176.965833 75.863725 
C 146.343955 88.547722 118.518308 107.140225 95.081337 130.577196 
C 71.644367 154.014166 53.051864 181.839814 40.367867 212.461691 
C 27.68387 243.083569 21.155051 275.906158 21.155051 309.05104 
C 21.155051 342.195921 27.68387 375.018511 40.367867 405.640388 
C 53.051864 436.262266 71.644367 464.087913 95.081337 487.524884 
C 118.518308 510.961854 146.343955 529.554358 176.965833 542.238355 
C 207.587711 554.922352 240.4103 561.451171 273.555181 561.451171 
C 306.700063 561.451171 339.522652 554.922352 370.14453 542.238355 
C 400.766407 529.554358 428.592055 510.961854 452.029025 487.524884 
C 475.465996 464.087913 494.058499 436.262266 506.742496 405.640388 
C 519.426493 375.018511 525.955312 342.195921 525.955312 309.05104 
M 273.555181 309.05104 
C 273.555181 309.05104 273.555181 309.05104 273.555181 309.05104 
C 273.555181 309.05104 273.555181 309.05104 273.555181 309.05104 
C 273.555181 309.05104 273.555181 309.05104 273.555181 309.05104 
C 273.555181 309.05104 273.555181 309.05104 273.555181 309.05104 
C 273.555181 309.05104 273.555181 309.05104 273.555181 309.05104 
C 273.555181 309.05104 273.555181 309.05104 273.555181 309.05104 
C 273.555181 309.05104 273.555181 309.05104 273.555181 309.05104 
C 273.555181 309.05104 273.555181 309.05104 273.555181 309.05104 
C 273.555181 309.05104 273.555181 309.05104 273.555181 309.05104 
C 273.555181 309.05104 273.555181 309.05104 273.555181 309.05104 
C 273.555181 309.05104 273.555181 309.05104 273.555181 309.05104 
C 273.555181 309.05104 273.555181 309.05104 273.555181 309.05104 
C 273.555181 309.05104 273.555181 309.05104 273.555181 309.05104 
C 273.555181 309.05104 273.555181 309.05104 273.555181 309.05104 
C 273.555181 309.05104 273.555181 309.05104 273.555181 309.05104 
C 273.555181 309.05104 273.555181 309.05104 273.555181 309.05104 
z
"/>
  </clipPath>
  <clipPath id="p9fa4f28ace">
   <path d="M 1097.214197 309.05104 
C 1097.214197 275.906158 1090.685378 243.083569 1078.001381 212.461691 
C 1065.317384 181.839814 1046.72488 154.014166 1023.28791 130.577196 
C 999.850939 107.140225 972.025292 88.547722 941.403414 75.863725 
C 910.781537 63.179728 877.958947 56.650909 844.814066 56.650909 
C 811.669184 56.650909 778.846595 63.179728 748.224717 75.863725 
C 717.60284 88.547722 689.777192 107.140225 666.340222 130.577196 
C 642.903251 154.014166 624.310748 181.839814 611.626751 212.461691 
C 598.942754 243.083569 592.413935 275.906158 592.413935 309.05104 
C 592.413935 342.195921 598.942754 375.018511 611.626751 405.640388 
C 624.310748 436.262266 642.903251 464.087913 666.340222 487.524884 
C 689.777192 510.961854 717.60284 529.554358 748.224717 542.238355 
C 778.846595 554.922352 811.669184 561.451171 844.814066 561.451171 
C 877.958947 561.451171 910.781537 554.922352 941.403414 542.238355 
C 972.025292 529.554358 999.850939 510.961854 1023.28791 487.524884 
C 1046.72488 464.087913 1065.317384 436.262266 1078.001381 405.640388 
C 1090.685378 375.018511 1097.214197 342.195921 1097.214197 309.05104 
M 844.814066 309.05104 
C 844.814066 309.05104 844.814066 309.05104 844.814066 309.05104 
C 844.814066 309.05104 844.814066 309.05104 844.814066 309.05104 
C 844.814066 309.05104 844.814066 309.05104 844.814066 309.05104 
C 844.814066 309.05104 844.814066 309.05104 844.814066 309.05104 
C 844.814066 309.05104 844.814066 309.05104 844.814066 309.05104 
C 844.814066 309.05104 844.814066 309.05104 844.814066 309.05104 
C 844.814066 309.05104 844.814066 309.05104 844.814066 309.05104 
C 844.814066 309.05104 844.814066 309.05104 844.814066 309.05104 
C 844.814066 309.05104 844.814066 309.05104 844.814066 309.05104 
C 844.814066 309.05104 844.814066 309.05104 844.814066 309.05104 
C 844.814066 309.05104 844.814066 309.05104 844.814066 309.05104 
C 844.814066 309.05104 844.814066 309.05104 844.814066 309.05104 
C 844.814066 309.05104 844.814066 309.05104 844.814066 309.05104 
C 844.814066 309.05104 844.814066 309.05104 844.814066 309.05104 
C 844.814066 309.05104 844.814066 309.05104 844.814066 309.05104 
C 844.814066 309.05104 844.814066 309.05104 844.814066 309.05104 
z
"/>
  </clipPath>
 </defs>
</svg>
