<?xml version="1.0" encoding="utf-8" standalone="no"?>
<!DOCTYPE svg PUBLIC "-//W3C//DTD SVG 1.1//EN"
  "http://www.w3.org/Graphics/SVG/1.1/DTD/svg11.dtd">
<svg xmlns:xlink="http://www.w3.org/1999/xlink" width="1152pt" height="576pt" viewBox="0 0 1152 576" xmlns="http://www.w3.org/2000/svg" version="1.1">
 <metadata>
  <rdf:RDF xmlns:dc="http://purl.org/dc/elements/1.1/" xmlns:cc="http://creativecommons.org/ns#" xmlns:rdf="http://www.w3.org/1999/02/22-rdf-syntax-ns#">
   <cc:Work>
    <dc:type rdf:resource="http://purl.org/dc/dcmitype/StillImage"/>
    <dc:date>2024-09-09T04:18:57.611548</dc:date>
    <dc:format>image/svg+xml</dc:format>
    <dc:creator>
     <cc:Agent>
      <dc:title>Matplotlib v3.9.0, https://matplotlib.org/</dc:title>
     </cc:Agent>
    </dc:creator>
   </cc:Work>
  </rdf:RDF>
 </metadata>
 <defs>
  <style type="text/css">*{stroke-linejoin: round; stroke-linecap: butt}</style>
 </defs>
 <g id="figure_1">
  <g id="patch_1">
   <path d="M 0 576 
L 1152 576 
L 1152 0 
L 0 0 
z
" style="fill: #ffffff"/>
  </g>
  <g id="axes_1">
   <g id="patch_2">
    <path d="M 507.858616 298.77621 
C 507.858616 267.657636 501.728935 236.841652 489.820372 208.091838 
C 477.91181 179.342025 460.455957 153.217494 438.451802 131.21334 
C 416.447647 109.209185 390.323117 91.753332 361.573303 79.844769 
C 332.82349 67.936207 302.007505 61.806526 270.888931 61.806526 
C 239.770358 61.806526 208.954373 67.936207 180.204559 79.844769 
C 151.454746 91.753332 125.330215 109.209185 103.326061 131.21334 
C 81.321906 153.217494 63.866053 179.342025 51.95749 208.091838 
C 40.048928 236.841652 33.919247 267.657636 33.919247 298.77621 
C 33.919247 329.894784 40.048928 360.710769 51.95749 389.460582 
C 63.866053 418.210396 81.321906 444.334926 103.326061 466.339081 
C 125.330215 488.343235 151.454746 505.799089 180.204559 517.707651 
C 208.954373 529.616214 239.770358 535.745894 270.888931 535.745894 
C 302.007505 535.745894 332.82349 529.616214 361.573303 517.707651 
C 390.323117 505.799089 416.447647 488.343235 438.451802 466.339081 
C 460.455957 444.334926 477.91181 418.210396 489.820372 389.460582 
C 501.728935 360.710769 507.858616 329.894784 507.858616 298.77621 
M 270.888931 298.77621 
C 270.888931 298.77621 270.888931 298.77621 270.888931 298.77621 
C 270.888931 298.77621 270.888931 298.77621 270.888931 298.77621 
C 270.888931 298.77621 270.888931 298.77621 270.888931 298.77621 
C 270.888931 298.77621 270.888931 298.77621 270.888931 298.77621 
C 270.888931 298.77621 270.888931 298.77621 270.888931 298.77621 
C 270.888931 298.77621 270.888931 298.77621 270.888931 298.77621 
C 270.888931 298.77621 270.888931 298.77621 270.888931 298.77621 
C 270.888931 298.77621 270.888931 298.77621 270.888931 298.77621 
C 270.888931 298.77621 270.888931 298.77621 270.888931 298.77621 
C 270.888931 298.77621 270.888931 298.77621 270.888931 298.77621 
C 270.888931 298.77621 270.888931 298.77621 270.888931 298.77621 
C 270.888931 298.77621 270.888931 298.77621 270.888931 298.77621 
C 270.888931 298.77621 270.888931 298.77621 270.888931 298.77621 
C 270.888931 298.77621 270.888931 298.77621 270.888931 298.77621 
C 270.888931 298.77621 270.888931 298.77621 270.888931 298.77621 
C 270.888931 298.77621 270.888931 298.77621 270.888931 298.77621 
z
" style="fill: #ffffff"/>
   </g>
   <g id="patch_3">
    <path d="M 494.572227 298.77621 
L 410.745627 123.401461 
L 222.66927 87.512068 
L 82.592817 208.097581 
L 59.701862 400.478543 
L 221.138306 516.74794 
L 413.955563 478.176092 
z
" clip-path="url(#p8bf0801da4)" style="fill: #0000ff; opacity: 0.25; stroke: #0000ff; stroke-linejoin: miter"/>
   </g>
   <g id="patch_4">
    <path d="M 502.770398 298.77621 
L 399.592783 137.386685 
L 227.102956 106.937316 
L 79.114896 206.422702 
L 63.731429 398.538005 
L 221.302228 516.029753 
L 404.186543 465.926128 
z
" clip-path="url(#p8bf0801da4)" style="fill: #ff0000; opacity: 0.3; stroke: #ff0000; stroke-linejoin: miter"/>
   </g>
   <g id="patch_5">
    <path d="M 500.972783 298.77621 
L 411.005838 123.075166 
L 221.201725 81.082337 
L 80.118792 206.906153 
L 60.582455 400.054472 
L 221.105158 516.893173 
L 407.471046 470.044765 
z
" clip-path="url(#p8bf0801da4)" style="fill: #008000; opacity: 0.35; stroke: #008000; stroke-linejoin: miter"/>
   </g>
   <g id="matplotlib.axis_1">
    <g id="xtick_1">
     <g id="line2d_1">
      <path d="M 270.888931 298.77621 
L 507.858616 298.77621 
" clip-path="url(#p8bf0801da4)" style="fill: none; stroke: #b0b0b0; stroke-width: 0.8; stroke-linecap: square"/>
     </g>
     <g id="text_1">
      <!-- Back1 -->
      <g transform="translate(491.217991 304.29496) scale(0.2 -0.2)">
       <defs>
        <path id="DejaVuSans-42" d="M 1259 2228 
L 1259 519 
L 2272 519 
Q 2781 519 3026 730 
Q 3272 941 3272 1375 
Q 3272 1813 3026 2020 
Q 2781 2228 2272 2228 
L 1259 2228 
z
M 1259 4147 
L 1259 2741 
L 2194 2741 
Q 2656 2741 2882 2914 
Q 3109 3088 3109 3444 
Q 3109 3797 2882 3972 
Q 2656 4147 2194 4147 
L 1259 4147 
z
M 628 4666 
L 2241 4666 
Q 2963 4666 3353 4366 
Q 3744 4066 3744 3513 
Q 3744 3084 3544 2831 
Q 3344 2578 2956 2516 
Q 3422 2416 3680 2098 
Q 3938 1781 3938 1306 
Q 3938 681 3513 340 
Q 3088 0 2303 0 
L 628 0 
L 628 4666 
z
" transform="scale(0.015625)"/>
        <path id="DejaVuSans-61" d="M 2194 1759 
Q 1497 1759 1228 1600 
Q 959 1441 959 1056 
Q 959 750 1161 570 
Q 1363 391 1709 391 
Q 2188 391 2477 730 
Q 2766 1069 2766 1631 
L 2766 1759 
L 2194 1759 
z
M 3341 1997 
L 3341 0 
L 2766 0 
L 2766 531 
Q 2569 213 2275 61 
Q 1981 -91 1556 -91 
Q 1019 -91 701 211 
Q 384 513 384 1019 
Q 384 1609 779 1909 
Q 1175 2209 1959 2209 
L 2766 2209 
L 2766 2266 
Q 2766 2663 2505 2880 
Q 2244 3097 1772 3097 
Q 1472 3097 1187 3025 
Q 903 2953 641 2809 
L 641 3341 
Q 956 3463 1253 3523 
Q 1550 3584 1831 3584 
Q 2591 3584 2966 3190 
Q 3341 2797 3341 1997 
z
" transform="scale(0.015625)"/>
        <path id="DejaVuSans-63" d="M 3122 3366 
L 3122 2828 
Q 2878 2963 2633 3030 
Q 2388 3097 2138 3097 
Q 1578 3097 1268 2742 
Q 959 2388 959 1747 
Q 959 1106 1268 751 
Q 1578 397 2138 397 
Q 2388 397 2633 464 
Q 2878 531 3122 666 
L 3122 134 
Q 2881 22 2623 -34 
Q 2366 -91 2075 -91 
Q 1284 -91 818 406 
Q 353 903 353 1747 
Q 353 2603 823 3093 
Q 1294 3584 2113 3584 
Q 2378 3584 2631 3529 
Q 2884 3475 3122 3366 
z
" transform="scale(0.015625)"/>
        <path id="DejaVuSans-6b" d="M 581 4863 
L 1159 4863 
L 1159 1991 
L 2875 3500 
L 3609 3500 
L 1753 1863 
L 3688 0 
L 2938 0 
L 1159 1709 
L 1159 0 
L 581 0 
L 581 4863 
z
" transform="scale(0.015625)"/>
        <path id="DejaVuSans-31" d="M 794 531 
L 1825 531 
L 1825 4091 
L 703 3866 
L 703 4441 
L 1819 4666 
L 2450 4666 
L 2450 531 
L 3481 531 
L 3481 0 
L 794 0 
L 794 531 
z
" transform="scale(0.015625)"/>
       </defs>
       <use xlink:href="#DejaVuSans-42"/>
       <use xlink:href="#DejaVuSans-61" x="68.603516"/>
       <use xlink:href="#DejaVuSans-63" x="129.882812"/>
       <use xlink:href="#DejaVuSans-6b" x="184.863281"/>
       <use xlink:href="#DejaVuSans-31" x="242.773438"/>
      </g>
     </g>
    </g>
    <g id="xtick_2">
     <g id="line2d_2">
      <path d="M 270.888931 298.77621 
L 418.637113 113.505851 
" clip-path="url(#p8bf0801da4)" style="fill: none; stroke: #b0b0b0; stroke-width: 0.8; stroke-linecap: square"/>
     </g>
     <g id="text_2">
      <!-- Back2 -->
      <g transform="translate(396.725345 108.07896) scale(0.2 -0.2)">
       <defs>
        <path id="DejaVuSans-32" d="M 1228 531 
L 3431 531 
L 3431 0 
L 469 0 
L 469 531 
Q 828 903 1448 1529 
Q 2069 2156 2228 2338 
Q 2531 2678 2651 2914 
Q 2772 3150 2772 3378 
Q 2772 3750 2511 3984 
Q 2250 4219 1831 4219 
Q 1534 4219 1204 4116 
Q 875 4013 500 3803 
L 500 4441 
Q 881 4594 1212 4672 
Q 1544 4750 1819 4750 
Q 2544 4750 2975 4387 
Q 3406 4025 3406 3419 
Q 3406 3131 3298 2873 
Q 3191 2616 2906 2266 
Q 2828 2175 2409 1742 
Q 1991 1309 1228 531 
z
" transform="scale(0.015625)"/>
       </defs>
       <use xlink:href="#DejaVuSans-42"/>
       <use xlink:href="#DejaVuSans-61" x="68.603516"/>
       <use xlink:href="#DejaVuSans-63" x="129.882812"/>
       <use xlink:href="#DejaVuSans-6b" x="184.863281"/>
       <use xlink:href="#DejaVuSans-32" x="242.773438"/>
      </g>
     </g>
    </g>
    <g id="xtick_3">
     <g id="line2d_3">
      <path d="M 270.888931 298.77621 
L 218.158216 67.747851 
" clip-path="url(#p8bf0801da4)" style="fill: none; stroke: #b0b0b0; stroke-width: 0.8; stroke-linecap: square"/>
     </g>
     <g id="text_3">
      <!-- Back3 -->
      <g transform="translate(184.402298 59.61761) scale(0.2 -0.2)">
       <defs>
        <path id="DejaVuSans-33" d="M 2597 2516 
Q 3050 2419 3304 2112 
Q 3559 1806 3559 1356 
Q 3559 666 3084 287 
Q 2609 -91 1734 -91 
Q 1441 -91 1130 -33 
Q 819 25 488 141 
L 488 750 
Q 750 597 1062 519 
Q 1375 441 1716 441 
Q 2309 441 2620 675 
Q 2931 909 2931 1356 
Q 2931 1769 2642 2001 
Q 2353 2234 1838 2234 
L 1294 2234 
L 1294 2753 
L 1863 2753 
Q 2328 2753 2575 2939 
Q 2822 3125 2822 3475 
Q 2822 3834 2567 4026 
Q 2313 4219 1838 4219 
Q 1578 4219 1281 4162 
Q 984 4106 628 3988 
L 628 4550 
Q 988 4650 1302 4700 
Q 1616 4750 1894 4750 
Q 2613 4750 3031 4423 
Q 3450 4097 3450 3541 
Q 3450 3153 3228 2886 
Q 3006 2619 2597 2516 
z
" transform="scale(0.015625)"/>
       </defs>
       <use xlink:href="#DejaVuSans-42"/>
       <use xlink:href="#DejaVuSans-61" x="68.603516"/>
       <use xlink:href="#DejaVuSans-63" x="129.882812"/>
       <use xlink:href="#DejaVuSans-6b" x="184.863281"/>
       <use xlink:href="#DejaVuSans-33" x="242.773438"/>
      </g>
     </g>
    </g>
    <g id="xtick_4">
     <g id="line2d_4">
      <path d="M 270.888931 298.77621 
L 57.386623 195.958918 
" clip-path="url(#p8bf0801da4)" style="fill: none; stroke: #b0b0b0; stroke-width: 0.8; stroke-linecap: square"/>
     </g>
     <g id="text_4">
      <!-- Back4 -->
      <g transform="translate(14.132434 195.403295) scale(0.2 -0.2)">
       <defs>
        <path id="DejaVuSans-34" d="M 2419 4116 
L 825 1625 
L 2419 1625 
L 2419 4116 
z
M 2253 4666 
L 3047 4666 
L 3047 1625 
L 3713 1625 
L 3713 1100 
L 3047 1100 
L 3047 0 
L 2419 0 
L 2419 1100 
L 313 1100 
L 313 1709 
L 2253 4666 
z
" transform="scale(0.015625)"/>
       </defs>
       <use xlink:href="#DejaVuSans-42"/>
       <use xlink:href="#DejaVuSans-61" x="68.603516"/>
       <use xlink:href="#DejaVuSans-63" x="129.882812"/>
       <use xlink:href="#DejaVuSans-6b" x="184.863281"/>
       <use xlink:href="#DejaVuSans-34" x="242.773438"/>
      </g>
     </g>
    </g>
    <g id="xtick_5">
     <g id="line2d_5">
      <path d="M 270.888931 298.77621 
L 57.386623 401.593503 
" clip-path="url(#p8bf0801da4)" style="fill: none; stroke: #b0b0b0; stroke-width: 0.8; stroke-linecap: square"/>
     </g>
     <g id="text_5">
      <!-- Head -->
      <g transform="translate(18.623059 413.186625) scale(0.2 -0.2)">
       <defs>
        <path id="DejaVuSans-48" d="M 628 4666 
L 1259 4666 
L 1259 2753 
L 3553 2753 
L 3553 4666 
L 4184 4666 
L 4184 0 
L 3553 0 
L 3553 2222 
L 1259 2222 
L 1259 0 
L 628 0 
L 628 4666 
z
" transform="scale(0.015625)"/>
        <path id="DejaVuSans-65" d="M 3597 1894 
L 3597 1613 
L 953 1613 
Q 991 1019 1311 708 
Q 1631 397 2203 397 
Q 2534 397 2845 478 
Q 3156 559 3463 722 
L 3463 178 
Q 3153 47 2828 -22 
Q 2503 -91 2169 -91 
Q 1331 -91 842 396 
Q 353 884 353 1716 
Q 353 2575 817 3079 
Q 1281 3584 2069 3584 
Q 2775 3584 3186 3129 
Q 3597 2675 3597 1894 
z
M 3022 2063 
Q 3016 2534 2758 2815 
Q 2500 3097 2075 3097 
Q 1594 3097 1305 2825 
Q 1016 2553 972 2059 
L 3022 2063 
z
" transform="scale(0.015625)"/>
        <path id="DejaVuSans-64" d="M 2906 2969 
L 2906 4863 
L 3481 4863 
L 3481 0 
L 2906 0 
L 2906 525 
Q 2725 213 2448 61 
Q 2172 -91 1784 -91 
Q 1150 -91 751 415 
Q 353 922 353 1747 
Q 353 2572 751 3078 
Q 1150 3584 1784 3584 
Q 2172 3584 2448 3432 
Q 2725 3281 2906 2969 
z
M 947 1747 
Q 947 1113 1208 752 
Q 1469 391 1925 391 
Q 2381 391 2643 752 
Q 2906 1113 2906 1747 
Q 2906 2381 2643 2742 
Q 2381 3103 1925 3103 
Q 1469 3103 1208 2742 
Q 947 2381 947 1747 
z
" transform="scale(0.015625)"/>
       </defs>
       <use xlink:href="#DejaVuSans-48"/>
       <use xlink:href="#DejaVuSans-65" x="75.195312"/>
       <use xlink:href="#DejaVuSans-61" x="136.71875"/>
       <use xlink:href="#DejaVuSans-64" x="197.998047"/>
      </g>
     </g>
    </g>
    <g id="xtick_6">
     <g id="line2d_6">
      <path d="M 270.888931 298.77621 
L 218.158216 529.80457 
" clip-path="url(#p8bf0801da4)" style="fill: none; stroke: #b0b0b0; stroke-width: 0.8; stroke-linecap: square"/>
     </g>
     <g id="text_6">
      <!-- Nose -->
      <g transform="translate(190.080423 548.972311) scale(0.2 -0.2)">
       <defs>
        <path id="DejaVuSans-4e" d="M 628 4666 
L 1478 4666 
L 3547 763 
L 3547 4666 
L 4159 4666 
L 4159 0 
L 3309 0 
L 1241 3903 
L 1241 0 
L 628 0 
L 628 4666 
z
" transform="scale(0.015625)"/>
        <path id="DejaVuSans-6f" d="M 1959 3097 
Q 1497 3097 1228 2736 
Q 959 2375 959 1747 
Q 959 1119 1226 758 
Q 1494 397 1959 397 
Q 2419 397 2687 759 
Q 2956 1122 2956 1747 
Q 2956 2369 2687 2733 
Q 2419 3097 1959 3097 
z
M 1959 3584 
Q 2709 3584 3137 3096 
Q 3566 2609 3566 1747 
Q 3566 888 3137 398 
Q 2709 -91 1959 -91 
Q 1206 -91 779 398 
Q 353 888 353 1747 
Q 353 2609 779 3096 
Q 1206 3584 1959 3584 
z
" transform="scale(0.015625)"/>
        <path id="DejaVuSans-73" d="M 2834 3397 
L 2834 2853 
Q 2591 2978 2328 3040 
Q 2066 3103 1784 3103 
Q 1356 3103 1142 2972 
Q 928 2841 928 2578 
Q 928 2378 1081 2264 
Q 1234 2150 1697 2047 
L 1894 2003 
Q 2506 1872 2764 1633 
Q 3022 1394 3022 966 
Q 3022 478 2636 193 
Q 2250 -91 1575 -91 
Q 1294 -91 989 -36 
Q 684 19 347 128 
L 347 722 
Q 666 556 975 473 
Q 1284 391 1588 391 
Q 1994 391 2212 530 
Q 2431 669 2431 922 
Q 2431 1156 2273 1281 
Q 2116 1406 1581 1522 
L 1381 1569 
Q 847 1681 609 1914 
Q 372 2147 372 2553 
Q 372 3047 722 3315 
Q 1072 3584 1716 3584 
Q 2034 3584 2315 3537 
Q 2597 3491 2834 3397 
z
" transform="scale(0.015625)"/>
       </defs>
       <use xlink:href="#DejaVuSans-4e"/>
       <use xlink:href="#DejaVuSans-6f" x="74.804688"/>
       <use xlink:href="#DejaVuSans-73" x="135.986328"/>
       <use xlink:href="#DejaVuSans-65" x="188.085938"/>
      </g>
     </g>
    </g>
    <g id="xtick_7">
     <g id="line2d_7">
      <path d="M 270.888931 298.77621 
L 418.637113 484.04657 
" clip-path="url(#p8bf0801da4)" style="fill: none; stroke: #b0b0b0; stroke-width: 0.8; stroke-linecap: square"/>
     </g>
     <g id="text_7">
      <!-- Neck -->
      <g transform="translate(402.442533 500.510961) scale(0.2 -0.2)">
       <use xlink:href="#DejaVuSans-4e"/>
       <use xlink:href="#DejaVuSans-65" x="74.804688"/>
       <use xlink:href="#DejaVuSans-63" x="136.328125"/>
       <use xlink:href="#DejaVuSans-6b" x="191.308594"/>
      </g>
     </g>
    </g>
   </g>
   <g id="matplotlib.axis_2">
    <g id="ytick_1">
     <g id="line2d_8">
      <path d="M 310.383879 298.77621 
C 310.383879 293.589781 309.362265 288.453784 307.377505 283.662148 
C 305.392744 278.870513 302.483436 274.516424 298.816076 270.849065 
C 295.148717 267.181706 290.794629 264.272397 286.002993 262.287637 
C 281.211358 260.302876 276.07536 259.281263 270.888931 259.281263 
C 265.702502 259.281263 260.566505 260.302876 255.774869 262.287637 
C 250.983234 264.272397 246.629145 267.181706 242.961786 270.849065 
C 239.294427 274.516424 236.385118 278.870513 234.400358 283.662148 
C 232.415597 288.453784 231.393984 293.589781 231.393984 298.77621 
C 231.393984 303.962639 232.415597 309.098637 234.400358 313.890272 
C 236.385118 318.681908 239.294427 323.035996 242.961786 326.703355 
C 246.629145 330.370714 250.983234 333.280023 255.774869 335.264784 
C 260.566505 337.249544 265.702502 338.271158 270.888931 338.271158 
C 276.07536 338.271158 281.211358 337.249544 286.002993 335.264784 
C 290.794629 333.280023 295.148717 330.370714 298.816076 326.703355 
C 302.483436 323.035996 305.392744 318.681908 307.377505 313.890272 
C 309.362265 309.098637 310.383879 303.962639 310.383879 298.77621 
" clip-path="url(#p8bf0801da4)" style="fill: none; stroke: #b0b0b0; stroke-width: 0.8; stroke-linecap: square"/>
     </g>
     <g id="text_8">
      <!-- 0.5 -->
      <g transform="translate(307.377505 281.582461) scale(0.1 -0.1)">
       <defs>
        <path id="DejaVuSans-30" d="M 2034 4250 
Q 1547 4250 1301 3770 
Q 1056 3291 1056 2328 
Q 1056 1369 1301 889 
Q 1547 409 2034 409 
Q 2525 409 2770 889 
Q 3016 1369 3016 2328 
Q 3016 3291 2770 3770 
Q 2525 4250 2034 4250 
z
M 2034 4750 
Q 2819 4750 3233 4129 
Q 3647 3509 3647 2328 
Q 3647 1150 3233 529 
Q 2819 -91 2034 -91 
Q 1250 -91 836 529 
Q 422 1150 422 2328 
Q 422 3509 836 4129 
Q 1250 4750 2034 4750 
z
" transform="scale(0.015625)"/>
        <path id="DejaVuSans-2e" d="M 684 794 
L 1344 794 
L 1344 0 
L 684 0 
L 684 794 
z
" transform="scale(0.015625)"/>
        <path id="DejaVuSans-35" d="M 691 4666 
L 3169 4666 
L 3169 4134 
L 1269 4134 
L 1269 2991 
Q 1406 3038 1543 3061 
Q 1681 3084 1819 3084 
Q 2600 3084 3056 2656 
Q 3513 2228 3513 1497 
Q 3513 744 3044 326 
Q 2575 -91 1722 -91 
Q 1428 -91 1123 -41 
Q 819 9 494 109 
L 494 744 
Q 775 591 1075 516 
Q 1375 441 1709 441 
Q 2250 441 2565 725 
Q 2881 1009 2881 1497 
Q 2881 1984 2565 2268 
Q 2250 2553 1709 2553 
Q 1456 2553 1204 2497 
Q 953 2441 691 2322 
L 691 4666 
z
" transform="scale(0.015625)"/>
       </defs>
       <use xlink:href="#DejaVuSans-30"/>
       <use xlink:href="#DejaVuSans-2e" x="63.623047"/>
       <use xlink:href="#DejaVuSans-35" x="95.410156"/>
      </g>
     </g>
    </g>
    <g id="ytick_2">
     <g id="line2d_9">
      <path d="M 349.878826 298.77621 
C 349.878826 288.403352 347.835599 278.131357 343.866078 268.548086 
C 339.896558 258.964815 334.07794 250.256638 326.743222 242.92192 
C 319.408503 235.587202 310.700327 229.768584 301.117055 225.799063 
C 291.533784 221.829542 281.261789 219.786316 270.888931 219.786316 
C 260.516073 219.786316 250.244078 221.829542 240.660807 225.799063 
C 231.077536 229.768584 222.369359 235.587202 215.034641 242.92192 
C 207.699923 250.256638 201.881305 258.964815 197.911784 268.548086 
C 193.942263 278.131357 191.899037 288.403352 191.899037 298.77621 
C 191.899037 309.149068 193.942263 319.421063 197.911784 329.004334 
C 201.881305 338.587605 207.699923 347.295782 215.034641 354.630501 
C 222.369359 361.965219 231.077536 367.783836 240.660807 371.753357 
C 250.244078 375.722878 260.516073 377.766105 270.888931 377.766105 
C 281.261789 377.766105 291.533784 375.722878 301.117055 371.753357 
C 310.700327 367.783836 319.408503 361.965219 326.743222 354.630501 
C 334.07794 347.295782 339.896558 338.587605 343.866078 329.004334 
C 347.835599 319.421063 349.878826 309.149068 349.878826 298.77621 
" clip-path="url(#p8bf0801da4)" style="fill: none; stroke: #b0b0b0; stroke-width: 0.8; stroke-linecap: square"/>
     </g>
     <g id="text_9">
      <!-- 0.6 -->
      <g transform="translate(343.866078 266.468399) scale(0.1 -0.1)">
       <defs>
        <path id="DejaVuSans-36" d="M 2113 2584 
Q 1688 2584 1439 2293 
Q 1191 2003 1191 1497 
Q 1191 994 1439 701 
Q 1688 409 2113 409 
Q 2538 409 2786 701 
Q 3034 994 3034 1497 
Q 3034 2003 2786 2293 
Q 2538 2584 2113 2584 
z
M 3366 4563 
L 3366 3988 
Q 3128 4100 2886 4159 
Q 2644 4219 2406 4219 
Q 1781 4219 1451 3797 
Q 1122 3375 1075 2522 
Q 1259 2794 1537 2939 
Q 1816 3084 2150 3084 
Q 2853 3084 3261 2657 
Q 3669 2231 3669 1497 
Q 3669 778 3244 343 
Q 2819 -91 2113 -91 
Q 1303 -91 875 529 
Q 447 1150 447 2328 
Q 447 3434 972 4092 
Q 1497 4750 2381 4750 
Q 2619 4750 2861 4703 
Q 3103 4656 3366 4563 
z
" transform="scale(0.015625)"/>
       </defs>
       <use xlink:href="#DejaVuSans-30"/>
       <use xlink:href="#DejaVuSans-2e" x="63.623047"/>
       <use xlink:href="#DejaVuSans-36" x="95.410156"/>
      </g>
     </g>
    </g>
    <g id="ytick_3">
     <g id="line2d_10">
      <path d="M 389.373773 298.77621 
C 389.373773 283.216923 386.308933 267.808931 380.354652 253.434024 
C 374.400371 239.059118 365.672444 225.996852 354.670367 214.994775 
C 343.668289 203.992698 330.606024 195.264771 316.231117 189.31049 
C 301.856211 183.356208 286.448218 180.291368 270.888931 180.291368 
C 255.329644 180.291368 239.921652 183.356208 225.546745 189.31049 
C 211.171839 195.264771 198.109573 203.992698 187.107496 214.994775 
C 176.105419 225.996852 167.377492 239.059118 161.423211 253.434024 
C 155.46893 267.808931 152.404089 283.216923 152.404089 298.77621 
C 152.404089 314.335497 155.46893 329.74349 161.423211 344.118396 
C 167.377492 358.493303 176.105419 371.555568 187.107496 382.557646 
C 198.109573 393.559723 211.171839 402.28765 225.546745 408.241931 
C 239.921652 414.196212 255.329644 417.261052 270.888931 417.261052 
C 286.448218 417.261052 301.856211 414.196212 316.231117 408.241931 
C 330.606024 402.28765 343.668289 393.559723 354.670367 382.557646 
C 365.672444 371.555568 374.400371 358.493303 380.354652 344.118396 
C 386.308933 329.74349 389.373773 314.335497 389.373773 298.77621 
" clip-path="url(#p8bf0801da4)" style="fill: none; stroke: #b0b0b0; stroke-width: 0.8; stroke-linecap: square"/>
     </g>
     <g id="text_10">
      <!-- 0.7 -->
      <g transform="translate(380.354652 251.354337) scale(0.1 -0.1)">
       <defs>
        <path id="DejaVuSans-37" d="M 525 4666 
L 3525 4666 
L 3525 4397 
L 1831 0 
L 1172 0 
L 2766 4134 
L 525 4134 
L 525 4666 
z
" transform="scale(0.015625)"/>
       </defs>
       <use xlink:href="#DejaVuSans-30"/>
       <use xlink:href="#DejaVuSans-2e" x="63.623047"/>
       <use xlink:href="#DejaVuSans-37" x="95.410156"/>
      </g>
     </g>
    </g>
    <g id="ytick_4">
     <g id="line2d_11">
      <path d="M 428.868721 298.77621 
C 428.868721 278.030494 424.782267 257.486504 416.843225 238.319962 
C 408.904184 219.15342 397.266948 201.737066 382.597512 187.06763 
C 367.928075 172.398193 350.511722 160.760958 331.345179 152.821916 
C 312.178637 144.882874 291.634647 140.796421 270.888931 140.796421 
C 250.143215 140.796421 229.599226 144.882874 210.432683 152.821916 
C 191.266141 160.760958 173.849787 172.398193 159.180351 187.06763 
C 144.510915 201.737066 132.873679 219.15342 124.934637 238.319962 
C 116.995596 257.486504 112.909142 278.030494 112.909142 298.77621 
C 112.909142 319.521926 116.995596 340.065916 124.934637 359.232458 
C 132.873679 378.399001 144.510915 395.815354 159.180351 410.484791 
C 173.849787 425.154227 191.266141 436.791463 210.432683 444.730504 
C 229.599226 452.669546 250.143215 456.756 270.888931 456.756 
C 291.634647 456.756 312.178637 452.669546 331.345179 444.730504 
C 350.511722 436.791463 367.928075 425.154227 382.597512 410.484791 
C 397.266948 395.815354 408.904184 378.399001 416.843225 359.232458 
C 424.782267 340.065916 428.868721 319.521926 428.868721 298.77621 
" clip-path="url(#p8bf0801da4)" style="fill: none; stroke: #b0b0b0; stroke-width: 0.8; stroke-linecap: square"/>
     </g>
     <g id="text_11">
      <!-- 0.8 -->
      <g transform="translate(416.843225 236.240275) scale(0.1 -0.1)">
       <defs>
        <path id="DejaVuSans-38" d="M 2034 2216 
Q 1584 2216 1326 1975 
Q 1069 1734 1069 1313 
Q 1069 891 1326 650 
Q 1584 409 2034 409 
Q 2484 409 2743 651 
Q 3003 894 3003 1313 
Q 3003 1734 2745 1975 
Q 2488 2216 2034 2216 
z
M 1403 2484 
Q 997 2584 770 2862 
Q 544 3141 544 3541 
Q 544 4100 942 4425 
Q 1341 4750 2034 4750 
Q 2731 4750 3128 4425 
Q 3525 4100 3525 3541 
Q 3525 3141 3298 2862 
Q 3072 2584 2669 2484 
Q 3125 2378 3379 2068 
Q 3634 1759 3634 1313 
Q 3634 634 3220 271 
Q 2806 -91 2034 -91 
Q 1263 -91 848 271 
Q 434 634 434 1313 
Q 434 1759 690 2068 
Q 947 2378 1403 2484 
z
M 1172 3481 
Q 1172 3119 1398 2916 
Q 1625 2713 2034 2713 
Q 2441 2713 2670 2916 
Q 2900 3119 2900 3481 
Q 2900 3844 2670 4047 
Q 2441 4250 2034 4250 
Q 1625 4250 1398 4047 
Q 1172 3844 1172 3481 
z
" transform="scale(0.015625)"/>
       </defs>
       <use xlink:href="#DejaVuSans-30"/>
       <use xlink:href="#DejaVuSans-2e" x="63.623047"/>
       <use xlink:href="#DejaVuSans-38" x="95.410156"/>
      </g>
     </g>
    </g>
    <g id="ytick_5">
     <g id="line2d_12">
      <path d="M 468.363668 298.77621 
C 468.363668 272.844065 463.255601 247.164078 453.331799 223.2059 
C 443.407997 199.247722 428.861452 177.47728 410.524657 159.140485 
C 392.187861 140.803689 370.417419 126.257145 346.459241 116.333343 
C 322.501064 106.409541 296.821076 101.301473 270.888931 101.301473 
C 244.956787 101.301473 219.276799 106.409541 195.318621 116.333343 
C 171.360443 126.257145 149.590001 140.803689 131.253206 159.140485 
C 112.91641 177.47728 98.369866 199.247722 88.446064 223.2059 
C 78.522262 247.164078 73.414195 272.844065 73.414195 298.77621 
C 73.414195 324.708355 78.522262 350.388343 88.446064 374.34652 
C 98.369866 398.304698 112.91641 420.07514 131.253206 438.411936 
C 149.590001 456.748731 171.360443 471.295276 195.318621 481.219078 
C 219.276799 491.14288 244.956787 496.250947 270.888931 496.250947 
C 296.821076 496.250947 322.501064 491.14288 346.459241 481.219078 
C 370.417419 471.295276 392.187861 456.748731 410.524657 438.411936 
C 428.861452 420.07514 443.407997 398.304698 453.331799 374.34652 
C 463.255601 350.388343 468.363668 324.708355 468.363668 298.77621 
" clip-path="url(#p8bf0801da4)" style="fill: none; stroke: #b0b0b0; stroke-width: 0.8; stroke-linecap: square"/>
     </g>
     <g id="text_12">
      <!-- 0.9 -->
      <g transform="translate(453.331799 221.126213) scale(0.1 -0.1)">
       <defs>
        <path id="DejaVuSans-39" d="M 703 97 
L 703 672 
Q 941 559 1184 500 
Q 1428 441 1663 441 
Q 2288 441 2617 861 
Q 2947 1281 2994 2138 
Q 2813 1869 2534 1725 
Q 2256 1581 1919 1581 
Q 1219 1581 811 2004 
Q 403 2428 403 3163 
Q 403 3881 828 4315 
Q 1253 4750 1959 4750 
Q 2769 4750 3195 4129 
Q 3622 3509 3622 2328 
Q 3622 1225 3098 567 
Q 2575 -91 1691 -91 
Q 1453 -91 1209 -44 
Q 966 3 703 97 
z
M 1959 2075 
Q 2384 2075 2632 2365 
Q 2881 2656 2881 3163 
Q 2881 3666 2632 3958 
Q 2384 4250 1959 4250 
Q 1534 4250 1286 3958 
Q 1038 3666 1038 3163 
Q 1038 2656 1286 2365 
Q 1534 2075 1959 2075 
z
" transform="scale(0.015625)"/>
       </defs>
       <use xlink:href="#DejaVuSans-30"/>
       <use xlink:href="#DejaVuSans-2e" x="63.623047"/>
       <use xlink:href="#DejaVuSans-39" x="95.410156"/>
      </g>
     </g>
    </g>
    <g id="ytick_6">
     <g id="line2d_13">
      <path d="M 507.858616 298.77621 
C 507.858616 267.657636 501.728935 236.841652 489.820372 208.091838 
C 477.91181 179.342025 460.455957 153.217494 438.451802 131.21334 
C 416.447647 109.209185 390.323117 91.753332 361.573303 79.844769 
C 332.82349 67.936207 302.007505 61.806526 270.888931 61.806526 
C 239.770358 61.806526 208.954373 67.936207 180.204559 79.844769 
C 151.454746 91.753332 125.330215 109.209185 103.326061 131.21334 
C 81.321906 153.217494 63.866053 179.342025 51.95749 208.091838 
C 40.048928 236.841652 33.919247 267.657636 33.919247 298.77621 
C 33.919247 329.894784 40.048928 360.710769 51.95749 389.460582 
C 63.866053 418.210396 81.321906 444.334926 103.326061 466.339081 
C 125.330215 488.343235 151.454746 505.799089 180.204559 517.707651 
C 208.954373 529.616214 239.770358 535.745894 270.888931 535.745894 
C 302.007505 535.745894 332.82349 529.616214 361.573303 517.707651 
C 390.323117 505.799089 416.447647 488.343235 438.451802 466.339081 
C 460.455957 444.334926 477.91181 418.210396 489.820372 389.460582 
C 501.728935 360.710769 507.858616 329.894784 507.858616 298.77621 
" clip-path="url(#p8bf0801da4)" style="fill: none; stroke: #b0b0b0; stroke-width: 0.8; stroke-linecap: square"/>
     </g>
     <g id="text_13">
      <!-- 1.0 -->
      <g transform="translate(489.820372 206.012151) scale(0.1 -0.1)">
       <use xlink:href="#DejaVuSans-31"/>
       <use xlink:href="#DejaVuSans-2e" x="63.623047"/>
       <use xlink:href="#DejaVuSans-30" x="95.410156"/>
      </g>
     </g>
    </g>
   </g>
   <g id="line2d_14">
    <path d="M 494.572227 298.77621 
L 410.745627 123.401461 
L 222.66927 87.512068 
L 82.592817 208.097581 
L 59.701862 400.478543 
L 221.138306 516.74794 
L 413.955563 478.176092 
L 494.572227 298.77621 
" clip-path="url(#p8bf0801da4)" style="fill: none; stroke: #0000ff; stroke-width: 2; stroke-linecap: square"/>
   </g>
   <g id="line2d_15">
    <path d="M 502.770398 298.77621 
L 399.592783 137.386685 
L 227.102956 106.937316 
L 79.114896 206.422702 
L 63.731429 398.538005 
L 221.302228 516.029753 
L 404.186543 465.926128 
L 502.770398 298.77621 
" clip-path="url(#p8bf0801da4)" style="fill: none; stroke: #ff0000; stroke-width: 2; stroke-linecap: square"/>
   </g>
   <g id="line2d_16">
    <path d="M 500.972783 298.77621 
L 411.005838 123.075166 
L 221.201725 81.082337 
L 80.118792 206.906153 
L 60.582455 400.054472 
L 221.105158 516.893173 
L 407.471046 470.044765 
L 500.972783 298.77621 
" clip-path="url(#p8bf0801da4)" style="fill: none; stroke: #008000; stroke-width: 2; stroke-linecap: square"/>
   </g>
   <g id="patch_6">
    <path d="M 507.858616 298.77621 
C 507.858616 267.657636 501.728935 236.841652 489.820372 208.091838 
C 477.91181 179.342025 460.455957 153.217494 438.451802 131.21334 
C 416.447647 109.209185 390.323117 91.753332 361.573303 79.844769 
C 332.82349 67.936207 302.007505 61.806526 270.888931 61.806526 
C 239.770358 61.806526 208.954373 67.936207 180.204559 79.844769 
C 151.454746 91.753332 125.330215 109.209185 103.326061 131.21334 
C 81.321906 153.217494 63.866053 179.342025 51.95749 208.091838 
C 40.048928 236.841652 33.919247 267.657636 33.919247 298.77621 
C 33.919247 329.894784 40.048928 360.710769 51.95749 389.460582 
C 63.866053 418.210396 81.321906 444.334926 103.326061 466.339081 
C 125.330215 488.343235 151.454746 505.799089 180.204559 517.707651 
C 208.954373 529.616214 239.770358 535.745894 270.888931 535.745894 
C 302.007505 535.745894 332.82349 529.616214 361.573303 517.707651 
C 390.323117 505.799089 416.447647 488.343235 438.451802 466.339081 
C 460.455957 444.334926 477.91181 418.210396 489.820372 389.460582 
C 501.728935 360.710769 507.858616 329.894784 507.858616 298.77621 
" style="fill: none; stroke: #000000; stroke-width: 0.8; stroke-linejoin: miter; stroke-linecap: square"/>
   </g>
  </g>
  <g id="axes_2">
   <g id="patch_7">
    <path d="M 1072.12 298.77621 
C 1072.12 267.657636 1065.990319 236.841652 1054.081757 208.091838 
C 1042.173194 179.342025 1024.717341 153.217494 1002.713186 131.21334 
C 980.709032 109.209185 954.584501 91.753332 925.834688 79.844769 
C 897.084874 67.936207 866.26889 61.806526 835.150316 61.806526 
C 804.031742 61.806526 773.215757 67.936207 744.465944 79.844769 
C 715.71613 91.753332 689.5916 109.209185 667.587445 131.21334 
C 645.583291 153.217494 628.127437 179.342025 616.218875 208.091838 
C 604.310312 236.841652 598.180632 267.657636 598.180632 298.77621 
C 598.180632 329.894784 604.310312 360.710769 616.218875 389.460582 
C 628.127437 418.210396 645.583291 444.334926 667.587445 466.339081 
C 689.5916 488.343235 715.71613 505.799089 744.465944 517.707651 
C 773.215757 529.616214 804.031742 535.745894 835.150316 535.745894 
C 866.26889 535.745894 897.084874 529.616214 925.834688 517.707651 
C 954.584501 505.799089 980.709032 488.343235 1002.713186 466.339081 
C 1024.717341 444.334926 1042.173194 418.210396 1054.081757 389.460582 
C 1065.990319 360.710769 1072.12 329.894784 1072.12 298.77621 
M 835.150316 298.77621 
C 835.150316 298.77621 835.150316 298.77621 835.150316 298.77621 
C 835.150316 298.77621 835.150316 298.77621 835.150316 298.77621 
C 835.150316 298.77621 835.150316 298.77621 835.150316 298.77621 
C 835.150316 298.77621 835.150316 298.77621 835.150316 298.77621 
C 835.150316 298.77621 835.150316 298.77621 835.150316 298.77621 
C 835.150316 298.77621 835.150316 298.77621 835.150316 298.77621 
C 835.150316 298.77621 835.150316 298.77621 835.150316 298.77621 
C 835.150316 298.77621 835.150316 298.77621 835.150316 298.77621 
C 835.150316 298.77621 835.150316 298.77621 835.150316 298.77621 
C 835.150316 298.77621 835.150316 298.77621 835.150316 298.77621 
C 835.150316 298.77621 835.150316 298.77621 835.150316 298.77621 
C 835.150316 298.77621 835.150316 298.77621 835.150316 298.77621 
C 835.150316 298.77621 835.150316 298.77621 835.150316 298.77621 
C 835.150316 298.77621 835.150316 298.77621 835.150316 298.77621 
C 835.150316 298.77621 835.150316 298.77621 835.150316 298.77621 
C 835.150316 298.77621 835.150316 298.77621 835.150316 298.77621 
z
" style="fill: #ffffff"/>
   </g>
   <g id="patch_8">
    <path d="M 1061.87386 298.77621 
L 1037.319111 192.669841 
L 928.035215 164.209202 
L 861.947882 78.078396 
L 756.564026 91.561193 
L 810.752541 277.161668 
L 612.853855 243.985054 
L 617.770078 352.355627 
L 671.487958 443.768407 
L 760.812012 494.790209 
L 861.136522 512.791876 
L 953.047947 469.580417 
L 997.822521 384.15317 
z
" clip-path="url(#p8a3cc6698c)" style="fill: #0000ff; opacity: 0.25; stroke: #0000ff; stroke-linejoin: miter"/>
   </g>
   <g id="patch_9">
    <path d="M 1057.648604 298.77621 
L 1033.790187 194.521963 
L 939.409445 147.730785 
L 861.553694 81.324823 
L 755.616819 89.063615 
L 745.806465 219.624466 
L 634.544346 249.33128 
L 626.684793 350.158347 
L 674.2267 441.342093 
L 767.490477 477.180543 
L 860.779025 509.847619 
L 954.741767 472.034338 
L 996.417991 383.416016 
z
" clip-path="url(#p8a3cc6698c)" style="fill: #ff0000; opacity: 0.3; stroke: #ff0000; stroke-linejoin: miter"/>
   </g>
   <g id="patch_10">
    <path d="M 1061.91186 298.77621 
L 1036.918831 192.879924 
L 946.440328 137.544793 
L 862.131171 76.568875 
L 756.566731 91.568326 
L 780.040668 249.953323 
L 614.653823 244.428706 
L 620.017374 351.801718 
L 671.86381 443.435432 
L 762.979685 489.074524 
L 861.249097 513.719012 
L 954.26166 471.338783 
L 992.197489 381.200925 
z
" clip-path="url(#p8a3cc6698c)" style="fill: #008000; opacity: 0.35; stroke: #008000; stroke-linejoin: miter"/>
   </g>
   <g id="matplotlib.axis_3">
    <g id="xtick_8">
     <g id="line2d_17">
      <path d="M 835.150316 298.77621 
L 1072.12 298.77621 
" clip-path="url(#p8a3cc6698c)" style="fill: none; stroke: #b0b0b0; stroke-width: 0.8; stroke-linecap: square"/>
     </g>
     <g id="text_14">
      <!-- L_Shoulder -->
      <g transform="translate(1031.015312 304.016835) scale(0.2 -0.2)">
       <defs>
        <path id="DejaVuSans-4c" d="M 628 4666 
L 1259 4666 
L 1259 531 
L 3531 531 
L 3531 0 
L 628 0 
L 628 4666 
z
" transform="scale(0.015625)"/>
        <path id="DejaVuSans-5f" d="M 3263 -1063 
L 3263 -1509 
L -63 -1509 
L -63 -1063 
L 3263 -1063 
z
" transform="scale(0.015625)"/>
        <path id="DejaVuSans-53" d="M 3425 4513 
L 3425 3897 
Q 3066 4069 2747 4153 
Q 2428 4238 2131 4238 
Q 1616 4238 1336 4038 
Q 1056 3838 1056 3469 
Q 1056 3159 1242 3001 
Q 1428 2844 1947 2747 
L 2328 2669 
Q 3034 2534 3370 2195 
Q 3706 1856 3706 1288 
Q 3706 609 3251 259 
Q 2797 -91 1919 -91 
Q 1588 -91 1214 -16 
Q 841 59 441 206 
L 441 856 
Q 825 641 1194 531 
Q 1563 422 1919 422 
Q 2459 422 2753 634 
Q 3047 847 3047 1241 
Q 3047 1584 2836 1778 
Q 2625 1972 2144 2069 
L 1759 2144 
Q 1053 2284 737 2584 
Q 422 2884 422 3419 
Q 422 4038 858 4394 
Q 1294 4750 2059 4750 
Q 2388 4750 2728 4690 
Q 3069 4631 3425 4513 
z
" transform="scale(0.015625)"/>
        <path id="DejaVuSans-68" d="M 3513 2113 
L 3513 0 
L 2938 0 
L 2938 2094 
Q 2938 2591 2744 2837 
Q 2550 3084 2163 3084 
Q 1697 3084 1428 2787 
Q 1159 2491 1159 1978 
L 1159 0 
L 581 0 
L 581 4863 
L 1159 4863 
L 1159 2956 
Q 1366 3272 1645 3428 
Q 1925 3584 2291 3584 
Q 2894 3584 3203 3211 
Q 3513 2838 3513 2113 
z
" transform="scale(0.015625)"/>
        <path id="DejaVuSans-75" d="M 544 1381 
L 544 3500 
L 1119 3500 
L 1119 1403 
Q 1119 906 1312 657 
Q 1506 409 1894 409 
Q 2359 409 2629 706 
Q 2900 1003 2900 1516 
L 2900 3500 
L 3475 3500 
L 3475 0 
L 2900 0 
L 2900 538 
Q 2691 219 2414 64 
Q 2138 -91 1772 -91 
Q 1169 -91 856 284 
Q 544 659 544 1381 
z
M 1991 3584 
L 1991 3584 
z
" transform="scale(0.015625)"/>
        <path id="DejaVuSans-6c" d="M 603 4863 
L 1178 4863 
L 1178 0 
L 603 0 
L 603 4863 
z
" transform="scale(0.015625)"/>
        <path id="DejaVuSans-72" d="M 2631 2963 
Q 2534 3019 2420 3045 
Q 2306 3072 2169 3072 
Q 1681 3072 1420 2755 
Q 1159 2438 1159 1844 
L 1159 0 
L 581 0 
L 581 3500 
L 1159 3500 
L 1159 2956 
Q 1341 3275 1631 3429 
Q 1922 3584 2338 3584 
Q 2397 3584 2469 3576 
Q 2541 3569 2628 3553 
L 2631 2963 
z
" transform="scale(0.015625)"/>
       </defs>
       <use xlink:href="#DejaVuSans-4c"/>
       <use xlink:href="#DejaVuSans-5f" x="55.712891"/>
       <use xlink:href="#DejaVuSans-53" x="105.712891"/>
       <use xlink:href="#DejaVuSans-68" x="169.189453"/>
       <use xlink:href="#DejaVuSans-6f" x="232.568359"/>
       <use xlink:href="#DejaVuSans-75" x="293.75"/>
       <use xlink:href="#DejaVuSans-6c" x="357.128906"/>
       <use xlink:href="#DejaVuSans-64" x="384.912109"/>
       <use xlink:href="#DejaVuSans-65" x="448.388672"/>
       <use xlink:href="#DejaVuSans-72" x="509.912109"/>
      </g>
     </g>
    </g>
    <g id="xtick_9">
     <g id="line2d_18">
      <path d="M 835.150316 298.77621 
L 1044.976551 188.650907 
" clip-path="url(#p8a3cc6698c)" style="fill: none; stroke: #b0b0b0; stroke-width: 0.8; stroke-linecap: square"/>
     </g>
     <g id="text_15">
      <!-- L_Elbow -->
      <g transform="translate(1017.058872 187.385408) scale(0.2 -0.2)">
       <defs>
        <path id="DejaVuSans-45" d="M 628 4666 
L 3578 4666 
L 3578 4134 
L 1259 4134 
L 1259 2753 
L 3481 2753 
L 3481 2222 
L 1259 2222 
L 1259 531 
L 3634 531 
L 3634 0 
L 628 0 
L 628 4666 
z
" transform="scale(0.015625)"/>
        <path id="DejaVuSans-62" d="M 3116 1747 
Q 3116 2381 2855 2742 
Q 2594 3103 2138 3103 
Q 1681 3103 1420 2742 
Q 1159 2381 1159 1747 
Q 1159 1113 1420 752 
Q 1681 391 2138 391 
Q 2594 391 2855 752 
Q 3116 1113 3116 1747 
z
M 1159 2969 
Q 1341 3281 1617 3432 
Q 1894 3584 2278 3584 
Q 2916 3584 3314 3078 
Q 3713 2572 3713 1747 
Q 3713 922 3314 415 
Q 2916 -91 2278 -91 
Q 1894 -91 1617 61 
Q 1341 213 1159 525 
L 1159 0 
L 581 0 
L 581 4863 
L 1159 4863 
L 1159 2969 
z
" transform="scale(0.015625)"/>
        <path id="DejaVuSans-77" d="M 269 3500 
L 844 3500 
L 1563 769 
L 2278 3500 
L 2956 3500 
L 3675 769 
L 4391 3500 
L 4966 3500 
L 4050 0 
L 3372 0 
L 2619 2869 
L 1863 0 
L 1184 0 
L 269 3500 
z
" transform="scale(0.015625)"/>
       </defs>
       <use xlink:href="#DejaVuSans-4c"/>
       <use xlink:href="#DejaVuSans-5f" x="55.712891"/>
       <use xlink:href="#DejaVuSans-45" x="105.712891"/>
       <use xlink:href="#DejaVuSans-6c" x="168.896484"/>
       <use xlink:href="#DejaVuSans-62" x="196.679688"/>
       <use xlink:href="#DejaVuSans-6f" x="260.15625"/>
       <use xlink:href="#DejaVuSans-77" x="321.337891"/>
      </g>
     </g>
    </g>
    <g id="xtick_10">
     <g id="line2d_19">
      <path d="M 835.150316 298.77621 
L 969.764439 103.753983 
" clip-path="url(#p8a3cc6698c)" style="fill: none; stroke: #b0b0b0; stroke-width: 0.8; stroke-linecap: square"/>
     </g>
     <g id="text_16">
      <!-- L_F_Paw -->
      <g transform="translate(936.507971 97.194709) scale(0.2 -0.2)">
       <defs>
        <path id="DejaVuSans-46" d="M 628 4666 
L 3309 4666 
L 3309 4134 
L 1259 4134 
L 1259 2759 
L 3109 2759 
L 3109 2228 
L 1259 2228 
L 1259 0 
L 628 0 
L 628 4666 
z
" transform="scale(0.015625)"/>
        <path id="DejaVuSans-50" d="M 1259 4147 
L 1259 2394 
L 2053 2394 
Q 2494 2394 2734 2622 
Q 2975 2850 2975 3272 
Q 2975 3691 2734 3919 
Q 2494 4147 2053 4147 
L 1259 4147 
z
M 628 4666 
L 2053 4666 
Q 2838 4666 3239 4311 
Q 3641 3956 3641 3272 
Q 3641 2581 3239 2228 
Q 2838 1875 2053 1875 
L 1259 1875 
L 1259 0 
L 628 0 
L 628 4666 
z
" transform="scale(0.015625)"/>
       </defs>
       <use xlink:href="#DejaVuSans-4c"/>
       <use xlink:href="#DejaVuSans-5f" x="55.712891"/>
       <use xlink:href="#DejaVuSans-46" x="105.712891"/>
       <use xlink:href="#DejaVuSans-5f" x="163.232422"/>
       <use xlink:href="#DejaVuSans-50" x="213.232422"/>
       <use xlink:href="#DejaVuSans-61" x="269.035156"/>
       <use xlink:href="#DejaVuSans-77" x="330.314453"/>
      </g>
     </g>
    </g>
    <g id="xtick_11">
     <g id="line2d_20">
      <path d="M 835.150316 298.77621 
L 863.713855 63.534302 
" clip-path="url(#p8a3cc6698c)" style="fill: none; stroke: #b0b0b0; stroke-width: 0.8; stroke-linecap: square"/>
     </g>
     <g id="text_17">
      <!-- R_Shoulder -->
      <g transform="translate(808.920118 54.877003) scale(0.2 -0.2)">
       <defs>
        <path id="DejaVuSans-52" d="M 2841 2188 
Q 3044 2119 3236 1894 
Q 3428 1669 3622 1275 
L 4263 0 
L 3584 0 
L 2988 1197 
Q 2756 1666 2539 1819 
Q 2322 1972 1947 1972 
L 1259 1972 
L 1259 0 
L 628 0 
L 628 4666 
L 2053 4666 
Q 2853 4666 3247 4331 
Q 3641 3997 3641 3322 
Q 3641 2881 3436 2590 
Q 3231 2300 2841 2188 
z
M 1259 4147 
L 1259 2491 
L 2053 2491 
Q 2509 2491 2742 2702 
Q 2975 2913 2975 3322 
Q 2975 3731 2742 3939 
Q 2509 4147 2053 4147 
L 1259 4147 
z
" transform="scale(0.015625)"/>
       </defs>
       <use xlink:href="#DejaVuSans-52"/>
       <use xlink:href="#DejaVuSans-5f" x="69.482422"/>
       <use xlink:href="#DejaVuSans-53" x="119.482422"/>
       <use xlink:href="#DejaVuSans-68" x="182.958984"/>
       <use xlink:href="#DejaVuSans-6f" x="246.337891"/>
       <use xlink:href="#DejaVuSans-75" x="307.519531"/>
       <use xlink:href="#DejaVuSans-6c" x="370.898438"/>
       <use xlink:href="#DejaVuSans-64" x="398.681641"/>
       <use xlink:href="#DejaVuSans-65" x="462.158203"/>
       <use xlink:href="#DejaVuSans-72" x="523.681641"/>
      </g>
     </g>
    </g>
    <g id="xtick_12">
     <g id="line2d_21">
      <path d="M 835.150316 298.77621 
L 751.119708 77.205707 
" clip-path="url(#p8a3cc6698c)" style="fill: none; stroke: #b0b0b0; stroke-width: 0.8; stroke-linecap: square"/>
     </g>
     <g id="text_18">
      <!-- R_Elbow -->
      <g transform="translate(704.464614 69.356104) scale(0.2 -0.2)">
       <use xlink:href="#DejaVuSans-52"/>
       <use xlink:href="#DejaVuSans-5f" x="69.482422"/>
       <use xlink:href="#DejaVuSans-45" x="119.482422"/>
       <use xlink:href="#DejaVuSans-6c" x="182.666016"/>
       <use xlink:href="#DejaVuSans-62" x="210.449219"/>
       <use xlink:href="#DejaVuSans-6f" x="273.925781"/>
       <use xlink:href="#DejaVuSans-77" x="335.107422"/>
      </g>
     </g>
    </g>
    <g id="xtick_13">
     <g id="line2d_22">
      <path d="M 835.150316 298.77621 
L 657.77596 141.636243 
" clip-path="url(#p8a3cc6698c)" style="fill: none; stroke: #b0b0b0; stroke-width: 0.8; stroke-linecap: square"/>
     </g>
     <g id="text_19">
      <!-- R_F_Paw -->
      <g transform="translate(604.710872 137.315026) scale(0.2 -0.2)">
       <use xlink:href="#DejaVuSans-52"/>
       <use xlink:href="#DejaVuSans-5f" x="69.482422"/>
       <use xlink:href="#DejaVuSans-46" x="119.482422"/>
       <use xlink:href="#DejaVuSans-5f" x="177.001953"/>
       <use xlink:href="#DejaVuSans-50" x="227.001953"/>
       <use xlink:href="#DejaVuSans-61" x="282.804688"/>
       <use xlink:href="#DejaVuSans-77" x="344.083984"/>
      </g>
     </g>
    </g>
    <g id="xtick_14">
     <g id="line2d_23">
      <path d="M 835.150316 298.77621 
L 605.06654 242.065653 
" clip-path="url(#p8a3cc6698c)" style="fill: none; stroke: #b0b0b0; stroke-width: 0.8; stroke-linecap: square"/>
     </g>
     <g id="text_20">
      <!-- Belly -->
      <g transform="translate(566.984292 244.233984) scale(0.2 -0.2)">
       <defs>
        <path id="DejaVuSans-79" d="M 2059 -325 
Q 1816 -950 1584 -1140 
Q 1353 -1331 966 -1331 
L 506 -1331 
L 506 -850 
L 844 -850 
Q 1081 -850 1212 -737 
Q 1344 -625 1503 -206 
L 1606 56 
L 191 3500 
L 800 3500 
L 1894 763 
L 2988 3500 
L 3597 3500 
L 2059 -325 
z
" transform="scale(0.015625)"/>
       </defs>
       <use xlink:href="#DejaVuSans-42"/>
       <use xlink:href="#DejaVuSans-65" x="68.603516"/>
       <use xlink:href="#DejaVuSans-6c" x="130.126953"/>
       <use xlink:href="#DejaVuSans-6c" x="157.910156"/>
       <use xlink:href="#DejaVuSans-79" x="185.693359"/>
      </g>
     </g>
    </g>
    <g id="xtick_15">
     <g id="line2d_24">
      <path d="M 835.150316 298.77621 
L 605.06654 355.486768 
" clip-path="url(#p8a3cc6698c)" style="fill: none; stroke: #b0b0b0; stroke-width: 0.8; stroke-linecap: square"/>
     </g>
     <g id="text_21">
      <!-- L_Hip -->
      <g transform="translate(564.254605 364.077812) scale(0.2 -0.2)">
       <defs>
        <path id="DejaVuSans-69" d="M 603 3500 
L 1178 3500 
L 1178 0 
L 603 0 
L 603 3500 
z
M 603 4863 
L 1178 4863 
L 1178 4134 
L 603 4134 
L 603 4863 
z
" transform="scale(0.015625)"/>
        <path id="DejaVuSans-70" d="M 1159 525 
L 1159 -1331 
L 581 -1331 
L 581 3500 
L 1159 3500 
L 1159 2969 
Q 1341 3281 1617 3432 
Q 1894 3584 2278 3584 
Q 2916 3584 3314 3078 
Q 3713 2572 3713 1747 
Q 3713 922 3314 415 
Q 2916 -91 2278 -91 
Q 1894 -91 1617 61 
Q 1341 213 1159 525 
z
M 3116 1747 
Q 3116 2381 2855 2742 
Q 2594 3103 2138 3103 
Q 1681 3103 1420 2742 
Q 1159 2381 1159 1747 
Q 1159 1113 1420 752 
Q 1681 391 2138 391 
Q 2594 391 2855 752 
Q 3116 1113 3116 1747 
z
" transform="scale(0.015625)"/>
       </defs>
       <use xlink:href="#DejaVuSans-4c"/>
       <use xlink:href="#DejaVuSans-5f" x="55.712891"/>
       <use xlink:href="#DejaVuSans-48" x="105.712891"/>
       <use xlink:href="#DejaVuSans-69" x="180.908203"/>
       <use xlink:href="#DejaVuSans-70" x="208.691406"/>
      </g>
     </g>
    </g>
    <g id="xtick_16">
     <g id="line2d_25">
      <path d="M 835.150316 298.77621 
L 657.77596 455.916177 
" clip-path="url(#p8a3cc6698c)" style="fill: none; stroke: #b0b0b0; stroke-width: 0.8; stroke-linecap: square"/>
     </g>
     <g id="text_22">
      <!-- L_Knee -->
      <g transform="translate(611.523372 470.162394) scale(0.2 -0.2)">
       <defs>
        <path id="DejaVuSans-4b" d="M 628 4666 
L 1259 4666 
L 1259 2694 
L 3353 4666 
L 4166 4666 
L 1850 2491 
L 4331 0 
L 3500 0 
L 1259 2247 
L 1259 0 
L 628 0 
L 628 4666 
z
" transform="scale(0.015625)"/>
        <path id="DejaVuSans-6e" d="M 3513 2113 
L 3513 0 
L 2938 0 
L 2938 2094 
Q 2938 2591 2744 2837 
Q 2550 3084 2163 3084 
Q 1697 3084 1428 2787 
Q 1159 2491 1159 1978 
L 1159 0 
L 581 0 
L 581 3500 
L 1159 3500 
L 1159 2956 
Q 1366 3272 1645 3428 
Q 1925 3584 2291 3584 
Q 2894 3584 3203 3211 
Q 3513 2838 3513 2113 
z
" transform="scale(0.015625)"/>
       </defs>
       <use xlink:href="#DejaVuSans-4c"/>
       <use xlink:href="#DejaVuSans-5f" x="55.712891"/>
       <use xlink:href="#DejaVuSans-4b" x="105.712891"/>
       <use xlink:href="#DejaVuSans-6e" x="171.289062"/>
       <use xlink:href="#DejaVuSans-65" x="234.667969"/>
       <use xlink:href="#DejaVuSans-65" x="296.191406"/>
      </g>
     </g>
    </g>
    <g id="xtick_17">
     <g id="line2d_26">
      <path d="M 835.150316 298.77621 
L 751.119708 520.346714 
" clip-path="url(#p8a3cc6698c)" style="fill: none; stroke: #b0b0b0; stroke-width: 0.8; stroke-linecap: square"/>
     </g>
     <g id="text_23">
      <!-- L_H_Paw -->
      <g transform="translate(703.177114 538.399441) scale(0.2 -0.2)">
       <use xlink:href="#DejaVuSans-4c"/>
       <use xlink:href="#DejaVuSans-5f" x="55.712891"/>
       <use xlink:href="#DejaVuSans-48" x="105.712891"/>
       <use xlink:href="#DejaVuSans-5f" x="180.908203"/>
       <use xlink:href="#DejaVuSans-50" x="230.908203"/>
       <use xlink:href="#DejaVuSans-61" x="286.710938"/>
       <use xlink:href="#DejaVuSans-77" x="347.990234"/>
      </g>
     </g>
    </g>
    <g id="xtick_18">
     <g id="line2d_27">
      <path d="M 835.150316 298.77621 
L 863.713855 534.018119 
" clip-path="url(#p8a3cc6698c)" style="fill: none; stroke: #b0b0b0; stroke-width: 0.8; stroke-linecap: square"/>
     </g>
     <g id="text_24">
      <!-- R_Hip -->
      <g transform="translate(836.806056 553.156668) scale(0.2 -0.2)">
       <use xlink:href="#DejaVuSans-52"/>
       <use xlink:href="#DejaVuSans-5f" x="69.482422"/>
       <use xlink:href="#DejaVuSans-48" x="119.482422"/>
       <use xlink:href="#DejaVuSans-69" x="194.677734"/>
       <use xlink:href="#DejaVuSans-70" x="222.460938"/>
      </g>
     </g>
    </g>
    <g id="xtick_19">
     <g id="line2d_28">
      <path d="M 835.150316 298.77621 
L 969.764439 493.798437 
" clip-path="url(#p8a3cc6698c)" style="fill: none; stroke: #b0b0b0; stroke-width: 0.8; stroke-linecap: square"/>
     </g>
     <g id="text_25">
      <!-- R_Knee -->
      <g transform="translate(940.567346 510.282711) scale(0.2 -0.2)">
       <use xlink:href="#DejaVuSans-52"/>
       <use xlink:href="#DejaVuSans-5f" x="69.482422"/>
       <use xlink:href="#DejaVuSans-4b" x="119.482422"/>
       <use xlink:href="#DejaVuSans-6e" x="185.058594"/>
       <use xlink:href="#DejaVuSans-65" x="248.4375"/>
       <use xlink:href="#DejaVuSans-65" x="309.960938"/>
      </g>
     </g>
    </g>
    <g id="xtick_20">
     <g id="line2d_29">
      <path d="M 835.150316 298.77621 
L 1044.976551 408.901514 
" clip-path="url(#p8a3cc6698c)" style="fill: none; stroke: #b0b0b0; stroke-width: 0.8; stroke-linecap: square"/>
     </g>
     <g id="text_26">
      <!-- R_H_Paw -->
      <g transform="translate(1013.018247 420.370138) scale(0.2 -0.2)">
       <use xlink:href="#DejaVuSans-52"/>
       <use xlink:href="#DejaVuSans-5f" x="69.482422"/>
       <use xlink:href="#DejaVuSans-48" x="119.482422"/>
       <use xlink:href="#DejaVuSans-5f" x="194.677734"/>
       <use xlink:href="#DejaVuSans-50" x="244.677734"/>
       <use xlink:href="#DejaVuSans-61" x="300.480469"/>
       <use xlink:href="#DejaVuSans-77" x="361.759766"/>
      </g>
     </g>
    </g>
   </g>
   <g id="matplotlib.axis_4">
    <g id="ytick_7">
     <g id="line2d_30">
      <path d="M 874.645263 298.77621 
C 874.645263 293.589781 873.62365 288.453784 871.638889 283.662148 
C 869.654129 278.870513 866.74482 274.516424 863.077461 270.849065 
C 859.410102 267.181706 855.056013 264.272397 850.264378 262.287637 
C 845.472742 260.302876 840.336745 259.281263 835.150316 259.281263 
C 829.963887 259.281263 824.827889 260.302876 820.036254 262.287637 
C 815.244618 264.272397 810.89053 267.181706 807.223171 270.849065 
C 803.555812 274.516424 800.646503 278.870513 798.661742 283.662148 
C 796.676982 288.453784 795.655368 293.589781 795.655368 298.77621 
C 795.655368 303.962639 796.676982 309.098637 798.661742 313.890272 
C 800.646503 318.681908 803.555812 323.035996 807.223171 326.703355 
C 810.89053 330.370714 815.244618 333.280023 820.036254 335.264784 
C 824.827889 337.249544 829.963887 338.271158 835.150316 338.271158 
C 840.336745 338.271158 845.472742 337.249544 850.264378 335.264784 
C 855.056013 333.280023 859.410102 330.370714 863.077461 326.703355 
C 866.74482 323.035996 869.654129 318.681908 871.638889 313.890272 
C 873.62365 309.098637 874.645263 303.962639 874.645263 298.77621 
" clip-path="url(#p8a3cc6698c)" style="fill: none; stroke: #b0b0b0; stroke-width: 0.8; stroke-linecap: square"/>
     </g>
     <g id="text_27">
      <!-- 0.5 -->
      <g transform="translate(871.638889 281.582461) scale(0.1 -0.1)">
       <use xlink:href="#DejaVuSans-30"/>
       <use xlink:href="#DejaVuSans-2e" x="63.623047"/>
       <use xlink:href="#DejaVuSans-35" x="95.410156"/>
      </g>
     </g>
    </g>
    <g id="ytick_8">
     <g id="line2d_31">
      <path d="M 914.140211 298.77621 
C 914.140211 288.403352 912.096984 278.131357 908.127463 268.548086 
C 904.157942 258.964815 898.339324 250.256638 891.004606 242.92192 
C 883.669888 235.587202 874.961711 229.768584 865.37844 225.799063 
C 855.795169 221.829542 845.523174 219.786316 835.150316 219.786316 
C 824.777458 219.786316 814.505463 221.829542 804.922192 225.799063 
C 795.338921 229.768584 786.630744 235.587202 779.296026 242.92192 
C 771.961307 250.256638 766.14269 258.964815 762.173169 268.548086 
C 758.203648 278.131357 756.160421 288.403352 756.160421 298.77621 
C 756.160421 309.149068 758.203648 319.421063 762.173169 329.004334 
C 766.14269 338.587605 771.961307 347.295782 779.296026 354.630501 
C 786.630744 361.965219 795.338921 367.783836 804.922192 371.753357 
C 814.505463 375.722878 824.777458 377.766105 835.150316 377.766105 
C 845.523174 377.766105 855.795169 375.722878 865.37844 371.753357 
C 874.961711 367.783836 883.669888 361.965219 891.004606 354.630501 
C 898.339324 347.295782 904.157942 338.587605 908.127463 329.004334 
C 912.096984 319.421063 914.140211 309.149068 914.140211 298.77621 
" clip-path="url(#p8a3cc6698c)" style="fill: none; stroke: #b0b0b0; stroke-width: 0.8; stroke-linecap: square"/>
     </g>
     <g id="text_28">
      <!-- 0.6 -->
      <g transform="translate(908.127463 266.468399) scale(0.1 -0.1)">
       <use xlink:href="#DejaVuSans-30"/>
       <use xlink:href="#DejaVuSans-2e" x="63.623047"/>
       <use xlink:href="#DejaVuSans-36" x="95.410156"/>
      </g>
     </g>
    </g>
    <g id="ytick_9">
     <g id="line2d_32">
      <path d="M 953.635158 298.77621 
C 953.635158 283.216923 950.570318 267.808931 944.616036 253.434024 
C 938.661755 239.059118 929.933828 225.996852 918.931751 214.994775 
C 907.929674 203.992698 894.867409 195.264771 880.492502 189.31049 
C 866.117595 183.356208 850.709603 180.291368 835.150316 180.291368 
C 819.591029 180.291368 804.183036 183.356208 789.80813 189.31049 
C 775.433223 195.264771 762.370958 203.992698 751.36888 214.994775 
C 740.366803 225.996852 731.638877 239.059118 725.684595 253.434024 
C 719.730314 267.808931 716.665474 283.216923 716.665474 298.77621 
C 716.665474 314.335497 719.730314 329.74349 725.684595 344.118396 
C 731.638877 358.493303 740.366803 371.555568 751.36888 382.557646 
C 762.370958 393.559723 775.433223 402.28765 789.80813 408.241931 
C 804.183036 414.196212 819.591029 417.261052 835.150316 417.261052 
C 850.709603 417.261052 866.117595 414.196212 880.492502 408.241931 
C 894.867409 402.28765 907.929674 393.559723 918.931751 382.557646 
C 929.933828 371.555568 938.661755 358.493303 944.616036 344.118396 
C 950.570318 329.74349 953.635158 314.335497 953.635158 298.77621 
" clip-path="url(#p8a3cc6698c)" style="fill: none; stroke: #b0b0b0; stroke-width: 0.8; stroke-linecap: square"/>
     </g>
     <g id="text_29">
      <!-- 0.7 -->
      <g transform="translate(944.616036 251.354337) scale(0.1 -0.1)">
       <use xlink:href="#DejaVuSans-30"/>
       <use xlink:href="#DejaVuSans-2e" x="63.623047"/>
       <use xlink:href="#DejaVuSans-37" x="95.410156"/>
      </g>
     </g>
    </g>
    <g id="ytick_10">
     <g id="line2d_33">
      <path d="M 993.130105 298.77621 
C 993.130105 278.030494 989.043652 257.486504 981.10461 238.319962 
C 973.165568 219.15342 961.528333 201.737066 946.858896 187.06763 
C 932.18946 172.398193 914.773106 160.760958 895.606564 152.821916 
C 876.440022 144.882874 855.896032 140.796421 835.150316 140.796421 
C 814.4046 140.796421 793.86061 144.882874 774.694068 152.821916 
C 755.527525 160.760958 738.111172 172.398193 723.441735 187.06763 
C 708.772299 201.737066 697.135064 219.15342 689.196022 238.319962 
C 681.25698 257.486504 677.170526 278.030494 677.170526 298.77621 
C 677.170526 319.521926 681.25698 340.065916 689.196022 359.232458 
C 697.135064 378.399001 708.772299 395.815354 723.441735 410.484791 
C 738.111172 425.154227 755.527525 436.791463 774.694068 444.730504 
C 793.86061 452.669546 814.4046 456.756 835.150316 456.756 
C 855.896032 456.756 876.440022 452.669546 895.606564 444.730504 
C 914.773106 436.791463 932.18946 425.154227 946.858896 410.484791 
C 961.528333 395.815354 973.165568 378.399001 981.10461 359.232458 
C 989.043652 340.065916 993.130105 319.521926 993.130105 298.77621 
" clip-path="url(#p8a3cc6698c)" style="fill: none; stroke: #b0b0b0; stroke-width: 0.8; stroke-linecap: square"/>
     </g>
     <g id="text_30">
      <!-- 0.8 -->
      <g transform="translate(981.10461 236.240275) scale(0.1 -0.1)">
       <use xlink:href="#DejaVuSans-30"/>
       <use xlink:href="#DejaVuSans-2e" x="63.623047"/>
       <use xlink:href="#DejaVuSans-38" x="95.410156"/>
      </g>
     </g>
    </g>
    <g id="ytick_11">
     <g id="line2d_34">
      <path d="M 1032.625053 298.77621 
C 1032.625053 272.844065 1027.516986 247.164078 1017.593183 223.2059 
C 1007.669381 199.247722 993.122837 177.47728 974.786041 159.140485 
C 956.449246 140.803689 934.678804 126.257145 910.720626 116.333343 
C 886.762448 106.409541 861.082461 101.301473 835.150316 101.301473 
C 809.218171 101.301473 783.538184 106.409541 759.580006 116.333343 
C 735.621828 126.257145 713.851386 140.803689 695.51459 159.140485 
C 677.177795 177.47728 662.63125 199.247722 652.707448 223.2059 
C 642.783646 247.164078 637.675579 272.844065 637.675579 298.77621 
C 637.675579 324.708355 642.783646 350.388343 652.707448 374.34652 
C 662.63125 398.304698 677.177795 420.07514 695.51459 438.411936 
C 713.851386 456.748731 735.621828 471.295276 759.580006 481.219078 
C 783.538184 491.14288 809.218171 496.250947 835.150316 496.250947 
C 861.082461 496.250947 886.762448 491.14288 910.720626 481.219078 
C 934.678804 471.295276 956.449246 456.748731 974.786041 438.411936 
C 993.122837 420.07514 1007.669381 398.304698 1017.593183 374.34652 
C 1027.516986 350.388343 1032.625053 324.708355 1032.625053 298.77621 
" clip-path="url(#p8a3cc6698c)" style="fill: none; stroke: #b0b0b0; stroke-width: 0.8; stroke-linecap: square"/>
     </g>
     <g id="text_31">
      <!-- 0.9 -->
      <g transform="translate(1017.593183 221.126213) scale(0.1 -0.1)">
       <use xlink:href="#DejaVuSans-30"/>
       <use xlink:href="#DejaVuSans-2e" x="63.623047"/>
       <use xlink:href="#DejaVuSans-39" x="95.410156"/>
      </g>
     </g>
    </g>
    <g id="ytick_12">
     <g id="line2d_35">
      <path d="M 1072.12 298.77621 
C 1072.12 267.657636 1065.990319 236.841652 1054.081757 208.091838 
C 1042.173194 179.342025 1024.717341 153.217494 1002.713186 131.21334 
C 980.709032 109.209185 954.584501 91.753332 925.834688 79.844769 
C 897.084874 67.936207 866.26889 61.806526 835.150316 61.806526 
C 804.031742 61.806526 773.215757 67.936207 744.465944 79.844769 
C 715.71613 91.753332 689.5916 109.209185 667.587445 131.21334 
C 645.583291 153.217494 628.127437 179.342025 616.218875 208.091838 
C 604.310312 236.841652 598.180632 267.657636 598.180632 298.77621 
C 598.180632 329.894784 604.310312 360.710769 616.218875 389.460582 
C 628.127437 418.210396 645.583291 444.334926 667.587445 466.339081 
C 689.5916 488.343235 715.71613 505.799089 744.465944 517.707651 
C 773.215757 529.616214 804.031742 535.745894 835.150316 535.745894 
C 866.26889 535.745894 897.084874 529.616214 925.834688 517.707651 
C 954.584501 505.799089 980.709032 488.343235 1002.713186 466.339081 
C 1024.717341 444.334926 1042.173194 418.210396 1054.081757 389.460582 
C 1065.990319 360.710769 1072.12 329.894784 1072.12 298.77621 
" clip-path="url(#p8a3cc6698c)" style="fill: none; stroke: #b0b0b0; stroke-width: 0.8; stroke-linecap: square"/>
     </g>
     <g id="text_32">
      <!-- 1.0 -->
      <g transform="translate(1054.081757 206.012151) scale(0.1 -0.1)">
       <use xlink:href="#DejaVuSans-31"/>
       <use xlink:href="#DejaVuSans-2e" x="63.623047"/>
       <use xlink:href="#DejaVuSans-30" x="95.410156"/>
      </g>
     </g>
    </g>
   </g>
   <g id="line2d_36">
    <path d="M 1061.87386 298.77621 
L 1037.319111 192.669841 
L 928.035215 164.209202 
L 861.947882 78.078396 
L 756.564026 91.561193 
L 810.752541 277.161668 
L 612.853855 243.985054 
L 617.770078 352.355627 
L 671.487958 443.768407 
L 760.812012 494.790209 
L 861.136522 512.791876 
L 953.047947 469.580417 
L 997.822521 384.15317 
L 1061.87386 298.77621 
" clip-path="url(#p8a3cc6698c)" style="fill: none; stroke: #0000ff; stroke-width: 2; stroke-linecap: square"/>
   </g>
   <g id="line2d_37">
    <path d="M 1057.648604 298.77621 
L 1033.790187 194.521963 
L 939.409445 147.730785 
L 861.553694 81.324823 
L 755.616819 89.063615 
L 745.806465 219.624466 
L 634.544346 249.33128 
L 626.684793 350.158347 
L 674.2267 441.342093 
L 767.490477 477.180543 
L 860.779025 509.847619 
L 954.741767 472.034338 
L 996.417991 383.416016 
L 1057.648604 298.77621 
" clip-path="url(#p8a3cc6698c)" style="fill: none; stroke: #ff0000; stroke-width: 2; stroke-linecap: square"/>
   </g>
   <g id="line2d_38">
    <path d="M 1061.91186 298.77621 
L 1036.918831 192.879924 
L 946.440328 137.544793 
L 862.131171 76.568875 
L 756.566731 91.568326 
L 780.040668 249.953323 
L 614.653823 244.428706 
L 620.017374 351.801718 
L 671.86381 443.435432 
L 762.979685 489.074524 
L 861.249097 513.719012 
L 954.26166 471.338783 
L 992.197489 381.200925 
L 1061.91186 298.77621 
" clip-path="url(#p8a3cc6698c)" style="fill: none; stroke: #008000; stroke-width: 2; stroke-linecap: square"/>
   </g>
   <g id="patch_11">
    <path d="M 1072.12 298.77621 
C 1072.12 267.657636 1065.990319 236.841652 1054.081757 208.091838 
C 1042.173194 179.342025 1024.717341 153.217494 1002.713186 131.21334 
C 980.709032 109.209185 954.584501 91.753332 925.834688 79.844769 
C 897.084874 67.936207 866.26889 61.806526 835.150316 61.806526 
C 804.031742 61.806526 773.215757 67.936207 744.465944 79.844769 
C 715.71613 91.753332 689.5916 109.209185 667.587445 131.21334 
C 645.583291 153.217494 628.127437 179.342025 616.218875 208.091838 
C 604.310312 236.841652 598.180632 267.657636 598.180632 298.77621 
C 598.180632 329.894784 604.310312 360.710769 616.218875 389.460582 
C 628.127437 418.210396 645.583291 444.334926 667.587445 466.339081 
C 689.5916 488.343235 715.71613 505.799089 744.465944 517.707651 
C 773.215757 529.616214 804.031742 535.745894 835.150316 535.745894 
C 866.26889 535.745894 897.084874 529.616214 925.834688 517.707651 
C 954.584501 505.799089 980.709032 488.343235 1002.713186 466.339081 
C 1024.717341 444.334926 1042.173194 418.210396 1054.081757 389.460582 
C 1065.990319 360.710769 1072.12 329.894784 1072.12 298.77621 
" style="fill: none; stroke: #000000; stroke-width: 0.8; stroke-linejoin: miter; stroke-linecap: square"/>
   </g>
   <g id="legend_1">
    <g id="patch_12">
     <path d="M 1029.706124 61.626745 
L 1112.513937 61.626745 
Q 1114.513937 61.626745 1114.513937 59.626745 
L 1114.513937 16.59237 
Q 1114.513937 14.59237 1112.513937 14.59237 
L 1029.706124 14.59237 
Q 1027.706124 14.59237 1027.706124 16.59237 
L 1027.706124 59.626745 
Q 1027.706124 61.626745 1029.706124 61.626745 
z
" style="fill: #ffffff; opacity: 0.8; stroke: #cccccc; stroke-linejoin: miter"/>
    </g>
    <g id="line2d_39">
     <path d="M 1031.706124 22.690808 
L 1041.706124 22.690808 
L 1051.706124 22.690808 
" style="fill: none; stroke: #0000ff; stroke-width: 2; stroke-linecap: square"/>
    </g>
    <g id="text_33">
     <!-- Real -->
     <g transform="translate(1059.706124 26.190808) scale(0.1 -0.1)">
      <use xlink:href="#DejaVuSans-52"/>
      <use xlink:href="#DejaVuSans-65" x="64.982422"/>
      <use xlink:href="#DejaVuSans-61" x="126.505859"/>
      <use xlink:href="#DejaVuSans-6c" x="187.785156"/>
     </g>
    </g>
    <g id="line2d_40">
     <path d="M 1031.706124 37.368933 
L 1041.706124 37.368933 
L 1051.706124 37.368933 
" style="fill: none; stroke: #ff0000; stroke-width: 2; stroke-linecap: square"/>
    </g>
    <g id="text_34">
     <!-- Synthetic -->
     <g transform="translate(1059.706124 40.868933) scale(0.1 -0.1)">
      <defs>
       <path id="DejaVuSans-74" d="M 1172 4494 
L 1172 3500 
L 2356 3500 
L 2356 3053 
L 1172 3053 
L 1172 1153 
Q 1172 725 1289 603 
Q 1406 481 1766 481 
L 2356 481 
L 2356 0 
L 1766 0 
Q 1100 0 847 248 
Q 594 497 594 1153 
L 594 3053 
L 172 3053 
L 172 3500 
L 594 3500 
L 594 4494 
L 1172 4494 
z
" transform="scale(0.015625)"/>
      </defs>
      <use xlink:href="#DejaVuSans-53"/>
      <use xlink:href="#DejaVuSans-79" x="63.476562"/>
      <use xlink:href="#DejaVuSans-6e" x="122.65625"/>
      <use xlink:href="#DejaVuSans-74" x="186.035156"/>
      <use xlink:href="#DejaVuSans-68" x="225.244141"/>
      <use xlink:href="#DejaVuSans-65" x="288.623047"/>
      <use xlink:href="#DejaVuSans-74" x="350.146484"/>
      <use xlink:href="#DejaVuSans-69" x="389.355469"/>
      <use xlink:href="#DejaVuSans-63" x="417.138672"/>
     </g>
    </g>
    <g id="line2d_41">
     <path d="M 1031.706124 52.047058 
L 1041.706124 52.047058 
L 1051.706124 52.047058 
" style="fill: none; stroke: #008000; stroke-width: 2; stroke-linecap: square"/>
    </g>
    <g id="text_35">
     <!-- Combined -->
     <g transform="translate(1059.706124 55.547058) scale(0.1 -0.1)">
      <defs>
       <path id="DejaVuSans-43" d="M 4122 4306 
L 4122 3641 
Q 3803 3938 3442 4084 
Q 3081 4231 2675 4231 
Q 1875 4231 1450 3742 
Q 1025 3253 1025 2328 
Q 1025 1406 1450 917 
Q 1875 428 2675 428 
Q 3081 428 3442 575 
Q 3803 722 4122 1019 
L 4122 359 
Q 3791 134 3420 21 
Q 3050 -91 2638 -91 
Q 1578 -91 968 557 
Q 359 1206 359 2328 
Q 359 3453 968 4101 
Q 1578 4750 2638 4750 
Q 3056 4750 3426 4639 
Q 3797 4528 4122 4306 
z
" transform="scale(0.015625)"/>
       <path id="DejaVuSans-6d" d="M 3328 2828 
Q 3544 3216 3844 3400 
Q 4144 3584 4550 3584 
Q 5097 3584 5394 3201 
Q 5691 2819 5691 2113 
L 5691 0 
L 5113 0 
L 5113 2094 
Q 5113 2597 4934 2840 
Q 4756 3084 4391 3084 
Q 3944 3084 3684 2787 
Q 3425 2491 3425 1978 
L 3425 0 
L 2847 0 
L 2847 2094 
Q 2847 2600 2669 2842 
Q 2491 3084 2119 3084 
Q 1678 3084 1418 2786 
Q 1159 2488 1159 1978 
L 1159 0 
L 581 0 
L 581 3500 
L 1159 3500 
L 1159 2956 
Q 1356 3278 1631 3431 
Q 1906 3584 2284 3584 
Q 2666 3584 2933 3390 
Q 3200 3197 3328 2828 
z
" transform="scale(0.015625)"/>
      </defs>
      <use xlink:href="#DejaVuSans-43"/>
      <use xlink:href="#DejaVuSans-6f" x="69.824219"/>
      <use xlink:href="#DejaVuSans-6d" x="131.005859"/>
      <use xlink:href="#DejaVuSans-62" x="228.417969"/>
      <use xlink:href="#DejaVuSans-69" x="291.894531"/>
      <use xlink:href="#DejaVuSans-6e" x="319.677734"/>
      <use xlink:href="#DejaVuSans-65" x="383.056641"/>
      <use xlink:href="#DejaVuSans-64" x="444.580078"/>
     </g>
    </g>
   </g>
  </g>
 </g>
 <defs>
  <clipPath id="p8bf0801da4">
   <path d="M 507.858616 298.77621 
C 507.858616 267.657636 501.728935 236.841652 489.820372 208.091838 
C 477.91181 179.342025 460.455957 153.217494 438.451802 131.21334 
C 416.447647 109.209185 390.323117 91.753332 361.573303 79.844769 
C 332.82349 67.936207 302.007505 61.806526 270.888931 61.806526 
C 239.770358 61.806526 208.954373 67.936207 180.204559 79.844769 
C 151.454746 91.753332 125.330215 109.209185 103.326061 131.21334 
C 81.321906 153.217494 63.866053 179.342025 51.95749 208.091838 
C 40.048928 236.841652 33.919247 267.657636 33.919247 298.77621 
C 33.919247 329.894784 40.048928 360.710769 51.95749 389.460582 
C 63.866053 418.210396 81.321906 444.334926 103.326061 466.339081 
C 125.330215 488.343235 151.454746 505.799089 180.204559 517.707651 
C 208.954373 529.616214 239.770358 535.745894 270.888931 535.745894 
C 302.007505 535.745894 332.82349 529.616214 361.573303 517.707651 
C 390.323117 505.799089 416.447647 488.343235 438.451802 466.339081 
C 460.455957 444.334926 477.91181 418.210396 489.820372 389.460582 
C 501.728935 360.710769 507.858616 329.894784 507.858616 298.77621 
M 270.888931 298.77621 
C 270.888931 298.77621 270.888931 298.77621 270.888931 298.77621 
C 270.888931 298.77621 270.888931 298.77621 270.888931 298.77621 
C 270.888931 298.77621 270.888931 298.77621 270.888931 298.77621 
C 270.888931 298.77621 270.888931 298.77621 270.888931 298.77621 
C 270.888931 298.77621 270.888931 298.77621 270.888931 298.77621 
C 270.888931 298.77621 270.888931 298.77621 270.888931 298.77621 
C 270.888931 298.77621 270.888931 298.77621 270.888931 298.77621 
C 270.888931 298.77621 270.888931 298.77621 270.888931 298.77621 
C 270.888931 298.77621 270.888931 298.77621 270.888931 298.77621 
C 270.888931 298.77621 270.888931 298.77621 270.888931 298.77621 
C 270.888931 298.77621 270.888931 298.77621 270.888931 298.77621 
C 270.888931 298.77621 270.888931 298.77621 270.888931 298.77621 
C 270.888931 298.77621 270.888931 298.77621 270.888931 298.77621 
C 270.888931 298.77621 270.888931 298.77621 270.888931 298.77621 
C 270.888931 298.77621 270.888931 298.77621 270.888931 298.77621 
C 270.888931 298.77621 270.888931 298.77621 270.888931 298.77621 
z
"/>
  </clipPath>
  <clipPath id="p8a3cc6698c">
   <path d="M 1072.12 298.77621 
C 1072.12 267.657636 1065.990319 236.841652 1054.081757 208.091838 
C 1042.173194 179.342025 1024.717341 153.217494 1002.713186 131.21334 
C 980.709032 109.209185 954.584501 91.753332 925.834688 79.844769 
C 897.084874 67.936207 866.26889 61.806526 835.150316 61.806526 
C 804.031742 61.806526 773.215757 67.936207 744.465944 79.844769 
C 715.71613 91.753332 689.5916 109.209185 667.587445 131.21334 
C 645.583291 153.217494 628.127437 179.342025 616.218875 208.091838 
C 604.310312 236.841652 598.180632 267.657636 598.180632 298.77621 
C 598.180632 329.894784 604.310312 360.710769 616.218875 389.460582 
C 628.127437 418.210396 645.583291 444.334926 667.587445 466.339081 
C 689.5916 488.343235 715.71613 505.799089 744.465944 517.707651 
C 773.215757 529.616214 804.031742 535.745894 835.150316 535.745894 
C 866.26889 535.745894 897.084874 529.616214 925.834688 517.707651 
C 954.584501 505.799089 980.709032 488.343235 1002.713186 466.339081 
C 1024.717341 444.334926 1042.173194 418.210396 1054.081757 389.460582 
C 1065.990319 360.710769 1072.12 329.894784 1072.12 298.77621 
M 835.150316 298.77621 
C 835.150316 298.77621 835.150316 298.77621 835.150316 298.77621 
C 835.150316 298.77621 835.150316 298.77621 835.150316 298.77621 
C 835.150316 298.77621 835.150316 298.77621 835.150316 298.77621 
C 835.150316 298.77621 835.150316 298.77621 835.150316 298.77621 
C 835.150316 298.77621 835.150316 298.77621 835.150316 298.77621 
C 835.150316 298.77621 835.150316 298.77621 835.150316 298.77621 
C 835.150316 298.77621 835.150316 298.77621 835.150316 298.77621 
C 835.150316 298.77621 835.150316 298.77621 835.150316 298.77621 
C 835.150316 298.77621 835.150316 298.77621 835.150316 298.77621 
C 835.150316 298.77621 835.150316 298.77621 835.150316 298.77621 
C 835.150316 298.77621 835.150316 298.77621 835.150316 298.77621 
C 835.150316 298.77621 835.150316 298.77621 835.150316 298.77621 
C 835.150316 298.77621 835.150316 298.77621 835.150316 298.77621 
C 835.150316 298.77621 835.150316 298.77621 835.150316 298.77621 
C 835.150316 298.77621 835.150316 298.77621 835.150316 298.77621 
C 835.150316 298.77621 835.150316 298.77621 835.150316 298.77621 
z
"/>
  </clipPath>
 </defs>
</svg>
